<?xml version="1.0" encoding="utf-8"?>
<!-- Generator: Adobe Illustrator 19.0.0, SVG Export Plug-In . SVG Version: 6.00 Build 0)  -->
<svg version="1.1" id="Capa_1" xmlns="http://www.w3.org/2000/svg" xmlns:xlink="http://www.w3.org/1999/xlink" x="0px" y="0px"
	 viewBox="0 0 643 560" style="enable-background:new 0 0 643 560;" xml:space="preserve">
<style type="text/css">
	.st0{fill:#E44F41;stroke:#FFFFFF;stroke-width:3;stroke-miterlimit:10;}
	.st1{stroke:#FFFFFF;stroke-width:3;stroke-miterlimit:10;}
	.st2{fill:none;stroke:#FFFFFF;stroke-width:3;stroke-miterlimit:10;}
</style>
<circle id="XMLID_2_" class="st0" cx="322" cy="75.5" r="59.5"/>
<circle id="XMLID_4_" class="st1" cx="197" cy="263.5" r="59.5"/>
<circle id="XMLID_6_" class="st1" cx="445" cy="263.5" r="59.5"/>
<circle id="XMLID_5_" class="st1" cx="322" cy="441.5" r="59.5"/>
<circle id="XMLID_8_" class="st1" cx="572" cy="441.5" r="59.5"/>
<circle id="XMLID_7_" class="st1" cx="72" cy="441.5" r="59.5"/>
<g id="XMLID_3_">
	<path id="XMLID_40_" d="M302.5,49h5.4v1.6h-1.4v15.9h-2.7l-8-13.4v11.7h1.4v1.6h-5.4v-1.6h1.4V50.6h-1.4V49h4.1l8,13.4V50.6h-1.4
		V49z"/>
	<path id="XMLID_42_" d="M313.7,66.4c-0.8-0.3-1.3-0.6-1.8-1s-0.7-1-1-1.6c-0.2-0.7-0.4-1.3-0.5-1.9c-0.1-0.6-0.1-1.3-0.1-2.2
		s0-1.6,0.1-2.2c0.1-0.6,0.2-1.3,0.5-1.9c0.2-0.7,0.6-1.2,1-1.6c0.4-0.4,1-0.8,1.8-1c0.8-0.3,1.7-0.4,2.7-0.4s2,0.1,2.7,0.4
		s1.3,0.6,1.8,1c0.4,0.4,0.7,1,1,1.6c0.2,0.7,0.4,1.3,0.5,1.9c0.1,0.6,0.1,1.3,0.1,2.2s0,1.6-0.1,2.2c-0.1,0.6-0.2,1.3-0.5,1.9
		c-0.2,0.7-0.6,1.2-1,1.6s-1,0.8-1.8,1c-0.8,0.3-1.7,0.4-2.7,0.4S314.5,66.7,313.7,66.4z M317.9,64.7c0.4-0.1,0.8-0.3,1-0.6
		c0.3-0.3,0.5-0.5,0.6-0.8s0.3-0.7,0.3-1.1c0.1-0.4,0.1-0.9,0.1-1.2c0-0.4,0-0.8,0-1.4s0-1,0-1.4c0-0.4-0.1-0.8-0.1-1.2
		c-0.1-0.4-0.2-0.8-0.3-1.1s-0.4-0.6-0.6-0.8c-0.3-0.3-0.6-0.5-1-0.6c-0.4-0.1-0.9-0.2-1.5-0.2c-0.6,0-1,0.1-1.5,0.2
		c-0.4,0.1-0.8,0.3-1,0.6c-0.3,0.3-0.5,0.5-0.6,0.8c-0.2,0.3-0.3,0.7-0.3,1.1c-0.1,0.4-0.1,0.9-0.1,1.2s0,0.8,0,1.4s0,1,0,1.4
		c0,0.4,0.1,0.8,0.1,1.2c0.1,0.4,0.2,0.8,0.3,1.1c0.2,0.3,0.4,0.6,0.6,0.8c0.3,0.3,0.6,0.5,1,0.6c0.4,0.1,0.9,0.2,1.5,0.2
		C317,64.9,317.5,64.9,317.9,64.7z"/>
	<path id="XMLID_45_" d="M334.4,65.3c-1.3,1-2.7,1.6-4.1,1.6c-0.9,0-1.7-0.1-2.4-0.4c-0.7-0.3-1.2-0.6-1.6-1s-0.7-1-0.9-1.6
		c-0.2-0.7-0.3-1.3-0.4-1.9c-0.1-0.6-0.1-1.3-0.1-2.2s0-1.6,0.1-2.2c0.1-0.6,0.2-1.3,0.4-1.9c0.2-0.7,0.5-1.2,0.9-1.6
		c0.4-0.4,0.9-0.8,1.6-1c0.7-0.3,1.5-0.4,2.4-0.4c1.1,0,2.3,0.2,3.5,0.7v-2.8h-1.4v-1.6h3.9v16.2h1.4v1.6h-3L334.4,65.3z
		 M333.9,63.8v-8.9c-1-0.4-2-0.6-3-0.6c-0.6,0-1.1,0.1-1.5,0.3c-0.4,0.2-0.8,0.4-1,0.7s-0.5,0.7-0.6,1.1c-0.1,0.5-0.2,1-0.3,1.4
		c0,0.5-0.1,1.1-0.1,1.8c0,0.7,0,1.2,0.1,1.7c0,0.5,0.1,1,0.3,1.4c0.1,0.5,0.3,0.9,0.6,1.2c0.2,0.3,0.6,0.5,1,0.7
		c0.4,0.2,0.9,0.3,1.5,0.3C332,64.9,333,64.5,333.9,63.8z"/>
	<path id="XMLID_48_" d="M343.6,66.4c-0.8-0.3-1.3-0.6-1.8-1s-0.7-1-1-1.6c-0.2-0.7-0.4-1.3-0.5-1.9c-0.1-0.6-0.1-1.3-0.1-2.2
		s0-1.6,0.1-2.2c0.1-0.6,0.2-1.3,0.5-1.9c0.2-0.7,0.6-1.2,1-1.6c0.4-0.4,1-0.8,1.8-1c0.8-0.3,1.7-0.4,2.7-0.4s2,0.1,2.7,0.4
		s1.3,0.6,1.8,1c0.4,0.4,0.7,1,1,1.6c0.2,0.7,0.4,1.3,0.5,1.9c0.1,0.6,0.1,1.3,0.1,2.2s0,1.6-0.1,2.2c-0.1,0.6-0.2,1.3-0.5,1.9
		c-0.2,0.7-0.6,1.2-1,1.6s-1,0.8-1.8,1c-0.8,0.3-1.7,0.4-2.7,0.4S344.3,66.7,343.6,66.4z M347.8,64.7c0.4-0.1,0.8-0.3,1-0.6
		c0.3-0.3,0.5-0.5,0.6-0.8s0.3-0.7,0.3-1.1c0.1-0.4,0.1-0.9,0.1-1.2c0-0.4,0-0.8,0-1.4s0-1,0-1.4c0-0.4-0.1-0.8-0.1-1.2
		c-0.1-0.4-0.2-0.8-0.3-1.1s-0.4-0.6-0.6-0.8c-0.3-0.3-0.6-0.5-1-0.6c-0.4-0.1-0.9-0.2-1.5-0.2c-0.6,0-1,0.1-1.5,0.2
		c-0.4,0.1-0.8,0.3-1,0.6c-0.3,0.3-0.5,0.5-0.6,0.8c-0.2,0.3-0.3,0.7-0.3,1.1c-0.1,0.4-0.1,0.9-0.1,1.2s0,0.8,0,1.4s0,1,0,1.4
		c0,0.4,0.1,0.8,0.1,1.2c0.1,0.4,0.2,0.8,0.3,1.1c0.2,0.3,0.4,0.6,0.6,0.8c0.3,0.3,0.6,0.5,1,0.6c0.4,0.1,0.9,0.2,1.5,0.2
		C346.9,64.9,347.4,64.9,347.8,64.7z"/>
	<path id="XMLID_51_" d="M291.7,82.7c1.3-1,2.7-1.5,4.2-1.5c0.9,0,1.7,0.1,2.3,0.4s1.2,0.6,1.5,1c0.4,0.4,0.7,1,0.9,1.6
		c0.2,0.7,0.3,1.3,0.4,1.9c0.1,0.6,0.1,1.3,0.1,2.2s0,1.6-0.1,2.2c-0.1,0.6-0.2,1.3-0.4,1.9c-0.2,0.7-0.5,1.2-0.9,1.6
		c-0.4,0.4-0.9,0.8-1.6,1c-0.7,0.3-1.5,0.4-2.4,0.4c-1.2,0-2.3-0.2-3.5-0.6v3.9h1.9v1.6h-5.8v-1.6h1.4V83.2h-1.4v-1.6h1.4h1.3
		L291.7,82.7z M292.2,84.2v9c0.9,0.4,1.9,0.6,3,0.6c0.6,0,1.2-0.1,1.6-0.3c0.4-0.2,0.8-0.4,1-0.7c0.2-0.3,0.4-0.7,0.6-1.2
		s0.2-1,0.3-1.4c0-0.5,0.1-1.1,0.1-1.7c0-0.6,0-1.2-0.1-1.6c0-0.4-0.1-0.9-0.3-1.4c-0.1-0.5-0.3-0.9-0.6-1.2c-0.2-0.3-0.6-0.6-1-0.8
		c-0.4-0.2-0.9-0.3-1.5-0.3C294.3,83.2,293.3,83.5,292.2,84.2z"/>
	<path id="XMLID_54_" d="M312.3,93.9c-1.4,1.1-3,1.7-4.6,1.7c-1.4,0-2.5-0.3-3.1-1s-0.9-1.6-0.9-2.9c0-1.4,0.3-2.4,0.9-3
		c0.6-0.6,1.7-1,3.4-1.2l3.9-0.2v-2.1c0-0.7-0.2-1.2-0.7-1.6c-0.5-0.3-1.1-0.5-1.9-0.5c-1.1,0-1.9,0.2-2.3,0.6
		c-0.4,0.4-0.7,1.1-0.7,2l-2-0.1c0.1-1.5,0.5-2.6,1.3-3.3c0.7-0.7,2-1.1,3.9-1.1c3.3,0,4.9,1.3,4.9,3.8v8.6h1.4v1.6h-3L312.3,93.9z
		 M311.9,92.3v-3.3l-3.5,0.2c-0.9,0-1.6,0.2-1.9,0.6c-0.3,0.3-0.5,1-0.5,1.9c0,0.7,0.2,1.2,0.5,1.6c0.4,0.3,0.9,0.5,1.8,0.5
		C309.7,93.8,310.8,93.3,311.9,92.3z"/>
	<path id="XMLID_57_" d="M327.7,94.1c-1.3,1-2.7,1.6-4.1,1.6c-0.9,0-1.7-0.1-2.4-0.4c-0.7-0.3-1.2-0.6-1.6-1s-0.7-1-0.9-1.6
		c-0.2-0.7-0.3-1.3-0.4-1.9c-0.1-0.6-0.1-1.3-0.1-2.2s0-1.6,0.1-2.2c0.1-0.6,0.2-1.3,0.4-1.9c0.2-0.7,0.5-1.2,0.9-1.6
		c0.4-0.4,0.9-0.8,1.6-1c0.7-0.3,1.5-0.4,2.4-0.4c1.1,0,2.3,0.2,3.5,0.7v-2.8h-1.4v-1.6h3.9v16.2h1.4v1.6h-3L327.7,94.1z
		 M327.1,92.6v-8.9c-1-0.4-2-0.6-3-0.6c-0.6,0-1.1,0.1-1.5,0.3c-0.4,0.2-0.8,0.4-1,0.7s-0.5,0.7-0.6,1.1c-0.1,0.5-0.2,1-0.3,1.4
		c0,0.5-0.1,1.1-0.1,1.8c0,0.7,0,1.2,0.1,1.7c0,0.5,0.1,1,0.3,1.4c0.1,0.5,0.3,0.9,0.6,1.2c0.2,0.3,0.6,0.5,1,0.7
		c0.4,0.2,0.9,0.3,1.5,0.3C325.2,93.7,326.2,93.3,327.1,92.6z"/>
	<path id="XMLID_60_" d="M337.4,83.9c1.1-1.7,2.8-2.6,4.8-2.7v2.2c-2.1,0.1-3.6,0.9-4.7,2.4v7.8h1.9v1.6h-5.8v-1.6h1.4V83.2h-1.4
		v-1.6h1.4h1.3L337.4,83.9z"/>
	<path id="XMLID_62_" d="M346.8,95.2c-0.8-0.3-1.4-0.8-1.8-1.4c-0.4-0.6-0.7-1.4-0.9-2.2c-0.2-0.8-0.3-1.9-0.3-3.1
		c0-0.8,0-1.6,0.1-2.2c0.1-0.6,0.2-1.3,0.5-1.9c0.2-0.7,0.6-1.2,1-1.6c0.4-0.4,1-0.8,1.7-1c0.7-0.3,1.6-0.4,2.6-0.4
		c1,0,1.9,0.1,2.6,0.4c0.7,0.3,1.3,0.6,1.7,1c0.4,0.4,0.7,1,0.9,1.6c0.2,0.7,0.4,1.3,0.4,1.9c0.1,0.6,0.1,1.3,0.1,2.2v0.6h-9.2
		c0,1.7,0.3,2.9,0.8,3.6c0.5,0.7,1.4,1,2.8,1c1.2,0,2.1-0.2,2.6-0.7c0.5-0.5,0.7-1.1,0.8-2l2,0.1c-0.1,0.7-0.2,1.3-0.3,1.8
		c-0.2,0.5-0.4,1-0.8,1.4c-0.4,0.5-0.9,0.8-1.6,1c-0.7,0.2-1.6,0.3-2.7,0.3C348.6,95.6,347.6,95.5,346.8,95.2z M347.1,84.2
		c-0.5,0.7-0.7,1.7-0.8,3.1h6.7c0-1.4-0.3-2.4-0.7-3.1c-0.4-0.7-1.3-1-2.6-1C348.4,83.2,347.6,83.5,347.1,84.2z"/>
</g>
<line id="XMLID_9_" class="st2" x1="279.9" y1="117.6" x2="224.6" y2="210.8"/>
<line id="XMLID_10_" class="st2" x1="364.1" y1="117.6" x2="417.4" y2="210.8"/>
<line id="XMLID_11_" class="st2" x1="163.1" y1="312.4" x2="105.7" y2="392.5"/>
<line id="XMLID_12_" class="st2" x1="239.1" y1="305.6" x2="292.9" y2="389.6"/>
<line id="XMLID_13_" class="st2" x1="478.9" y1="312.4" x2="529.9" y2="399.4"/>
</svg>
