<?xml version="1.0" encoding="utf-8"?>
<!-- Generator: Adobe Illustrator 19.0.0, SVG Export Plug-In . SVG Version: 6.00 Build 0)  -->
<svg version="1.1" id="Capa_1" xmlns="http://www.w3.org/2000/svg" xmlns:xlink="http://www.w3.org/1999/xlink" x="0px" y="0px"
	 viewBox="0 0 960 560" style="enable-background:new 0 0 960 560;" xml:space="preserve">
<style type="text/css">
	.st0{opacity:0.48;}
	.st1{fill:none;stroke:#FAF7C5;stroke-miterlimit:10;}
	.st2{fill:#FFFFFF;}
	.st3{fill:#FAF7C5;}
	.st4{fill:none;stroke:#E44F41;stroke-width:2;stroke-miterlimit:10;}
	.st5{fill:none;stroke:#FAF7C5;stroke-width:4;stroke-miterlimit:10;}
</style>
<g id="XMLID_3_" class="st0">
	<rect id="XMLID_4_" x="310.5" y="111.5" class="st1" width="338" height="338"/>
	<line id="XMLID_5_" class="st1" x1="311" y1="392.5" x2="649" y2="392.5"/>
	<line id="XMLID_6_" class="st1" x1="311" y1="336.5" x2="649" y2="336.5"/>
	<line id="XMLID_7_" class="st1" x1="311" y1="280.5" x2="649" y2="280.5"/>
	<line id="XMLID_8_" class="st1" x1="311" y1="223.5" x2="649" y2="223.5"/>
	<line id="XMLID_9_" class="st1" x1="311" y1="167.5" x2="649" y2="167.5"/>
	<line id="XMLID_10_" class="st1" x1="592.5" y1="111" x2="592.5" y2="449"/>
	<line id="XMLID_11_" class="st1" x1="536.5" y1="111" x2="536.5" y2="449"/>
	<line id="XMLID_12_" class="st1" x1="479.5" y1="111" x2="479.5" y2="449"/>
	<line id="XMLID_13_" class="st1" x1="423.5" y1="111" x2="423.5" y2="449"/>
	<line id="XMLID_14_" class="st1" x1="367.5" y1="111" x2="367.5" y2="449"/>
</g>
<g id="XMLID_2_">
	<path id="XMLID_19_" class="st2" d="M324.7,96.8h1.4V81.7h-1.4v-1.2H336v3.8h-1.3v-2.4h-6.8v6.5h6.9v1.4h-6.9v6.8h7.2v-2.4h1.3V98
		h-11.8V96.8z"/>
	<path id="XMLID_21_" class="st2" d="M339.3,84.3h3.1v15.6c0,1.2-0.2,2.2-0.6,2.7c-0.4,0.6-1.3,0.9-2.7,0.9h-1.5v-1.3l1.5-0.1
		c0.7-0.1,1.1-0.2,1.3-0.6c0.2-0.3,0.3-0.8,0.3-1.6V85.5h-1.4V84.3z M341.1,81.7c-0.2-0.1-0.3-0.3-0.3-0.4c0-0.2,0-0.4,0-0.6
		c0-0.3,0-0.5,0-0.6c0-0.2,0.1-0.3,0.3-0.4c0.2-0.1,0.4-0.2,0.7-0.2c0.3,0,0.6,0.1,0.7,0.2s0.3,0.3,0.3,0.4c0,0.2,0,0.4,0,0.6
		c0,0.4-0.1,0.7-0.2,0.9c-0.1,0.2-0.4,0.3-0.9,0.3C341.5,81.9,341.3,81.8,341.1,81.7z"/>
	<path id="XMLID_24_" class="st2" d="M348.2,96.6c-0.8-1.1-1.2-3-1.2-5.5c0-0.8,0-1.6,0.1-2.2c0.1-0.6,0.2-1.3,0.4-1.9
		c0.2-0.7,0.5-1.2,0.9-1.6c0.4-0.4,1-0.8,1.7-1s1.5-0.4,2.5-0.4s1.8,0.1,2.5,0.4c0.7,0.3,1.2,0.6,1.6,1c0.4,0.4,0.7,1,0.9,1.6
		c0.2,0.7,0.4,1.3,0.4,1.9c0.1,0.6,0.1,1.3,0.1,2.2v0.4h-9.6c0,2,0.3,3.3,0.8,4.2c0.5,0.8,1.6,1.2,3.2,1.2c1.4,0,2.4-0.3,3-0.8
		c0.5-0.6,0.9-1.4,1-2.4l1.4,0.1c-0.1,0.7-0.2,1.3-0.3,1.8c-0.2,0.5-0.4,1-0.8,1.4s-0.9,0.8-1.6,1c-0.7,0.2-1.6,0.4-2.6,0.4
		C350.5,98.3,349,97.8,348.2,96.6z M350.6,85.7c-0.5,0.3-0.9,0.6-1.2,1.1c-0.3,0.5-0.4,1-0.6,1.5c-0.1,0.5-0.2,1.1-0.2,1.8h7.8
		c0-0.8-0.1-1.4-0.2-1.9s-0.3-1-0.5-1.5c-0.3-0.5-0.7-0.9-1.2-1.1c-0.5-0.2-1.2-0.4-2-0.4C351.8,85.4,351.1,85.5,350.6,85.7z"/>
	<path id="XMLID_27_" class="st2" d="M371.4,91.4v5.4h1.9V98h-5.1v-1.2h1.4V81.7h-1.4v-1.2h1.4h4.8c1.1,0,2.1,0.1,2.8,0.4
		c0.7,0.3,1.3,0.7,1.6,1.3s0.6,1.1,0.7,1.7c0.1,0.6,0.2,1.3,0.2,2.1c0,0.6,0,1.2-0.1,1.7c-0.1,0.5-0.2,1-0.4,1.5
		c-0.2,0.5-0.5,0.9-0.9,1.2c-0.4,0.3-0.9,0.6-1.5,0.8c-0.7,0.2-1.5,0.3-2.4,0.3H371.4z M374.4,90c0.8,0,1.4-0.1,1.9-0.3
		c0.5-0.2,0.8-0.5,1.1-0.9c0.2-0.4,0.4-0.8,0.5-1.2c0.1-0.4,0.1-1,0.1-1.6s0-1.2-0.1-1.6c-0.1-0.4-0.2-0.8-0.5-1.2s-0.6-0.7-1.1-0.9
		c-0.5-0.2-1.1-0.3-1.9-0.3h-3.1V90H374.4z"/>
	<path id="XMLID_30_" class="st2" d="M385.7,86.9c1.1-1.9,2.8-2.9,5-3v1.6c-2.3,0.1-3.9,1.1-5,3.1v8.1h1.9V98h-5v-1.2h1.4V85.5h-1.4
		v-1.2h1.4h1.1L385.7,86.9z"/>
	<path id="XMLID_32_" class="st2" d="M396.3,98.1c-0.6-0.1-1.1-0.3-1.5-0.6c-0.4-0.2-0.8-0.5-1.1-0.9c-0.3-0.4-0.5-0.7-0.7-1.1
		c-0.2-0.4-0.3-0.8-0.4-1.4c-0.1-0.5-0.2-1-0.2-1.5s0-1,0-1.6s0-1.1,0-1.6s0.1-0.9,0.2-1.5c0.1-0.5,0.2-1,0.4-1.4
		c0.2-0.4,0.4-0.8,0.7-1.1c0.3-0.4,0.6-0.7,1.1-0.9c0.4-0.2,0.9-0.4,1.5-0.6s1.2-0.2,2-0.2s1.4,0.1,2,0.2s1.1,0.3,1.5,0.6
		c0.4,0.2,0.8,0.5,1.1,0.9s0.5,0.7,0.7,1.1c0.2,0.4,0.3,0.8,0.4,1.4c0.1,0.5,0.2,1,0.2,1.5c0,0.5,0,1,0,1.6s0,1.1,0,1.6
		c0,0.5-0.1,0.9-0.2,1.5c-0.1,0.5-0.2,1-0.4,1.4c-0.2,0.4-0.4,0.8-0.7,1.1c-0.3,0.4-0.6,0.7-1.1,0.9c-0.4,0.2-0.9,0.4-1.5,0.6
		s-1.2,0.2-2,0.2S396.8,98.3,396.3,98.1z M400.2,96.6c0.5-0.2,0.9-0.5,1.2-0.8c0.3-0.3,0.5-0.8,0.7-1.3c0.2-0.6,0.3-1.1,0.3-1.5
		s0-1,0-1.7s0-1.3,0-1.7s-0.1-1-0.3-1.5c-0.2-0.6-0.4-1-0.7-1.3c-0.3-0.3-0.7-0.6-1.2-0.8s-1.2-0.3-2-0.3s-1.4,0.1-2,0.3
		s-0.9,0.5-1.2,0.8c-0.3,0.3-0.5,0.8-0.7,1.3c-0.2,0.6-0.3,1.1-0.3,1.5c0,0.5,0,1,0,1.7s0,1.3,0,1.7c0,0.5,0.1,1,0.3,1.5
		c0.2,0.6,0.4,1,0.7,1.3c0.3,0.3,0.7,0.6,1.2,0.8c0.5,0.2,1.2,0.3,2,0.3S399.7,96.8,400.2,96.6z"/>
	<path id="XMLID_35_" class="st2" d="M410.3,84.3h2.9v1.2h-2.9v11.3h1.9V98h-5v-1.2h1.4V85.5H407v-1.2h1.6v-0.8
		c0-1.2,0.2-2.2,0.6-2.7c0.4-0.6,1.3-0.9,2.7-0.9h1.5v1.2l-1.5,0.1c-0.7,0.1-1.1,0.2-1.3,0.6c-0.2,0.3-0.3,0.8-0.3,1.6V84.3z"/>
	<path id="XMLID_37_" class="st2" d="M418.3,84.3v9.8c0,1,0.2,1.8,0.6,2.2c0.4,0.4,1.1,0.7,2.1,0.7c1.7,0,3.3-0.7,4.8-2.1v-9.4h-1.4
		v-1.2h3.1v12.5h1.4V98h-2.6l-0.5-1.8c-1.7,1.4-3.4,2.1-5.3,2.1c-1.5,0-2.6-0.3-3.2-1c-0.6-0.7-0.9-1.8-0.9-3.2v-8.6h-1.4v-1.2h1.4
		H418.3z"/>
	<path id="XMLID_39_" class="st2" d="M432.2,84.3h2.6l0.4,1.5c1.6-1.2,3.3-1.9,5.1-1.9c1.4,0,2.4,0.3,3,1s0.9,1.8,0.9,3.3v8.6h1.4
		V98h-4.6v-1.2h1.4v-8.6c0-1-0.2-1.7-0.6-2.2c-0.4-0.4-1-0.7-2-0.7c-1.6,0-3.2,0.6-4.7,1.8v9.7h1.4V98h-4.6v-1.2h1.4V85.5h-1.4V84.3
		z"/>
	<path id="XMLID_41_" class="st2" d="M458,96.6c-1.3,1.2-2.8,1.8-4.3,1.8c-0.9,0-1.7-0.1-2.3-0.4c-0.6-0.3-1.2-0.6-1.5-1
		s-0.6-1-0.9-1.6c-0.2-0.7-0.3-1.3-0.4-1.9c-0.1-0.6-0.1-1.3-0.1-2.2s0-1.6,0.1-2.2c0.1-0.6,0.2-1.3,0.4-1.9
		c0.2-0.7,0.5-1.2,0.9-1.6c0.4-0.4,0.9-0.8,1.5-1c0.7-0.3,1.5-0.4,2.4-0.4c1.3,0,2.6,0.3,4,0.9v-3.6h-1.4V80h3.1v16.8h1.4V98h-2.6
		L458,96.6z M457.8,95.3v-9.1c-1.2-0.5-2.4-0.8-3.7-0.8c-0.8,0-1.4,0.1-2,0.4c-0.5,0.3-0.9,0.7-1.2,1.2c-0.3,0.6-0.4,1.1-0.6,1.8
		c-0.1,0.6-0.2,1.4-0.2,2.3c0,1.9,0.3,3.3,0.8,4.3c0.5,1,1.5,1.5,3,1.5C455.3,96.9,456.6,96.4,457.8,95.3z"/>
	<path id="XMLID_44_" class="st2" d="M464,84.3h3.1v12.5h1.4V98H464v-1.2h1.4V85.5H464V84.3z M465.6,81.7c-0.2-0.1-0.3-0.3-0.3-0.4
		c0-0.2,0-0.4,0-0.6c0-0.3,0-0.5,0-0.6c0-0.2,0.1-0.3,0.3-0.4c0.2-0.1,0.4-0.2,0.7-0.2c0.3,0,0.6,0.1,0.7,0.2s0.3,0.3,0.3,0.4
		c0,0.2,0,0.4,0,0.6c0,0.4-0.1,0.7-0.2,0.9c-0.1,0.2-0.4,0.3-0.9,0.3C466,81.9,465.7,81.8,465.6,81.7z"/>
	<path id="XMLID_47_" class="st2" d="M480.9,96.6c-1.3,1.2-2.8,1.8-4.3,1.8c-0.9,0-1.7-0.1-2.3-0.4c-0.6-0.3-1.2-0.6-1.5-1
		s-0.6-1-0.9-1.6c-0.2-0.7-0.3-1.3-0.4-1.9c-0.1-0.6-0.1-1.3-0.1-2.2s0-1.6,0.1-2.2c0.1-0.6,0.2-1.3,0.4-1.9
		c0.2-0.7,0.5-1.2,0.9-1.6c0.4-0.4,0.9-0.8,1.5-1c0.7-0.3,1.5-0.4,2.4-0.4c1.3,0,2.6,0.3,4,0.9v-3.6h-1.4V80h3.1v16.8h1.4V98h-2.6
		L480.9,96.6z M480.7,95.3v-9.1c-1.2-0.5-2.4-0.8-3.7-0.8c-0.8,0-1.4,0.1-2,0.4c-0.5,0.3-0.9,0.7-1.2,1.2c-0.3,0.6-0.4,1.1-0.6,1.8
		c-0.1,0.6-0.2,1.4-0.2,2.3c0,1.9,0.3,3.3,0.8,4.3c0.5,1,1.5,1.5,3,1.5C478.3,96.9,479.5,96.4,480.7,95.3z"/>
	<path id="XMLID_50_" class="st2" d="M495.5,96.4c-1.4,1.3-3,1.9-4.7,1.9c-1.5,0-2.6-0.3-3.2-1c-0.6-0.6-0.9-1.6-0.9-2.9
		c0-1.4,0.3-2.4,0.9-3c0.6-0.6,1.7-1,3.3-1.1l4.4-0.3v-2.4c0-1.6-1-2.4-3.1-2.4c-1.4,0-2.3,0.2-2.7,0.7c-0.5,0.5-0.7,1.2-0.8,2.2
		l-1.4-0.1c0-0.7,0.1-1.3,0.3-1.7c0.2-0.5,0.4-0.9,0.7-1.3s0.8-0.7,1.5-0.9c0.6-0.2,1.4-0.3,2.4-0.3c3.2,0,4.8,1.3,4.8,3.8v9h1.4V98
		h-2.6L495.5,96.4z M495.4,95.1v-3.6l-4.3,0.3c-1,0.1-1.7,0.3-2.1,0.7s-0.5,1.1-0.5,2.2c0,0.8,0.2,1.4,0.6,1.8
		c0.4,0.4,1.1,0.6,2.1,0.6C492.6,97,494.1,96.3,495.4,95.1z"/>
	<path id="XMLID_53_" class="st2" d="M510.9,96.6c-1.3,1.2-2.8,1.8-4.3,1.8c-0.9,0-1.7-0.1-2.3-0.4c-0.6-0.3-1.2-0.6-1.5-1
		c-0.4-0.4-0.6-1-0.9-1.6c-0.2-0.7-0.3-1.3-0.4-1.9c-0.1-0.6-0.1-1.3-0.1-2.2s0-1.6,0.1-2.2c0.1-0.6,0.2-1.3,0.4-1.9
		c0.2-0.7,0.5-1.2,0.9-1.6c0.4-0.4,0.9-0.8,1.5-1s1.5-0.4,2.4-0.4c1.3,0,2.6,0.3,4,0.9v-3.6h-1.4V80h3.1v16.8h1.4V98h-2.6
		L510.9,96.6z M510.7,95.3v-9.1c-1.2-0.5-2.4-0.8-3.7-0.8c-0.8,0-1.4,0.1-2,0.4c-0.5,0.3-0.9,0.7-1.2,1.2c-0.3,0.6-0.4,1.1-0.6,1.8
		c-0.1,0.6-0.2,1.4-0.2,2.3c0,1.9,0.3,3.3,0.8,4.3c0.5,1,1.5,1.5,3,1.5C508.2,96.9,509.5,96.4,510.7,95.3z"/>
</g>
<g id="XMLID_16_">
	<path id="XMLID_56_" class="st2" d="M527.7,480.8h1.4v-15.1h-1.4v-1.2H539v3.8h-1.3v-2.4h-6.8v6.5h6.9v1.4h-6.9v6.8h7.2v-2.4h1.3
		v3.8h-11.8V480.8z"/>
	<path id="XMLID_58_" class="st2" d="M542.3,468.3h3.1v15.6c0,1.2-0.2,2.2-0.6,2.7s-1.3,0.9-2.7,0.9h-1.5v-1.3l1.5-0.1
		c0.7-0.1,1.1-0.2,1.3-0.6c0.2-0.3,0.3-0.8,0.3-1.6v-14.4h-1.4V468.3z M544.1,465.7c-0.2-0.1-0.3-0.3-0.3-0.4c0-0.2,0-0.4,0-0.6
		c0-0.3,0-0.5,0-0.6c0-0.2,0.1-0.3,0.3-0.4c0.2-0.1,0.4-0.2,0.7-0.2c0.3,0,0.6,0.1,0.7,0.2c0.2,0.1,0.3,0.3,0.3,0.4
		c0,0.2,0,0.4,0,0.6c0,0.4-0.1,0.7-0.2,0.9c-0.1,0.2-0.4,0.3-0.9,0.3C544.5,465.9,544.3,465.8,544.1,465.7z"/>
	<path id="XMLID_61_" class="st2" d="M551.2,480.6c-0.8-1.1-1.2-3-1.2-5.5c0-0.8,0-1.6,0.1-2.2c0.1-0.6,0.2-1.3,0.4-1.9
		c0.2-0.7,0.5-1.2,0.9-1.6c0.4-0.4,1-0.8,1.7-1c0.7-0.3,1.5-0.4,2.5-0.4s1.8,0.1,2.5,0.4c0.7,0.3,1.2,0.6,1.6,1
		c0.4,0.4,0.7,1,0.9,1.6c0.2,0.7,0.4,1.3,0.4,1.9c0.1,0.6,0.1,1.3,0.1,2.2v0.4h-9.6c0,2,0.3,3.3,0.8,4.2c0.5,0.8,1.6,1.2,3.2,1.2
		c1.4,0,2.4-0.3,3-0.8c0.5-0.6,0.9-1.4,1-2.4l1.4,0.1c-0.1,0.7-0.2,1.3-0.3,1.8c-0.2,0.5-0.4,1-0.8,1.4c-0.4,0.5-0.9,0.8-1.6,1
		c-0.7,0.2-1.6,0.4-2.6,0.4C553.5,482.3,552,481.8,551.2,480.6z M553.6,469.7c-0.5,0.3-0.9,0.6-1.2,1.1c-0.3,0.5-0.4,1-0.6,1.5
		c-0.1,0.5-0.2,1.1-0.2,1.8h7.8c0-0.8-0.1-1.4-0.2-1.9c-0.1-0.5-0.3-1-0.5-1.5s-0.7-0.9-1.2-1.1c-0.5-0.2-1.2-0.4-2-0.4
		C554.8,469.4,554.1,469.5,553.6,469.7z"/>
	<path id="XMLID_64_" class="st2" d="M583,464.5v5.2h-1.3c-0.1-1.3-0.5-2.3-1.1-3c-0.6-0.7-1.7-1-3.3-1c-0.8,0-1.5,0.1-2.1,0.4
		c-0.6,0.2-1,0.6-1.4,0.9c-0.3,0.4-0.6,0.9-0.8,1.6c-0.2,0.7-0.3,1.4-0.4,2.1c-0.1,0.7-0.1,1.6-0.1,2.6c0,1.1,0,2,0.1,2.6
		s0.1,1.3,0.3,2.1c0.2,0.7,0.4,1.3,0.8,1.7c0.3,0.4,0.8,0.7,1.4,0.9c0.6,0.2,1.4,0.4,2.3,0.4c1.5,0,2.5-0.4,3.1-1.1
		c0.6-0.7,0.9-1.7,0.9-2.9l1.4,0.1c-0.1,0.9-0.2,1.6-0.4,2.2s-0.5,1.2-0.8,1.7c-0.4,0.5-0.9,0.9-1.6,1.1c-0.7,0.2-1.6,0.4-2.6,0.4
		c-1,0-1.9-0.1-2.6-0.3s-1.3-0.5-1.8-0.9c-0.5-0.4-0.9-0.8-1.2-1.3c-0.3-0.5-0.5-1.1-0.7-1.8c-0.2-0.8-0.3-1.5-0.3-2.2
		c0-0.7-0.1-1.6-0.1-2.6c0-1.6,0.1-2.9,0.2-3.9c0.2-1,0.4-1.9,0.9-2.8c0.4-0.8,1.1-1.5,2-1.9c0.9-0.4,2-0.6,3.3-0.6
		c2.1,0,3.6,0.7,4.4,2.1v-1.8H583z"/>
	<path id="XMLID_66_" class="st2" d="M594.6,480.4c-1.4,1.3-3,1.9-4.7,1.9c-1.5,0-2.6-0.3-3.2-1c-0.6-0.6-0.9-1.6-0.9-2.9
		c0-1.4,0.3-2.4,0.9-3s1.7-1,3.3-1.1l4.4-0.3v-2.4c0-1.6-1-2.4-3.1-2.4c-1.4,0-2.3,0.2-2.7,0.7s-0.7,1.2-0.8,2.2l-1.4-0.1
		c0-0.7,0.1-1.3,0.3-1.7c0.2-0.5,0.4-0.9,0.7-1.3s0.8-0.7,1.5-0.9c0.6-0.2,1.4-0.3,2.4-0.3c3.2,0,4.8,1.3,4.8,3.8v9h1.4v1.2H595
		L594.6,480.4z M594.5,479.1v-3.6l-4.3,0.3c-1,0.1-1.7,0.3-2.1,0.7c-0.4,0.4-0.5,1.1-0.5,2.2c0,0.8,0.2,1.4,0.6,1.8
		c0.4,0.4,1.1,0.6,2.1,0.6C591.8,481,593.2,480.3,594.5,479.1z"/>
	<path id="XMLID_69_" class="st2" d="M600.7,468.3h2.6l0.4,1.5c1.6-1.2,3.3-1.9,5.1-1.9c1.4,0,2.4,0.3,3,1c0.6,0.7,0.9,1.8,0.9,3.3
		v8.6h1.4v1.2h-4.6v-1.2h1.4v-8.6c0-1-0.2-1.7-0.6-2.2c-0.4-0.4-1-0.7-2-0.7c-1.6,0-3.2,0.6-4.7,1.8v9.7h1.4v1.2h-4.6v-1.2h1.4
		v-11.3h-1.4V468.3z"/>
	<path id="XMLID_71_" class="st2" d="M616.5,468.3h2.2v-2.7l1.7-0.3v3.1h2.5v1.2h-2.5v9.5c0,0.7,0.1,1.3,0.3,1.6
		c0.2,0.3,0.5,0.5,1,0.5c0.3,0,0.8-0.1,1.3-0.2l0.2,1.2c-0.8,0.2-1.5,0.3-2.1,0.3c-0.4,0-0.8-0.1-1.1-0.2c-0.3-0.1-0.6-0.3-0.7-0.5
		s-0.3-0.4-0.4-0.8c-0.1-0.3-0.2-0.6-0.2-0.9c0-0.3,0-0.6,0-1v-9.5h-2.2V468.3z"/>
	<path id="XMLID_73_" class="st2" d="M626,468.3h3.1v12.5h1.4v1.2H626v-1.2h1.4v-11.3H626V468.3z M627.6,465.7
		c-0.2-0.1-0.3-0.3-0.3-0.4c0-0.2,0-0.4,0-0.6c0-0.3,0-0.5,0-0.6c0-0.2,0.1-0.3,0.3-0.4c0.2-0.1,0.4-0.2,0.7-0.2
		c0.3,0,0.6,0.1,0.7,0.2c0.2,0.1,0.3,0.3,0.3,0.4c0,0.2,0,0.4,0,0.6c0,0.4-0.1,0.7-0.2,0.9c-0.1,0.2-0.4,0.3-0.9,0.3
		C628,465.9,627.8,465.8,627.6,465.7z"/>
	<path id="XMLID_76_" class="st2" d="M643,480.6c-1.3,1.2-2.8,1.8-4.3,1.8c-0.9,0-1.7-0.1-2.3-0.4s-1.2-0.6-1.5-1
		c-0.4-0.4-0.6-1-0.9-1.6s-0.3-1.3-0.4-1.9c-0.1-0.6-0.1-1.3-0.1-2.2c0-0.8,0-1.6,0.1-2.2c0.1-0.6,0.2-1.3,0.4-1.9
		c0.2-0.7,0.5-1.2,0.9-1.6c0.4-0.4,0.9-0.8,1.5-1c0.7-0.3,1.5-0.4,2.4-0.4c1.3,0,2.6,0.3,4,0.9v-3.6h-1.4V464h3.1v16.8h1.4v1.2h-2.6
		L643,480.6z M642.7,479.3v-9.1c-1.2-0.5-2.4-0.8-3.7-0.8c-0.8,0-1.4,0.1-2,0.4c-0.5,0.3-0.9,0.7-1.2,1.2c-0.3,0.6-0.4,1.1-0.6,1.8
		c-0.1,0.6-0.2,1.4-0.2,2.3c0,1.9,0.3,3.3,0.8,4.3s1.5,1.5,3,1.5C640.3,480.9,641.6,480.4,642.7,479.3z"/>
	<path id="XMLID_79_" class="st2" d="M657.5,480.4c-1.4,1.3-3,1.9-4.7,1.9c-1.5,0-2.6-0.3-3.2-1c-0.6-0.6-0.9-1.6-0.9-2.9
		c0-1.4,0.3-2.4,0.9-3c0.6-0.6,1.7-1,3.3-1.1l4.4-0.3v-2.4c0-1.6-1-2.4-3.1-2.4c-1.4,0-2.3,0.2-2.7,0.7s-0.7,1.2-0.8,2.2l-1.4-0.1
		c0-0.7,0.1-1.3,0.3-1.7c0.2-0.5,0.4-0.9,0.7-1.3c0.3-0.4,0.8-0.7,1.5-0.9c0.6-0.2,1.4-0.3,2.4-0.3c3.2,0,4.8,1.3,4.8,3.8v9h1.4v1.2
		H658L657.5,480.4z M657.4,479.1v-3.6l-4.3,0.3c-1,0.1-1.7,0.3-2.1,0.7c-0.4,0.4-0.5,1.1-0.5,2.2c0,0.8,0.2,1.4,0.6,1.8
		c0.4,0.4,1.1,0.6,2.1,0.6C654.7,481,656.1,480.3,657.4,479.1z"/>
	<path id="XMLID_82_" class="st2" d="M672.9,480.6c-1.3,1.2-2.8,1.8-4.3,1.8c-0.9,0-1.7-0.1-2.3-0.4s-1.2-0.6-1.5-1
		c-0.4-0.4-0.6-1-0.9-1.6s-0.3-1.3-0.4-1.9c-0.1-0.6-0.1-1.3-0.1-2.2c0-0.8,0-1.6,0.1-2.2c0.1-0.6,0.2-1.3,0.4-1.9
		c0.2-0.7,0.5-1.2,0.9-1.6c0.4-0.4,0.9-0.8,1.5-1c0.7-0.3,1.5-0.4,2.4-0.4c1.3,0,2.6,0.3,4,0.9v-3.6h-1.4V464h3.1v16.8h1.4v1.2h-2.6
		L672.9,480.6z M672.7,479.3v-9.1c-1.2-0.5-2.4-0.8-3.7-0.8c-0.8,0-1.4,0.1-2,0.4c-0.5,0.3-0.9,0.7-1.2,1.2
		c-0.3,0.6-0.4,1.1-0.6,1.8c-0.1,0.6-0.2,1.4-0.2,2.3c0,1.9,0.3,3.3,0.8,4.3c0.5,1,1.5,1.5,3,1.5
		C670.2,480.9,671.5,480.4,672.7,479.3z"/>
</g>
<polygon id="XMLID_17_" class="st3" points="304.5,78 311,55.6 317.5,78 "/>
<polygon id="XMLID_18_" class="st3" points="678,442.4 700.4,448.8 678,455.3 "/>
<line id="XMLID_1_" class="st4" x1="311" y1="449" x2="648.5" y2="111.5"/>
<polyline id="XMLID_15_" class="st5" points="689,449 311,449 311,71 "/>
</svg>
