<?xml version="1.0" encoding="utf-8"?>
<!-- Generator: Adobe Illustrator 19.0.0, SVG Export Plug-In . SVG Version: 6.00 Build 0)  -->
<svg version="1.1" id="Capa_1" xmlns="http://www.w3.org/2000/svg" xmlns:xlink="http://www.w3.org/1999/xlink" x="0px" y="0px"
	 viewBox="0 0 234 225" style="enable-background:new 0 0 234 225;" xml:space="preserve">
<style type="text/css">
	.st0{fill:url(#XMLID_187_);}
	.st1{fill:none;stroke:#000000;stroke-miterlimit:10;}
	.st2{fill:#BA007C;}
	.st3{fill:none;stroke:#BA007C;stroke-miterlimit:10;}
</style>
<g id="XMLID_1_">
	<linearGradient id="XMLID_187_" gradientUnits="userSpaceOnUse" x1="31.4134" y1="6.0438" x2="222.1767" y2="196.8071">
		<stop  offset="0" style="stop-color:#FFFFFF"/>
		<stop  offset="0.1304" style="stop-color:#FFFFFE"/>
		<stop  offset="0.2184" style="stop-color:#FEFBF7"/>
		<stop  offset="0.294" style="stop-color:#FBF4E9"/>
		<stop  offset="0.3625" style="stop-color:#F6E8D5"/>
		<stop  offset="0.4262" style="stop-color:#F1D9B9"/>
		<stop  offset="0.4857" style="stop-color:#EBC699"/>
		<stop  offset="0.5123" style="stop-color:#E7BD8A"/>
		<stop  offset="0.5375" style="stop-color:#EBC699"/>
		<stop  offset="0.5941" style="stop-color:#F1D9B9"/>
		<stop  offset="0.6549" style="stop-color:#F6E8D5"/>
		<stop  offset="0.7202" style="stop-color:#FBF4E9"/>
		<stop  offset="0.7922" style="stop-color:#FEFBF7"/>
		<stop  offset="0.8761" style="stop-color:#FFFFFE"/>
		<stop  offset="1" style="stop-color:#FFFFFF"/>
	</linearGradient>
	<rect id="XMLID_2_" x="31.1" y="5.8" class="st0" width="192.8" height="192.8"/>
	<g id="XMLID_3_">
		<g id="XMLID_33_">
			<line id="XMLID_36_" class="st1" x1="31.1" y1="12.9" x2="31.1" y2="198.5"/>
			<g id="XMLID_34_">
				<polygon id="XMLID_35_" points="26.1,14.4 31.1,5.8 36.1,14.4 				"/>
			</g>
		</g>
	</g>
	<g id="XMLID_4_">
		<g id="XMLID_38_">
			<line id="XMLID_41_" class="st1" x1="216.7" y1="198.5" x2="31.1" y2="198.5"/>
			<g id="XMLID_39_">
				<polygon id="XMLID_40_" points="215.3,193.6 223.9,198.5 215.3,203.5 				"/>
			</g>
		</g>
	</g>
	<g id="XMLID_5_">
		<path id="XMLID_164_" d="M49.9,23h-3.6l-0.8,2.2h-1.2l3.3-8.5h1l3.3,8.5h-1.2L49.9,23z M46.7,22.1h2.9l-1.5-4L46.7,22.1z"/>
		<path id="XMLID_167_" d="M53.9,18.9l0,0.8c0.5-0.6,1.1-0.9,1.9-0.9c1.3,0,2,0.8,2,2.3v4.2h-1.1V21c0-0.5-0.1-0.8-0.3-1
			s-0.5-0.3-1-0.3c-0.4,0-0.7,0.1-0.9,0.3s-0.5,0.4-0.6,0.7v4.5h-1.1v-6.3H53.9z"/>
		<path id="XMLID_169_" d="M63.2,23.6c0-0.3-0.1-0.5-0.3-0.7s-0.6-0.3-1.2-0.4s-1-0.3-1.3-0.4s-0.6-0.4-0.7-0.6s-0.2-0.5-0.2-0.8
			c0-0.5,0.2-1,0.7-1.3s1-0.5,1.7-0.5c0.7,0,1.3,0.2,1.7,0.6s0.7,0.8,0.7,1.4h-1.1c0-0.3-0.1-0.6-0.4-0.8s-0.6-0.3-1-0.3
			c-0.4,0-0.7,0.1-0.9,0.3s-0.3,0.4-0.3,0.7c0,0.3,0.1,0.5,0.3,0.6s0.6,0.3,1.1,0.4s1,0.3,1.3,0.4s0.6,0.4,0.7,0.6s0.2,0.5,0.2,0.9
			c0,0.6-0.2,1-0.7,1.4s-1,0.5-1.8,0.5c-0.5,0-1-0.1-1.3-0.3s-0.7-0.4-0.9-0.8s-0.3-0.7-0.3-1h1.1c0,0.4,0.2,0.7,0.4,0.9
			s0.6,0.3,1.1,0.3c0.4,0,0.7-0.1,1-0.2S63.2,23.8,63.2,23.6z"/>
		<path id="XMLID_171_" d="M65.7,17.2c0-0.2,0.1-0.3,0.2-0.4s0.3-0.2,0.5-0.2s0.4,0.1,0.5,0.2S67,17,67,17.2s-0.1,0.3-0.2,0.4
			s-0.3,0.2-0.5,0.2s-0.4-0.1-0.5-0.2S65.7,17.4,65.7,17.2z M66.8,25.2h-1.1v-6.3h1.1V25.2z"/>
		<path id="XMLID_174_" d="M71.2,25.4c-0.9,0-1.6-0.3-2.1-0.8s-0.8-1.3-0.8-2.3v-0.2c0-0.6,0.1-1.2,0.4-1.7s0.6-0.9,1-1.2
			s0.9-0.4,1.4-0.4c0.8,0,1.5,0.3,1.9,0.8s0.7,1.3,0.7,2.3v0.5h-4.3c0,0.6,0.2,1.1,0.5,1.5s0.8,0.6,1.3,0.6c0.4,0,0.7-0.1,1-0.2
			s0.5-0.4,0.7-0.6l0.7,0.5C73.1,25,72.3,25.4,71.2,25.4z M71.1,19.7c-0.4,0-0.8,0.2-1.1,0.5s-0.5,0.8-0.6,1.3h3.2v-0.1
			c0-0.6-0.2-1-0.4-1.3S71.5,19.7,71.1,19.7z"/>
		<path id="XMLID_177_" d="M74.7,22c0-1,0.2-1.8,0.7-2.3s1.1-0.9,1.8-0.9c0.7,0,1.3,0.3,1.8,0.8v-3.3H80v9h-1L79,24.6
			c-0.4,0.5-1,0.8-1.8,0.8c-0.7,0-1.3-0.3-1.8-0.9S74.7,23.1,74.7,22L74.7,22z M75.8,22.1c0,0.7,0.1,1.3,0.4,1.7s0.7,0.6,1.2,0.6
			c0.7,0,1.2-0.3,1.5-0.9v-2.9c-0.3-0.6-0.8-0.9-1.5-0.9c-0.5,0-0.9,0.2-1.2,0.6S75.8,21.3,75.8,22.1z"/>
		<path id="XMLID_180_" d="M85.6,25.2c-0.1-0.1-0.1-0.3-0.2-0.7c-0.5,0.5-1.1,0.8-1.8,0.8c-0.6,0-1.1-0.2-1.5-0.5s-0.6-0.8-0.6-1.3
			c0-0.7,0.3-1.2,0.8-1.5s1.2-0.5,2.1-0.5h1.1v-0.5c0-0.4-0.1-0.7-0.3-0.9s-0.6-0.3-1-0.3c-0.4,0-0.7,0.1-1,0.3s-0.4,0.4-0.4,0.7
			h-1.1c0-0.3,0.1-0.6,0.3-0.9s0.5-0.5,0.9-0.7s0.8-0.3,1.3-0.3c0.7,0,1.3,0.2,1.7,0.5s0.6,0.9,0.6,1.5v2.9c0,0.6,0.1,1,0.2,1.4v0.1
			H85.6z M83.8,24.4c0.3,0,0.7-0.1,1-0.3s0.5-0.4,0.7-0.7v-1.3h-0.8c-1.3,0-2,0.4-2,1.2c0,0.3,0.1,0.6,0.3,0.8S83.5,24.4,83.8,24.4z
			"/>
		<path id="XMLID_183_" d="M88,22c0-1,0.2-1.8,0.7-2.3s1.1-0.9,1.8-0.9c0.7,0,1.3,0.3,1.8,0.8v-3.3h1.1v9h-1l-0.1-0.7
			c-0.4,0.5-1,0.8-1.8,0.8c-0.7,0-1.3-0.3-1.8-0.9S88,23.1,88,22L88,22z M89.1,22.1c0,0.7,0.1,1.3,0.4,1.7s0.7,0.6,1.2,0.6
			c0.7,0,1.2-0.3,1.5-0.9v-2.9c-0.3-0.6-0.8-0.9-1.5-0.9c-0.5,0-0.9,0.2-1.2,0.6S89.1,21.3,89.1,22.1z"/>
	</g>
	<g id="XMLID_8_">
		<path id="XMLID_112_" d="M69.8,216.2h-1.1v-3.9h-4.3v3.9h-1.1v-8.5h1.1v3.7h4.3v-3.7h1.1V216.2z"/>
		<path id="XMLID_114_" d="M75.5,216.2c-0.1-0.1-0.1-0.3-0.2-0.7c-0.5,0.5-1.1,0.8-1.8,0.8c-0.6,0-1.1-0.2-1.5-0.5s-0.6-0.8-0.6-1.3
			c0-0.7,0.3-1.2,0.8-1.5s1.2-0.5,2.1-0.5h1.1v-0.5c0-0.4-0.1-0.7-0.3-0.9s-0.6-0.3-1-0.3c-0.4,0-0.7,0.1-1,0.3s-0.4,0.4-0.4,0.7
			h-1.1c0-0.3,0.1-0.6,0.3-0.9s0.5-0.5,0.9-0.7s0.8-0.3,1.3-0.3c0.7,0,1.3,0.2,1.7,0.5s0.6,0.9,0.6,1.5v2.9c0,0.6,0.1,1,0.2,1.4v0.1
			H75.5z M73.7,215.4c0.3,0,0.7-0.1,1-0.3s0.5-0.4,0.7-0.7v-1.3h-0.8c-1.3,0-2,0.4-2,1.2c0,0.3,0.1,0.6,0.3,0.8
			S73.3,215.4,73.7,215.4z"/>
		<path id="XMLID_117_" d="M83.5,213.1c0,1-0.2,1.7-0.7,2.3s-1,0.9-1.8,0.9c-0.8,0-1.4-0.3-1.9-0.8l-0.1,0.7h-1v-9h1.1v3.4
			c0.4-0.5,1-0.8,1.8-0.8s1.4,0.3,1.8,0.9S83.5,212,83.5,213.1L83.5,213.1z M82.4,213c0-0.7-0.1-1.3-0.4-1.7s-0.7-0.6-1.2-0.6
			c-0.7,0-1.2,0.3-1.5,1v2.7c0.3,0.7,0.8,1,1.6,1c0.5,0,0.9-0.2,1.2-0.6S82.4,213.8,82.4,213z"/>
		<path id="XMLID_120_" d="M84.9,208.2c0-0.2,0.1-0.3,0.2-0.4s0.3-0.2,0.5-0.2s0.4,0.1,0.5,0.2s0.2,0.3,0.2,0.4s-0.1,0.3-0.2,0.4
			s-0.3,0.2-0.5,0.2s-0.4-0.1-0.5-0.2S84.9,208.4,84.9,208.2z M86,216.2h-1.1v-6.3H86V216.2z"/>
		<path id="XMLID_123_" d="M88.9,216.2h-1.1v-9h1.1V216.2z"/>
		<path id="XMLID_125_" d="M90.7,208.2c0-0.2,0.1-0.3,0.2-0.4s0.3-0.2,0.5-0.2s0.4,0.1,0.5,0.2s0.2,0.3,0.2,0.4s-0.1,0.3-0.2,0.4
			s-0.3,0.2-0.5,0.2s-0.4-0.1-0.5-0.2S90.7,208.4,90.7,208.2z M91.8,216.2h-1.1v-6.3h1.1V216.2z"/>
		<path id="XMLID_128_" d="M93.3,213c0-1,0.2-1.8,0.7-2.3s1.1-0.9,1.8-0.9c0.7,0,1.3,0.3,1.8,0.8v-3.3h1.1v9h-1l-0.1-0.7
			c-0.4,0.5-1,0.8-1.8,0.8c-0.7,0-1.3-0.3-1.8-0.9S93.3,214.1,93.3,213L93.3,213z M94.4,213.1c0,0.7,0.1,1.3,0.4,1.7
			s0.7,0.6,1.2,0.6c0.7,0,1.2-0.3,1.5-0.9v-2.9c-0.3-0.6-0.8-0.9-1.5-0.9c-0.5,0-0.9,0.2-1.2,0.6S94.4,212.3,94.4,213.1z"/>
		<path id="XMLID_131_" d="M104.3,216.2c-0.1-0.1-0.1-0.3-0.2-0.7c-0.5,0.5-1.1,0.8-1.8,0.8c-0.6,0-1.1-0.2-1.5-0.5
			s-0.6-0.8-0.6-1.3c0-0.7,0.3-1.2,0.8-1.5s1.2-0.5,2.1-0.5h1.1v-0.5c0-0.4-0.1-0.7-0.3-0.9s-0.6-0.3-1-0.3c-0.4,0-0.7,0.1-1,0.3
			s-0.4,0.4-0.4,0.7h-1.1c0-0.3,0.1-0.6,0.3-0.9s0.5-0.5,0.9-0.7s0.8-0.3,1.3-0.3c0.7,0,1.3,0.2,1.7,0.5s0.6,0.9,0.6,1.5v2.9
			c0,0.6,0.1,1,0.2,1.4v0.1H104.3z M102.5,215.4c0.3,0,0.7-0.1,1-0.3s0.5-0.4,0.7-0.7v-1.3h-0.8c-1.3,0-2,0.4-2,1.2
			c0,0.3,0.1,0.6,0.3,0.8S102.1,215.4,102.5,215.4z"/>
		<path id="XMLID_134_" d="M106.6,213c0-1,0.2-1.8,0.7-2.3s1.1-0.9,1.8-0.9c0.7,0,1.3,0.3,1.8,0.8v-3.3h1.1v9h-1l-0.1-0.7
			c-0.4,0.5-1,0.8-1.8,0.8c-0.7,0-1.3-0.3-1.8-0.9S106.6,214.1,106.6,213L106.6,213z M107.7,213.1c0,0.7,0.1,1.3,0.4,1.7
			s0.7,0.6,1.2,0.6c0.7,0,1.2-0.3,1.5-0.9v-2.9c-0.3-0.6-0.8-0.9-1.5-0.9c-0.5,0-0.9,0.2-1.2,0.6S107.7,212.3,107.7,213.1z"/>
		<path id="XMLID_137_" d="M116.4,213c0-1,0.2-1.8,0.7-2.3s1.1-0.9,1.8-0.9c0.7,0,1.3,0.3,1.8,0.8v-3.3h1.1v9h-1l-0.1-0.7
			c-0.4,0.5-1,0.8-1.8,0.8c-0.7,0-1.3-0.3-1.8-0.9S116.4,214.1,116.4,213L116.4,213z M117.4,213.1c0,0.7,0.1,1.3,0.4,1.7
			s0.7,0.6,1.2,0.6c0.7,0,1.2-0.3,1.5-0.9v-2.9c-0.3-0.6-0.8-0.9-1.5-0.9c-0.5,0-0.9,0.2-1.2,0.6S117.4,212.3,117.4,213.1z"/>
		<path id="XMLID_140_" d="M126,216.4c-0.9,0-1.6-0.3-2.1-0.8s-0.8-1.3-0.8-2.3v-0.2c0-0.6,0.1-1.2,0.4-1.7s0.6-0.9,1-1.2
			s0.9-0.4,1.4-0.4c0.8,0,1.5,0.3,1.9,0.8s0.7,1.3,0.7,2.3v0.5h-4.3c0,0.6,0.2,1.1,0.5,1.5s0.8,0.6,1.3,0.6c0.4,0,0.7-0.1,1-0.2
			s0.5-0.4,0.7-0.6l0.7,0.5C127.9,216,127.1,216.4,126,216.4z M125.9,210.7c-0.4,0-0.8,0.2-1.1,0.5s-0.5,0.8-0.6,1.3h3.2v-0.1
			c0-0.6-0.2-1-0.4-1.3S126.3,210.7,125.9,210.7z"/>
		<path id="XMLID_143_" d="M130.9,216.2h-1.1v-9h1.1V216.2z"/>
		<path id="XMLID_145_" d="M136.7,209.9v7.1c0,1.2-0.6,1.8-1.7,1.8c-0.2,0-0.5,0-0.7-0.1v-0.9c0.1,0,0.3,0,0.5,0
			c0.2,0,0.4-0.1,0.6-0.2s0.2-0.4,0.2-0.7v-7.1H136.7z M135.5,208.2c0-0.2,0.1-0.3,0.2-0.4s0.3-0.2,0.5-0.2c0.2,0,0.4,0.1,0.5,0.2
			s0.2,0.3,0.2,0.4s-0.1,0.3-0.2,0.4s-0.3,0.2-0.5,0.2s-0.4-0.1-0.5-0.2S135.5,208.4,135.5,208.2z"/>
		<path id="XMLID_148_" d="M142.4,215.6c-0.4,0.5-1,0.7-1.9,0.7c-0.7,0-1.2-0.2-1.5-0.6s-0.5-1-0.5-1.7v-4.1h1.1v4.1
			c0,1,0.4,1.4,1.2,1.4c0.8,0,1.4-0.3,1.7-0.9v-4.6h1.1v6.3h-1L142.4,215.6z"/>
		<path id="XMLID_150_" d="M144.8,213c0-1,0.2-1.8,0.7-2.4s1.1-0.9,1.8-0.9c0.8,0,1.4,0.3,1.8,0.8l0.1-0.7h1v6.2
			c0,0.8-0.2,1.5-0.7,1.9s-1.1,0.7-2,0.7c-0.5,0-0.9-0.1-1.3-0.3s-0.8-0.5-1-0.8l0.6-0.7c0.5,0.6,1,0.9,1.7,0.9
			c0.5,0,0.9-0.1,1.2-0.4s0.4-0.7,0.4-1.3v-0.5c-0.4,0.5-1,0.8-1.8,0.8c-0.7,0-1.3-0.3-1.8-0.9S144.8,214.1,144.8,213z M145.9,213.1
			c0,0.7,0.1,1.3,0.4,1.7s0.7,0.6,1.2,0.6c0.7,0,1.2-0.3,1.5-0.9v-2.9c-0.3-0.6-0.8-0.9-1.5-0.9c-0.5,0-0.9,0.2-1.2,0.6
			S145.9,212.3,145.9,213.1z"/>
		<path id="XMLID_153_" d="M155.8,216.2c-0.1-0.1-0.1-0.3-0.2-0.7c-0.5,0.5-1.1,0.8-1.8,0.8c-0.6,0-1.1-0.2-1.5-0.5
			s-0.6-0.8-0.6-1.3c0-0.7,0.3-1.2,0.8-1.5s1.2-0.5,2.1-0.5h1.1v-0.5c0-0.4-0.1-0.7-0.3-0.9s-0.6-0.3-1-0.3c-0.4,0-0.7,0.1-1,0.3
			s-0.4,0.4-0.4,0.7h-1.1c0-0.3,0.1-0.6,0.3-0.9s0.5-0.5,0.9-0.7s0.8-0.3,1.3-0.3c0.7,0,1.3,0.2,1.7,0.5s0.6,0.9,0.6,1.5v2.9
			c0,0.6,0.1,1,0.2,1.4v0.1H155.8z M154,215.4c0.3,0,0.7-0.1,1-0.3s0.5-0.4,0.7-0.7v-1.3h-0.8c-1.3,0-2,0.4-2,1.2
			c0,0.3,0.1,0.6,0.3,0.8S153.6,215.4,154,215.4z"/>
		<path id="XMLID_156_" d="M158.1,213c0-1,0.2-1.8,0.7-2.3s1.1-0.9,1.8-0.9c0.7,0,1.3,0.3,1.8,0.8v-3.3h1.1v9h-1l-0.1-0.7
			c-0.4,0.5-1,0.8-1.8,0.8c-0.7,0-1.3-0.3-1.8-0.9S158.1,214.1,158.1,213L158.1,213z M159.2,213.1c0,0.7,0.1,1.3,0.4,1.7
			s0.7,0.6,1.2,0.6c0.7,0,1.2-0.3,1.5-0.9v-2.9c-0.3-0.6-0.8-0.9-1.5-0.9c-0.5,0-0.9,0.2-1.2,0.6S159.2,212.3,159.2,213.1z"/>
		<path id="XMLID_159_" d="M164.8,213c0-0.6,0.1-1.2,0.4-1.7s0.6-0.9,1-1.1s0.9-0.4,1.5-0.4c0.9,0,1.6,0.3,2.1,0.9s0.8,1.4,0.8,2.4
			v0.1c0,0.6-0.1,1.2-0.4,1.7s-0.6,0.9-1,1.1s-0.9,0.4-1.5,0.4c-0.9,0-1.6-0.3-2.1-0.9S164.8,214.1,164.8,213L164.8,213z
			 M165.9,213.1c0,0.7,0.2,1.3,0.5,1.7s0.8,0.6,1.3,0.6c0.6,0,1-0.2,1.3-0.6s0.5-1,0.5-1.8c0-0.7-0.2-1.3-0.5-1.7s-0.8-0.6-1.3-0.6
			c-0.5,0-1,0.2-1.3,0.6S165.9,212.4,165.9,213.1z"/>
		<path id="XMLID_162_" d="M175,210.9c-0.2,0-0.3,0-0.5,0c-0.7,0-1.2,0.3-1.4,0.9v4.5H172v-6.3h1.1l0,0.7c0.4-0.6,0.9-0.8,1.5-0.8
			c0.2,0,0.4,0,0.5,0.1V210.9z"/>
	</g>
	<g id="XMLID_9_">
		<path id="XMLID_63_" d="M20.1,166.1h-8.5v-2.4c0-0.7,0.2-1.4,0.5-2s0.8-1,1.4-1.3s1.3-0.5,2.1-0.5h0.5c0.8,0,1.5,0.2,2.1,0.5
			s1.1,0.8,1.4,1.3s0.5,1.2,0.5,2V166.1z M12.5,165h6.7v-1.2c0-0.9-0.3-1.5-0.8-2s-1.3-0.7-2.3-0.7h-0.5c-1,0-1.7,0.2-2.3,0.7
			c-0.5,0.5-0.8,1.1-0.8,1.9V165z"/>
		<path id="XMLID_66_" d="M12.1,158.4c-0.2,0-0.3-0.1-0.4-0.2s-0.2-0.3-0.2-0.5s0.1-0.4,0.2-0.5s0.3-0.2,0.4-0.2s0.3,0.1,0.4,0.2
			s0.2,0.3,0.2,0.5s-0.1,0.4-0.2,0.5S12.3,158.4,12.1,158.4z M20.1,157.3v1.1h-6.3v-1.1H20.1z"/>
		<path id="XMLID_69_" d="M20.1,155h-5.5v1h-0.8v-1h-0.7c-0.7,0-1.2-0.2-1.6-0.5s-0.6-0.9-0.6-1.5c0-0.3,0-0.5,0.1-0.7l0.9,0.1
			c0,0.2-0.1,0.4-0.1,0.6c0,0.4,0.1,0.6,0.3,0.8s0.5,0.3,0.9,0.3h0.7v-1.4h0.8v1.4h5.5V155z"/>
		<path id="XMLID_71_" d="M12.1,151.3c-0.2,0-0.3-0.1-0.4-0.2s-0.2-0.3-0.2-0.5s0.1-0.4,0.2-0.5s0.3-0.2,0.4-0.2s0.3,0.1,0.4,0.2
			s0.2,0.3,0.2,0.5s-0.1,0.4-0.2,0.5S12.3,151.3,12.1,151.3z M20.1,150.2v1.1h-6.3v-1.1H20.1z"/>
		<path id="XMLID_74_" d="M19.4,145.9c0-0.4-0.1-0.7-0.4-1s-0.5-0.4-0.9-0.5v-1c0.4,0,0.7,0.1,1,0.4s0.6,0.5,0.8,0.9
			s0.3,0.8,0.3,1.2c0,0.9-0.3,1.5-0.9,2.1s-1.4,0.8-2.4,0.8h-0.2c-0.6,0-1.2-0.1-1.6-0.3s-0.9-0.6-1.1-1s-0.4-0.9-0.4-1.5
			c0-0.7,0.2-1.3,0.6-1.8s1-0.7,1.7-0.8v1c-0.4,0-0.7,0.2-1,0.5s-0.4,0.6-0.4,1c0,0.6,0.2,1,0.6,1.3s1,0.5,1.7,0.5h0.2
			c0.7,0,1.3-0.2,1.7-0.5S19.4,146.5,19.4,145.9z"/>
		<path id="XMLID_76_" d="M19.5,138.2c0.5,0.4,0.7,1,0.7,1.9c0,0.7-0.2,1.2-0.6,1.5s-1,0.5-1.7,0.5h-4.1v-1.1h4.1
			c1,0,1.4-0.4,1.4-1.2c0-0.8-0.3-1.4-0.9-1.7h-4.6v-1.1h6.3v1L19.5,138.2z"/>
		<path id="XMLID_78_" d="M20.1,134.4v1.1h-9v-1.1H20.1z"/>
		<path id="XMLID_80_" d="M12.3,131.2h1.5V130h0.8v1.2h3.9c0.3,0,0.4-0.1,0.6-0.2c0.1-0.1,0.2-0.3,0.2-0.5c0-0.1,0-0.3-0.1-0.5h0.9
			c0.1,0.3,0.1,0.6,0.1,0.8c0,0.5-0.1,0.8-0.4,1.1s-0.7,0.4-1.2,0.4h-3.9v1.2h-0.8v-1.2h-1.5V131.2z"/>
		<path id="XMLID_82_" d="M20.1,124.8c-0.1,0.1-0.3,0.1-0.7,0.2c0.5,0.5,0.8,1.1,0.8,1.8c0,0.6-0.2,1.1-0.5,1.5s-0.8,0.6-1.3,0.6
			c-0.7,0-1.2-0.3-1.5-0.8s-0.5-1.2-0.5-2.1V125h-0.5c-0.4,0-0.7,0.1-0.9,0.3s-0.3,0.6-0.3,1c0,0.4,0.1,0.7,0.3,1s0.4,0.4,0.7,0.4
			v1.1c-0.3,0-0.6-0.1-0.9-0.3s-0.5-0.5-0.7-0.9s-0.3-0.8-0.3-1.3c0-0.7,0.2-1.3,0.5-1.7s0.9-0.6,1.5-0.6h2.9c0.6,0,1-0.1,1.4-0.2
			h0.1V124.8z M19.3,126.6c0-0.3-0.1-0.7-0.3-1s-0.4-0.5-0.7-0.7h-1.3v0.8c0,1.3,0.4,2,1.2,2c0.3,0,0.6-0.1,0.8-0.3
			S19.3,127,19.3,126.6z"/>
		<path id="XMLID_85_" d="M16.9,122.5c-1,0-1.8-0.2-2.3-0.7s-0.9-1.1-0.9-1.8c0-0.7,0.3-1.3,0.8-1.8h-3.3v-1.1h9v1l-0.7,0.1
			c0.5,0.4,0.8,1,0.8,1.8c0,0.7-0.3,1.3-0.9,1.8S18,122.5,16.9,122.5L16.9,122.5z M17,121.4c0.7,0,1.3-0.1,1.7-0.4s0.6-0.7,0.6-1.2
			c0-0.7-0.3-1.2-0.9-1.5h-2.9c-0.6,0.3-0.9,0.8-0.9,1.5c0,0.5,0.2,0.9,0.6,1.2S16.2,121.4,17,121.4z"/>
		<path id="XMLID_88_" d="M16.9,112.7c-1,0-1.8-0.2-2.3-0.7s-0.9-1.1-0.9-1.8c0-0.7,0.3-1.3,0.8-1.8h-3.3v-1.1h9v1l-0.7,0.1
			c0.5,0.4,0.8,1,0.8,1.8c0,0.7-0.3,1.3-0.9,1.8S18,112.7,16.9,112.7L16.9,112.7z M17,111.6c0.7,0,1.3-0.1,1.7-0.4s0.6-0.7,0.6-1.2
			c0-0.7-0.3-1.2-0.9-1.5h-2.9c-0.6,0.3-0.9,0.8-0.9,1.5c0,0.5,0.2,0.9,0.6,1.2S16.2,111.6,17,111.6z"/>
		<path id="XMLID_91_" d="M20.3,103.1c0,0.9-0.3,1.6-0.8,2.1s-1.3,0.8-2.3,0.8h-0.2c-0.6,0-1.2-0.1-1.7-0.4s-0.9-0.6-1.2-1
			s-0.4-0.9-0.4-1.4c0-0.8,0.3-1.5,0.8-1.9s1.3-0.7,2.3-0.7h0.5v4.3c0.6,0,1.1-0.2,1.5-0.5s0.6-0.8,0.6-1.3c0-0.4-0.1-0.7-0.2-1
			s-0.4-0.5-0.6-0.7l0.5-0.7C19.8,101.2,20.3,102,20.3,103.1z M14.6,103.2c0,0.4,0.2,0.8,0.5,1.1s0.8,0.5,1.3,0.6v-3.2h-0.1
			c-0.6,0-1,0.2-1.3,0.4S14.6,102.7,14.6,103.2z"/>
		<path id="XMLID_94_" d="M20.1,95.2v1.1h-9v-1.1H20.1z"/>
		<path id="XMLID_96_" d="M20.1,89.5c-0.1,0.1-0.3,0.1-0.7,0.2c0.5,0.5,0.8,1.1,0.8,1.8c0,0.6-0.2,1.1-0.5,1.5s-0.8,0.6-1.3,0.6
			c-0.7,0-1.2-0.3-1.5-0.8s-0.5-1.2-0.5-2.1v-1.1h-0.5c-0.4,0-0.7,0.1-0.9,0.3s-0.3,0.6-0.3,1c0,0.4,0.1,0.7,0.3,1s0.4,0.4,0.7,0.4
			v1.1c-0.3,0-0.6-0.1-0.9-0.3s-0.5-0.5-0.7-0.9s-0.3-0.8-0.3-1.3c0-0.7,0.2-1.3,0.5-1.7s0.9-0.6,1.5-0.6h2.9c0.6,0,1-0.1,1.4-0.2
			h0.1V89.5z M19.3,91.3c0-0.3-0.1-0.7-0.3-1s-0.4-0.5-0.7-0.7h-1.3v0.8c0,1.3,0.4,2,1.2,2c0.3,0,0.6-0.1,0.8-0.3
			S19.3,91.7,19.3,91.3z"/>
		<path id="XMLID_99_" d="M12.3,82.5h1.5v-1.2h0.8v1.2h3.9c0.3,0,0.4-0.1,0.6-0.2c0.1-0.1,0.2-0.3,0.2-0.5c0-0.1,0-0.3-0.1-0.5h0.9
			c0.1,0.3,0.1,0.6,0.1,0.8c0,0.5-0.1,0.8-0.4,1.1s-0.7,0.4-1.2,0.4h-3.9v1.2h-0.8v-1.2h-1.5V82.5z"/>
		<path id="XMLID_101_" d="M20.1,76.1c-0.1,0.1-0.3,0.1-0.7,0.2c0.5,0.5,0.8,1.1,0.8,1.8c0,0.6-0.2,1.1-0.5,1.5s-0.8,0.6-1.3,0.6
			c-0.7,0-1.2-0.3-1.5-0.8s-0.5-1.2-0.5-2.1v-1.1h-0.5c-0.4,0-0.7,0.1-0.9,0.3s-0.3,0.6-0.3,1c0,0.4,0.1,0.7,0.3,1s0.4,0.4,0.7,0.4
			v1.1c-0.3,0-0.6-0.1-0.9-0.3s-0.5-0.5-0.7-0.9s-0.3-0.8-0.3-1.3c0-0.7,0.2-1.3,0.5-1.7s0.9-0.6,1.5-0.6h2.9c0.6,0,1-0.1,1.4-0.2
			h0.1V76.1z M19.3,77.9c0-0.3-0.1-0.7-0.3-1s-0.4-0.5-0.7-0.7h-1.3v0.8c0,1.3,0.4,2,1.2,2c0.3,0,0.6-0.1,0.8-0.3
			S19.3,78.3,19.3,77.9z"/>
		<path id="XMLID_104_" d="M14.8,70.4c0,0.2,0,0.3,0,0.5c0,0.7,0.3,1.2,0.9,1.4h4.5v1.1h-6.3v-1.1l0.7,0c-0.6-0.4-0.8-0.9-0.8-1.5
			c0-0.2,0-0.4,0.1-0.5H14.8z"/>
		<path id="XMLID_106_" d="M20.3,66.9c0,0.9-0.3,1.6-0.8,2.1s-1.3,0.8-2.3,0.8h-0.2c-0.6,0-1.2-0.1-1.7-0.4s-0.9-0.6-1.2-1
			s-0.4-0.9-0.4-1.4c0-0.8,0.3-1.5,0.8-1.9s1.3-0.7,2.3-0.7h0.5v4.3c0.6,0,1.1-0.2,1.5-0.5s0.6-0.8,0.6-1.3c0-0.4-0.1-0.7-0.2-1
			s-0.4-0.5-0.6-0.7l0.5-0.7C19.8,65.1,20.3,65.9,20.3,66.9z M14.6,67.1c0,0.4,0.2,0.8,0.5,1.1s0.8,0.5,1.3,0.6v-3.2h-0.1
			c-0.6,0-1,0.2-1.3,0.4S14.6,66.6,14.6,67.1z"/>
		<path id="XMLID_109_" d="M20.1,59.3c-0.1,0.1-0.3,0.1-0.7,0.2c0.5,0.5,0.8,1.1,0.8,1.8c0,0.6-0.2,1.1-0.5,1.5s-0.8,0.6-1.3,0.6
			c-0.7,0-1.2-0.3-1.5-0.8s-0.5-1.2-0.5-2.1v-1.1h-0.5c-0.4,0-0.7,0.1-0.9,0.3s-0.3,0.6-0.3,1c0,0.4,0.1,0.7,0.3,1s0.4,0.4,0.7,0.4
			v1.1c-0.3,0-0.6-0.1-0.9-0.3s-0.5-0.5-0.7-0.9s-0.3-0.8-0.3-1.3c0-0.7,0.2-1.3,0.5-1.7s0.9-0.6,1.5-0.6h2.9c0.6,0,1-0.1,1.4-0.2
			h0.1V59.3z M19.3,61.1c0-0.3-0.1-0.7-0.3-1s-0.4-0.5-0.7-0.7h-1.3v0.8c0,1.3,0.4,2,1.2,2c0.3,0,0.6-0.1,0.8-0.3
			S19.3,61.4,19.3,61.1z"/>
	</g>
	<g id="XMLID_6_">
		<path id="XMLID_23_" d="M151.9,182.5h-3.6l-0.8,2.2h-1.2l3.3-8.5h1l3.3,8.5h-1.2L151.9,182.5z M148.7,181.6h2.9l-1.5-4
			L148.7,181.6z"/>
		<path id="XMLID_26_" d="M160.2,181.6c0,1-0.2,1.7-0.7,2.3s-1,0.9-1.8,0.9c-0.8,0-1.4-0.3-1.9-0.8l-0.1,0.7h-1v-9h1.1v3.4
			c0.4-0.5,1-0.8,1.8-0.8s1.4,0.3,1.8,0.9S160.2,180.5,160.2,181.6L160.2,181.6z M159.1,181.5c0-0.7-0.1-1.3-0.4-1.7
			s-0.7-0.6-1.2-0.6c-0.7,0-1.2,0.3-1.5,1v2.7c0.3,0.7,0.8,1,1.6,1c0.5,0,0.9-0.2,1.2-0.6S159.1,182.3,159.1,181.5z"/>
		<path id="XMLID_30_" d="M165.5,184.1c-0.4,0.5-1,0.7-1.9,0.7c-0.7,0-1.2-0.2-1.5-0.6s-0.5-1-0.5-1.7v-4.1h1.1v4.1
			c0,1,0.4,1.4,1.2,1.4c0.8,0,1.4-0.3,1.7-0.9v-4.6h1.1v6.3h-1L165.5,184.1z"/>
		<path id="XMLID_32_" d="M171.3,179.4c-0.2,0-0.3,0-0.5,0c-0.7,0-1.2,0.3-1.4,0.9v4.5h-1.1v-6.3h1.1l0,0.7c0.4-0.6,0.9-0.8,1.5-0.8
			c0.2,0,0.4,0,0.5,0.1V179.4z"/>
		<path id="XMLID_43_" d="M175.3,179.4c-0.2,0-0.3,0-0.5,0c-0.7,0-1.2,0.3-1.4,0.9v4.5h-1.1v-6.3h1.1l0,0.7c0.4-0.6,0.9-0.8,1.5-0.8
			c0.2,0,0.4,0,0.5,0.1V179.4z"/>
		<path id="XMLID_45_" d="M176.3,176.7c0-0.2,0.1-0.3,0.2-0.4s0.3-0.2,0.5-0.2s0.4,0.1,0.5,0.2s0.2,0.3,0.2,0.4s-0.1,0.3-0.2,0.4
			s-0.3,0.2-0.5,0.2s-0.4-0.1-0.5-0.2S176.3,176.9,176.3,176.7z M177.5,184.7h-1.1v-6.3h1.1V184.7z"/>
		<path id="XMLID_48_" d="M180.3,178.4l0,0.7c0.5-0.5,1.1-0.8,1.9-0.8c0.9,0,1.5,0.3,1.8,1c0.2-0.3,0.5-0.6,0.8-0.7s0.7-0.3,1.2-0.3
			c1.4,0,2.1,0.7,2.1,2.2v4.2H187v-4.2c0-0.5-0.1-0.8-0.3-1s-0.6-0.3-1-0.3c-0.4,0-0.7,0.1-1,0.4s-0.4,0.6-0.5,1v4.2h-1.1v-4.2
			c0-0.9-0.5-1.4-1.4-1.4c-0.7,0-1.2,0.3-1.5,0.9v4.6h-1.1v-6.3H180.3z"/>
		<path id="XMLID_50_" d="M189.8,176.7c0-0.2,0.1-0.3,0.2-0.4s0.3-0.2,0.5-0.2s0.4,0.1,0.5,0.2s0.2,0.3,0.2,0.4s-0.1,0.3-0.2,0.4
			s-0.3,0.2-0.5,0.2s-0.4-0.1-0.5-0.2S189.8,176.9,189.8,176.7z M190.9,184.7h-1.1v-6.3h1.1V184.7z"/>
		<path id="XMLID_53_" d="M195.3,184.9c-0.9,0-1.6-0.3-2.1-0.8s-0.8-1.3-0.8-2.3v-0.2c0-0.6,0.1-1.2,0.4-1.7s0.6-0.9,1-1.2
			s0.9-0.4,1.4-0.4c0.8,0,1.5,0.3,1.9,0.8s0.7,1.3,0.7,2.3v0.5h-4.3c0,0.6,0.2,1.1,0.5,1.5s0.8,0.6,1.3,0.6c0.4,0,0.7-0.1,1-0.2
			s0.5-0.4,0.7-0.6l0.7,0.5C197.2,184.5,196.4,184.9,195.3,184.9z M195.2,179.2c-0.4,0-0.8,0.2-1.1,0.5s-0.5,0.8-0.6,1.3h3.2v-0.1
			c0-0.6-0.2-1-0.4-1.3S195.6,179.2,195.2,179.2z"/>
		<path id="XMLID_56_" d="M200.1,178.4l0,0.8c0.5-0.6,1.1-0.9,1.9-0.9c1.3,0,2,0.8,2,2.3v4.2h-1.1v-4.2c0-0.5-0.1-0.8-0.3-1
			s-0.5-0.3-1-0.3c-0.4,0-0.7,0.1-0.9,0.3s-0.5,0.4-0.6,0.7v4.5H199v-6.3H200.1z"/>
		<path id="XMLID_58_" d="M207.1,176.9v1.5h1.2v0.8h-1.2v3.9c0,0.3,0.1,0.4,0.2,0.6c0.1,0.1,0.3,0.2,0.5,0.2c0.1,0,0.3,0,0.5-0.1
			v0.9c-0.3,0.1-0.6,0.1-0.8,0.1c-0.5,0-0.8-0.1-1.1-0.4s-0.4-0.7-0.4-1.2v-3.9h-1.2v-0.8h1.2v-1.5H207.1z"/>
		<path id="XMLID_60_" d="M209.2,181.5c0-0.6,0.1-1.2,0.4-1.7s0.6-0.9,1-1.1s0.9-0.4,1.5-0.4c0.9,0,1.6,0.3,2.1,0.9s0.8,1.4,0.8,2.4
			v0.1c0,0.6-0.1,1.2-0.4,1.7s-0.6,0.9-1,1.1s-0.9,0.4-1.5,0.4c-0.9,0-1.6-0.3-2.1-0.9S209.2,182.6,209.2,181.5L209.2,181.5z
			 M210.3,181.6c0,0.7,0.2,1.3,0.5,1.7s0.8,0.6,1.3,0.6c0.6,0,1-0.2,1.3-0.6s0.5-1,0.5-1.8c0-0.7-0.2-1.3-0.5-1.7s-0.8-0.6-1.3-0.6
			c-0.5,0-1,0.2-1.3,0.6S210.3,180.9,210.3,181.6z"/>
	</g>
	<g id="XMLID_7_">
		<path id="XMLID_11_" class="st2" d="M98.9,53.3h-5.2v5.4h-2.2V45.9h8.1v1.8h-5.9v3.8h5.2V53.3z"/>
		<path id="XMLID_13_" class="st2" d="M103.5,58.7h-2.1V45.2h2.1V58.7z"/>
		<path id="XMLID_15_" class="st2" d="M111.6,57.8c-0.6,0.7-1.5,1.1-2.7,1.1c-1,0-1.8-0.3-2.3-0.9s-0.8-1.5-0.8-2.6v-6.2h2.1v6.1
			c0,1.2,0.5,1.8,1.5,1.8c1,0,1.7-0.4,2.1-1.1v-6.8h2.1v9.5h-2L111.6,57.8z"/>
		<path id="XMLID_17_" class="st2" d="M118,49.2v10.4c0,1-0.2,1.7-0.7,2.2c-0.5,0.5-1.2,0.8-2.1,0.8c-0.4,0-0.8,0-1.1-0.1v-1.7
			c0.2,0.1,0.5,0.1,0.8,0.1c0.7,0,1.1-0.4,1.1-1.2V49.2H118z M115.7,46.8c0-0.3,0.1-0.6,0.3-0.8c0.2-0.2,0.5-0.3,0.9-0.3
			s0.7,0.1,0.9,0.3c0.2,0.2,0.3,0.5,0.3,0.8c0,0.3-0.1,0.6-0.3,0.8c-0.2,0.2-0.5,0.3-0.9,0.3s-0.7-0.1-0.9-0.3
			C115.8,47.4,115.7,47.1,115.7,46.8z"/>
		<path id="XMLID_20_" class="st2" d="M119.9,53.9c0-0.9,0.2-1.8,0.6-2.5c0.4-0.7,0.9-1.3,1.6-1.7c0.7-0.4,1.4-0.6,2.3-0.6
			c1.3,0,2.3,0.4,3.1,1.2s1.2,1.9,1.3,3.3l0,0.5c0,0.9-0.2,1.8-0.5,2.5s-0.9,1.3-1.5,1.7s-1.4,0.6-2.3,0.6c-1.3,0-2.4-0.4-3.2-1.3
			s-1.2-2.1-1.2-3.6V53.9z M122,54.1c0,1,0.2,1.7,0.6,2.3c0.4,0.6,1,0.8,1.7,0.8s1.3-0.3,1.7-0.8s0.6-1.4,0.6-2.5
			c0-1-0.2-1.7-0.6-2.3s-1-0.8-1.7-0.8c-0.7,0-1.3,0.3-1.7,0.8C122.2,52.2,122,53,122,54.1z"/>
	</g>
</g>
<path id="XMLID_10_" class="st3" d="M31.1,198.5c0-52.5,77.7-58.7,96.4-96.4s96.4-64.6,96.4-96.4"/>
</svg>
