<svg version="1.1" viewBox="0.0 0.0 720.0 540.0" fill="none" stroke="none" stroke-linecap="square" stroke-miterlimit="10" xmlns:xlink="http://www.w3.org/1999/xlink" xmlns="http://www.w3.org/2000/svg"><clipPath id="p.0"><path d="m0 0l720.0 0l0 540.0l-720.0 0l0 -540.0z" clip-rule="nonzero"/></clipPath><g clip-path="url(#p.0)"><path fill="#000000" fill-opacity="0.0" d="m0 0l720.0 0l0 540.0l-720.0 0z" fill-rule="evenodd"/><path fill="#cfe2f3" d="m77.0 56.666668l253.98425 0l0 45.00787l-253.98425 0z" fill-rule="evenodd"/><path stroke="#000000" stroke-width="1.0" stroke-linejoin="round" stroke-linecap="butt" d="m77.0 56.666668l253.98425 0l0 45.00787l-253.98425 0z" fill-rule="evenodd"/><path fill="#000000" fill-opacity="0.0" d="m125.48819 62.650917l157.00787 0l0 33.039375l-157.00787 0z" fill-rule="evenodd"/><path fill="#000000" d="m152.58835 84.356224q-0.84375 0.984375 -1.9375 1.453125q-1.078125 0.46875 -2.375 0.46875q-0.8125 -0.015625 -1.5 -0.25q-0.6875 -0.25 -1.234375 -0.671875q-0.546875 -0.421875 -0.953125 -1.0q-0.40625 -0.578125 -0.6875 -1.234375q-0.28125 -0.671875 -0.421875 -1.40625q-0.140625 -0.734375 -0.15625 -1.484375l0 -1.53125q0.015625 -0.75 0.140625 -1.46875q0.125 -0.734375 0.375 -1.40625q0.25 -0.6875 0.625 -1.265625q0.390625 -0.578125 0.921875 -1.0q0.53125 -0.421875 1.203125 -0.671875q0.6875 -0.25 1.515625 -0.25q0.9375 0 1.71875 0.296875q0.78125 0.28125 1.359375 0.8125q0.59375 0.53125 0.9375 1.296875q0.359375 0.75 0.4375 1.671875l-1.65625 0q-0.109375 -0.578125 -0.3125 -1.0625q-0.203125 -0.484375 -0.546875 -0.828125q-0.34375 -0.34375 -0.828125 -0.53125q-0.46875 -0.203125 -1.09375 -0.203125q-0.609375 0 -1.078125 0.203125q-0.453125 0.203125 -0.796875 0.546875q-0.34375 0.34375 -0.578125 0.8125q-0.21875 0.453125 -0.375 0.96875q-0.140625 0.5 -0.203125 1.03125q-0.0625 0.53125 -0.0625 1.015625l0 1.5625q0 0.5 0.078125 1.03125q0.078125 0.53125 0.234375 1.046875q0.171875 0.515625 0.421875 0.96875q0.265625 0.453125 0.625 0.796875q0.359375 0.34375 0.828125 0.5625q0.484375 0.203125 1.078125 0.203125q0.34375 0.015625 0.71875 -0.015625q0.390625 -0.046875 0.734375 -0.15625q0.359375 -0.109375 0.671875 -0.296875q0.3125 -0.1875 0.515625 -0.484375l0.015625 -2.984375l-2.6875 0l0 -1.421875l4.296875 0l0.03125 4.875zm9.086197 1.734375q-0.09375 -0.1875 -0.15625 -0.46875q-0.0625 -0.296875 -0.09375 -0.609375q-0.25 0.265625 -0.5625 0.5q-0.3125 0.21875 -0.703125 0.390625q-0.375 0.171875 -0.8125 0.265625q-0.421875 0.109375 -0.890625 0.109375q-0.796875 0 -1.4375 -0.21875q-0.625 -0.234375 -1.0625 -0.625q-0.4375 -0.390625 -0.6875 -0.921875q-0.234375 -0.53125 -0.234375 -1.15625q0 -0.8125 0.3125 -1.421875q0.328125 -0.609375 0.921875 -1.015625q0.59375 -0.40625 1.421875 -0.59375q0.84375 -0.203125 1.875 -0.203125l1.828125 0l0 -0.78125q0 -0.453125 -0.171875 -0.796875q-0.15625 -0.359375 -0.453125 -0.609375q-0.296875 -0.25 -0.734375 -0.390625q-0.421875 -0.140625 -0.96875 -0.140625q-0.5 0 -0.90625 0.140625q-0.390625 0.125 -0.671875 0.34375q-0.265625 0.203125 -0.421875 0.484375q-0.140625 0.28125 -0.140625 0.59375l-1.6875 0q0 -0.53125 0.265625 -1.046875q0.28125 -0.53125 0.78125 -0.9375q0.5 -0.421875 1.21875 -0.671875q0.734375 -0.25 1.65625 -0.25q0.84375 0 1.5625 0.203125q0.71875 0.203125 1.234375 0.625q0.53125 0.40625 0.828125 1.03125q0.296875 0.609375 0.296875 1.4375l0 4.578125q0 0.5 0.09375 1.046875q0.09375 0.546875 0.25 0.96875l0 0.140625l-1.75 0zm-2.984375 -1.28125q0.5 0 0.921875 -0.125q0.4375 -0.140625 0.78125 -0.34375q0.34375 -0.203125 0.59375 -0.46875q0.265625 -0.28125 0.40625 -0.5625l0 -2.0l-1.5625 0q-1.46875 0 -2.296875 0.4375q-0.8125 0.4375 -0.8125 1.375q0 0.359375 0.125 0.671875q0.125 0.3125 0.359375 0.53125q0.25 0.21875 0.625 0.359375q0.375 0.125 0.859375 0.125zm8.476822 -8.578125l0.046875 0.9375q0.296875 -0.53125 0.78125 -0.8125q0.5 -0.296875 1.1875 -0.296875q1.359375 0 1.8125 1.046875q0.296875 -0.46875 0.765625 -0.75q0.484375 -0.296875 1.15625 -0.296875q1.09375 0 1.671875 0.671875q0.578125 0.65625 0.578125 2.0l0 7.359375l-1.59375 0l0 -7.375q0 -1.25 -1.140625 -1.234375q-0.296875 0 -0.515625 0.09375q-0.21875 0.078125 -0.375 0.21875q-0.140625 0.140625 -0.21875 0.328125q-0.078125 0.1875 -0.109375 0.375l0 7.59375l-1.609375 0l0 -7.390625q0 -0.59375 -0.265625 -0.90625q-0.265625 -0.328125 -0.828125 -0.3125q-0.53125 0 -0.828125 0.21875q-0.28125 0.203125 -0.421875 0.546875l0 7.84375l-1.609375 0l0 -9.859375l1.515625 0zm14.773697 10.046875q-1.03125 0 -1.90625 -0.359375q-0.875 -0.359375 -1.5 -0.984375q-0.609375 -0.640625 -0.953125 -1.515625q-0.34375 -0.875 -0.34375 -1.90625l0 -0.390625q0 -1.1875 0.375 -2.125q0.390625 -0.953125 1.015625 -1.59375q0.640625 -0.65625 1.4375 -1.0q0.8125 -0.34375 1.65625 -0.34375q1.0625 0 1.859375 0.375q0.796875 0.359375 1.328125 1.015625q0.53125 0.640625 0.78125 1.53125q0.265625 0.875 0.265625 1.90625l0 0.75l-7.03125 0q0.015625 0.6875 0.25 1.28125q0.234375 0.578125 0.640625 1.03125q0.40625 0.4375 0.96875 0.703125q0.5625 0.25 1.25 0.25q0.90625 0 1.59375 -0.359375q0.703125 -0.375 1.171875 -0.96875l1.03125 0.796875q-0.25 0.375 -0.625 0.71875q-0.359375 0.328125 -0.84375 0.59375q-0.484375 0.265625 -1.09375 0.421875q-0.609375 0.171875 -1.328125 0.171875zm-0.21875 -8.84375q-0.515625 0 -0.96875 0.1875q-0.453125 0.1875 -0.8125 0.546875q-0.359375 0.359375 -0.625 0.890625q-0.25 0.515625 -0.34375 1.203125l5.296875 0l0 -0.125q-0.015625 -0.5 -0.1875 -0.984375q-0.15625 -0.484375 -0.46875 -0.859375q-0.296875 -0.390625 -0.765625 -0.625q-0.46875 -0.234375 -1.125 -0.234375zm8.914322 -4.609375l2.15625 6.640625l2.328125 -6.640625l2.09375 0l0 13.265625l-1.640625 0l0 -5.296875l0.140625 -5.53125l-2.453125 7.140625l-0.96875 0l-2.25 -6.953125l0.140625 5.34375l0 5.296875l-1.640625 0l0 -13.265625l2.09375 0zm15.820572 13.265625q-0.09375 -0.1875 -0.15625 -0.46875q-0.0625 -0.296875 -0.09375 -0.609375q-0.25 0.265625 -0.5625 0.5q-0.3125 0.21875 -0.703125 0.390625q-0.375 0.171875 -0.8125 0.265625q-0.421875 0.109375 -0.890625 0.109375q-0.796875 0 -1.4375 -0.21875q-0.625 -0.234375 -1.0625 -0.625q-0.4375 -0.390625 -0.6875 -0.921875q-0.234375 -0.53125 -0.234375 -1.15625q0 -0.8125 0.3125 -1.421875q0.328125 -0.609375 0.921875 -1.015625q0.59375 -0.40625 1.421875 -0.59375q0.84375 -0.203125 1.875 -0.203125l1.828125 0l0 -0.78125q0 -0.453125 -0.171875 -0.796875q-0.15625 -0.359375 -0.453125 -0.609375q-0.296875 -0.25 -0.734375 -0.390625q-0.421875 -0.140625 -0.96875 -0.140625q-0.5 0 -0.90625 0.140625q-0.390625 0.125 -0.671875 0.34375q-0.265625 0.203125 -0.421875 0.484375q-0.140625 0.28125 -0.140625 0.59375l-1.6875 0q0 -0.53125 0.265625 -1.046875q0.28125 -0.53125 0.78125 -0.9375q0.5 -0.421875 1.21875 -0.671875q0.734375 -0.25 1.65625 -0.25q0.84375 0 1.5625 0.203125q0.71875 0.203125 1.234375 0.625q0.53125 0.40625 0.828125 1.03125q0.296875 0.609375 0.296875 1.4375l0 4.578125q0 0.5 0.09375 1.046875q0.09375 0.546875 0.25 0.96875l0 0.140625l-1.75 0zm-2.984375 -1.28125q0.5 0 0.921875 -0.125q0.4375 -0.140625 0.78125 -0.34375q0.34375 -0.203125 0.59375 -0.46875q0.265625 -0.28125 0.40625 -0.5625l0 -2.0l-1.5625 0q-1.46875 0 -2.296875 0.4375q-0.8125 0.4375 -0.8125 1.375q0 0.359375 0.125 0.671875q0.125 0.3125 0.359375 0.53125q0.25 0.21875 0.625 0.359375q0.375 0.125 0.859375 0.125zm9.211197 -8.578125l0.125 1.453125q0.53125 -0.765625 1.3125 -1.1875q0.78125 -0.4375 1.75 -0.4375q0.78125 0 1.40625 0.21875q0.640625 0.21875 1.078125 0.6875q0.453125 0.453125 0.6875 1.171875q0.25 0.71875 0.25 1.6875l0 6.265625l-1.6875 0l0 -6.21875q0 -0.65625 -0.15625 -1.109375q-0.140625 -0.453125 -0.421875 -0.734375q-0.28125 -0.296875 -0.703125 -0.421875q-0.40625 -0.125 -0.953125 -0.125q-0.84375 0 -1.484375 0.421875q-0.640625 0.421875 -1.03125 1.125l0 7.0625l-1.6875 0l0 -9.859375l1.515625 0zm16.164322 9.859375q-0.09375 -0.1875 -0.15625 -0.46875q-0.0625 -0.296875 -0.09375 -0.609375q-0.25 0.265625 -0.5625 0.5q-0.3125 0.21875 -0.703125 0.390625q-0.375 0.171875 -0.8125 0.265625q-0.421875 0.109375 -0.890625 0.109375q-0.796875 0 -1.4375 -0.21875q-0.625 -0.234375 -1.0625 -0.625q-0.4375 -0.390625 -0.6875 -0.921875q-0.234375 -0.53125 -0.234375 -1.15625q0 -0.8125 0.3125 -1.421875q0.328125 -0.609375 0.921875 -1.015625q0.59375 -0.40625 1.421875 -0.59375q0.84375 -0.203125 1.875 -0.203125l1.828125 0l0 -0.78125q0 -0.453125 -0.171875 -0.796875q-0.15625 -0.359375 -0.453125 -0.609375q-0.296875 -0.25 -0.734375 -0.390625q-0.421875 -0.140625 -0.96875 -0.140625q-0.5 0 -0.90625 0.140625q-0.390625 0.125 -0.671875 0.34375q-0.265625 0.203125 -0.421875 0.484375q-0.140625 0.28125 -0.140625 0.59375l-1.6875 0q0 -0.53125 0.265625 -1.046875q0.28125 -0.53125 0.78125 -0.9375q0.5 -0.421875 1.21875 -0.671875q0.734375 -0.25 1.65625 -0.25q0.84375 0 1.5625 0.203125q0.71875 0.203125 1.234375 0.625q0.53125 0.40625 0.828125 1.03125q0.296875 0.609375 0.296875 1.4375l0 4.578125q0 0.5 0.09375 1.046875q0.09375 0.546875 0.25 0.96875l0 0.140625l-1.75 0zm-2.984375 -1.28125q0.5 0 0.921875 -0.125q0.4375 -0.140625 0.78125 -0.34375q0.34375 -0.203125 0.59375 -0.46875q0.265625 -0.28125 0.40625 -0.5625l0 -2.0l-1.5625 0q-1.46875 0 -2.296875 0.4375q-0.8125 0.4375 -0.8125 1.375q0 0.359375 0.125 0.671875q0.125 0.3125 0.359375 0.53125q0.25 0.21875 0.625 0.359375q0.375 0.125 0.859375 0.125zm7.398697 -3.734375q0 -1.09375 0.265625 -2.015625q0.265625 -0.9375 0.765625 -1.59375q0.515625 -0.671875 1.25 -1.03125q0.734375 -0.375 1.640625 -0.375q0.921875 0 1.609375 0.328125q0.6875 0.3125 1.171875 0.921875l0.078125 -1.078125l1.53125 0l0 9.65625q0 0.96875 -0.3125 1.71875q-0.296875 0.765625 -0.859375 1.28125q-0.546875 0.53125 -1.3125 0.796875q-0.765625 0.28125 -1.6875 0.28125q-0.390625 0 -0.890625 -0.09375q-0.484375 -0.078125 -0.984375 -0.28125q-0.5 -0.1875 -0.96875 -0.515625q-0.46875 -0.328125 -0.8125 -0.8125l0.875 -1.0q0.3125 0.375 0.640625 0.625q0.328125 0.265625 0.65625 0.421875q0.34375 0.15625 0.671875 0.21875q0.34375 0.0625 0.6875 0.0625q0.59375 0 1.078125 -0.171875q0.484375 -0.171875 0.828125 -0.5q0.34375 -0.328125 0.515625 -0.828125q0.1875 -0.484375 0.1875 -1.125l0 -0.84375q-0.484375 0.5625 -1.15625 0.859375q-0.671875 0.296875 -1.5625 0.296875q-0.890625 0 -1.625 -0.375q-0.734375 -0.390625 -1.234375 -1.0625q-0.5 -0.6875 -0.78125 -1.59375q-0.265625 -0.921875 -0.265625 -1.96875l0 -0.203125zm1.671875 0.203125q0 0.71875 0.15625 1.359375q0.15625 0.640625 0.46875 1.140625q0.328125 0.484375 0.828125 0.78125q0.5 0.28125 1.203125 0.28125q0.4375 0 0.78125 -0.09375q0.359375 -0.109375 0.640625 -0.296875q0.28125 -0.203125 0.5 -0.46875q0.21875 -0.265625 0.375 -0.578125l0 -4.515625q-0.15625 -0.3125 -0.375 -0.5625q-0.21875 -0.265625 -0.515625 -0.453125q-0.28125 -0.1875 -0.625 -0.28125q-0.34375 -0.109375 -0.765625 -0.109375q-0.703125 0 -1.21875 0.296875q-0.5 0.28125 -0.828125 0.78125q-0.3125 0.5 -0.46875 1.15625q-0.15625 0.640625 -0.15625 1.359375l0 0.203125zm14.179947 5.0q-1.03125 0 -1.90625 -0.359375q-0.875 -0.359375 -1.5 -0.984375q-0.609375 -0.640625 -0.953125 -1.515625q-0.34375 -0.875 -0.34375 -1.90625l0 -0.390625q0 -1.1875 0.375 -2.125q0.390625 -0.953125 1.015625 -1.59375q0.640625 -0.65625 1.4375 -1.0q0.8125 -0.34375 1.65625 -0.34375q1.0625 0 1.859375 0.375q0.796875 0.359375 1.328125 1.015625q0.53125 0.640625 0.78125 1.53125q0.265625 0.875 0.265625 1.90625l0 0.75l-7.03125 0q0.015625 0.6875 0.25 1.28125q0.234375 0.578125 0.640625 1.03125q0.40625 0.4375 0.96875 0.703125q0.5625 0.25 1.25 0.25q0.90625 0 1.59375 -0.359375q0.703125 -0.375 1.171875 -0.96875l1.03125 0.796875q-0.25 0.375 -0.625 0.71875q-0.359375 0.328125 -0.84375 0.59375q-0.484375 0.265625 -1.09375 0.421875q-0.609375 0.171875 -1.328125 0.171875zm-0.21875 -8.84375q-0.515625 0 -0.96875 0.1875q-0.453125 0.1875 -0.8125 0.546875q-0.359375 0.359375 -0.625 0.890625q-0.25 0.515625 -0.34375 1.203125l5.296875 0l0 -0.125q-0.015625 -0.5 -0.1875 -0.984375q-0.15625 -0.484375 -0.46875 -0.859375q-0.296875 -0.390625 -0.765625 -0.625q-0.46875 -0.234375 -1.125 -0.234375zm13.523697 -1.375q0.234375 0 0.484375 0.015625q0.265625 0 0.484375 0.03125q0.234375 0.03125 0.421875 0.078125q0.203125 0.046875 0.34375 0.109375l-0.234375 1.640625q-0.484375 -0.109375 -0.9375 -0.15625q-0.4375 -0.046875 -0.921875 -0.046875q-1.1875 0 -1.921875 0.546875q-0.734375 0.53125 -1.078125 1.484375l0 6.328125l-1.6875 0l0 -9.859375l1.59375 0l0.09375 1.5625q0.59375 -0.796875 1.4375 -1.265625q0.84375 -0.46875 1.921875 -0.46875z" fill-rule="nonzero"/><path fill="#ffffff" d="m77.0 101.67454l253.98425 0l0 154.01575l-253.98425 0z" fill-rule="evenodd"/><path stroke="#000000" stroke-width="1.0" stroke-linejoin="round" stroke-linecap="butt" d="m77.0 101.67454l253.98425 0l0 154.01575l-253.98425 0z" fill-rule="evenodd"/><path fill="#000000" fill-opacity="0.0" d="m86.00787 115.67454l244.97638 0l0 140.0l-244.97638 0z" fill-rule="evenodd"/><path fill="#000000" d="m99.63287 132.39641l2.640625 0l0 1.1875l-2.640625 0l0 2.9375l-1.203125 0l0 -2.9375l-2.640625 0l0 -1.1875l2.640625 0l0 -2.765625l1.203125 0l0 2.765625zm6.013809 0.765625l-0.34375 0.109375l0.34375 0.109375l3.984375 1.546875l0 1.265625l-5.515625 -2.453125l0 -0.953125l5.515625 -2.46875l0 1.28125l-3.984375 1.5625zm6.685684 -2.734375l3.59375 0l0 6.0l2.296875 0l0 1.046875l-5.890625 0l0 -1.046875l2.390625 0l0 -4.953125l-2.390625 0l0 -1.046875zm2.234375 -1.84375q0 -0.296875 0.171875 -0.5q0.1875 -0.20311737 0.546875 -0.20311737q0.359375 0 0.53125 0.20311737q0.1875 0.203125 0.1875 0.5q0 0.296875 -0.1875 0.5q-0.171875 0.1875 -0.53125 0.1875q-0.359375 0 -0.546875 -0.1875q-0.171875 -0.203125 -0.171875 -0.5zm6.654434 1.84375l0.078125 1.046875q0.390625 -0.546875 0.9375 -0.859375q0.5625 -0.3125 1.25 -0.3125q0.5625 0 1.015625 0.15625q0.453125 0.15625 0.765625 0.484375q0.328125 0.328125 0.5 0.84375q0.171875 0.515625 0.171875 1.21875l0 4.46875l-1.203125 0l0 -4.4375q0 -0.46875 -0.109375 -0.796875q-0.109375 -0.328125 -0.3125 -0.53125q-0.203125 -0.203125 -0.5 -0.296875q-0.296875 -0.09375 -0.6875 -0.09375q-0.59375 0 -1.0625 0.3125q-0.453125 0.296875 -0.71875 0.796875l0 5.046875l-1.21875 0l0 -7.046875l1.09375 0zm9.763809 -1.703125l0 1.703125l2.6875 0l0 0.9375l-2.6875 0l0 3.828125q0 0.40625 0.09375 0.671875q0.109375 0.265625 0.296875 0.4375q0.1875 0.15625 0.421875 0.21875q0.234375 0.0625 0.5 0.0625q0.203125 0 0.40625 -0.015625q0.203125 -0.03125 0.40625 -0.0625q0.203125 -0.03125 0.375 -0.0625q0.171875 -0.046875 0.28125 -0.0625l0.171875 0.84375q-0.15625 0.09375 -0.375 0.171875q-0.203125 0.0625 -0.46875 0.109375q-0.25 0.046875 -0.53125 0.0625q-0.28125 0.03125 -0.5625 0.03125q-0.46875 0 -0.875 -0.125q-0.40625 -0.140625 -0.703125 -0.421875q-0.296875 -0.296875 -0.484375 -0.75q-0.171875 -0.46875 -0.171875 -1.109375l0 -3.828125l-1.84375 0l0 -0.9375l1.84375 0l0 -1.703125l1.21875 0zm5.170059 2.828125l0 -1.234375l5.75 2.453125l0 0.953125l-5.75 2.46875l0 -1.25l4.21875 -1.59375l0.390625 -0.109375l-0.390625 -0.125l-4.21875 -1.5625zm8.170059 -4.0781174l3.59375 0l0 8.953117l2.296875 0l0 1.046875l-5.890625 0l0 -1.046875l2.390625 0l0 -7.90625l-2.390625 0l0 -1.0468674zm10.920059 10.124992q-0.75 0 -1.375 -0.25q-0.609375 -0.25 -1.0625 -0.703125q-0.4375 -0.453125 -0.6875 -1.078125q-0.25 -0.625 -0.25 -1.375l0 -0.265625q0 -0.859375 0.265625 -1.53125q0.28125 -0.671875 0.734375 -1.125q0.453125 -0.46875 1.03125 -0.71875q0.578125 -0.25 1.1875 -0.25q0.75 0 1.3125 0.265625q0.578125 0.265625 0.953125 0.734375q0.375 0.453125 0.5625 1.09375q0.1875 0.625 0.1875 1.359375l0 0.546875l-5.03125 0q0.03125 0.484375 0.1875 0.90625q0.171875 0.421875 0.453125 0.734375q0.296875 0.3125 0.6875 0.5q0.40625 0.171875 0.90625 0.171875q0.640625 0 1.140625 -0.25q0.5 -0.265625 0.828125 -0.6875l0.734375 0.5625q-0.171875 0.265625 -0.4375 0.515625q-0.265625 0.25 -0.609375 0.4375q-0.34375 0.1875 -0.78125 0.296875q-0.4375 0.109375 -0.9375 0.109375zm-0.15625 -6.3125q-0.375 0 -0.703125 0.140625q-0.3125 0.125 -0.578125 0.390625q-0.265625 0.25 -0.453125 0.625q-0.171875 0.375 -0.234375 0.859375l3.78125 0l0 -0.078125q-0.015625 -0.359375 -0.140625 -0.703125q-0.109375 -0.34375 -0.328125 -0.609375q-0.21875 -0.28125 -0.5625 -0.453125q-0.328125 -0.171875 -0.78125 -0.171875zm7.795059 4.453125l0.109375 0.4375l0.125 -0.4375l1.96875 -5.3125l1.234375 0l-2.875 7.046875l-0.921875 0l-2.890625 -7.046875l1.234375 0l2.015625 5.3125zm8.357559 1.859375q-0.75 0 -1.375 -0.25q-0.609375 -0.25 -1.0625 -0.703125q-0.4375 -0.453125 -0.6875 -1.078125q-0.25 -0.625 -0.25 -1.375l0 -0.265625q0 -0.859375 0.265625 -1.53125q0.28125 -0.671875 0.734375 -1.125q0.453125 -0.46875 1.03125 -0.71875q0.578125 -0.25 1.1875 -0.25q0.75 0 1.3125 0.265625q0.578125 0.265625 0.953125 0.734375q0.375 0.453125 0.5625 1.09375q0.1875 0.625 0.1875 1.359375l0 0.546875l-5.03125 0q0.03125 0.484375 0.1875 0.90625q0.171875 0.421875 0.453125 0.734375q0.296875 0.3125 0.6875 0.5q0.40625 0.171875 0.90625 0.171875q0.640625 0 1.140625 -0.25q0.5 -0.265625 0.828125 -0.6875l0.734375 0.5625q-0.171875 0.265625 -0.4375 0.515625q-0.265625 0.25 -0.609375 0.4375q-0.34375 0.1875 -0.78125 0.296875q-0.4375 0.109375 -0.9375 0.109375zm-0.15625 -6.3125q-0.375 0 -0.703125 0.140625q-0.3125 0.125 -0.578125 0.390625q-0.265625 0.25 -0.453125 0.625q-0.171875 0.375 -0.234375 0.859375l3.78125 0l0 -0.078125q-0.015625 -0.359375 -0.140625 -0.703125q-0.109375 -0.34375 -0.328125 -0.609375q-0.21875 -0.28125 -0.5625 -0.453125q-0.328125 -0.171875 -0.78125 -0.171875zm5.232559 -3.8124924l3.59375 0l0 8.953117l2.296875 0l0 1.046875l-5.890625 0l0 -1.046875l2.390625 0l0 -7.90625l-2.390625 0l0 -1.0468674z" fill-rule="nonzero"/><path fill="#000000" d="m99.63287 148.39641l2.640625 0l0 1.1875l-2.640625 0l0 2.9375l-1.203125 0l0 -2.9375l-2.640625 0l0 -1.1875l2.640625 0l0 -2.765625l1.203125 0l0 2.765625zm6.013809 0.765625l-0.34375 0.109375l0.34375 0.109375l3.984375 1.546875l0 1.265625l-5.515625 -2.453125l0 -0.953125l5.515625 -2.46875l0 1.28125l-3.984375 1.5625zm6.685684 -2.734375l3.59375 0l0 6.0l2.296875 0l0 1.046875l-5.890625 0l0 -1.046875l2.390625 0l0 -4.953125l-2.390625 0l0 -1.046875zm2.234375 -1.84375q0 -0.296875 0.171875 -0.5q0.1875 -0.203125 0.546875 -0.203125q0.359375 0 0.53125 0.203125q0.1875 0.203125 0.1875 0.5q0 0.296875 -0.1875 0.5q-0.171875 0.1875 -0.53125 0.1875q-0.359375 0 -0.546875 -0.1875q-0.171875 -0.203125 -0.171875 -0.5zm6.654434 1.84375l0.078125 1.046875q0.390625 -0.546875 0.9375 -0.859375q0.5625 -0.3125 1.25 -0.3125q0.5625 0 1.015625 0.15625q0.453125 0.15625 0.765625 0.484375q0.328125 0.328125 0.5 0.84375q0.171875 0.515625 0.171875 1.21875l0 4.46875l-1.203125 0l0 -4.4375q0 -0.46875 -0.109375 -0.796875q-0.109375 -0.328125 -0.3125 -0.53125q-0.203125 -0.203125 -0.5 -0.296875q-0.296875 -0.09375 -0.6875 -0.09375q-0.59375 0 -1.0625 0.3125q-0.453125 0.296875 -0.71875 0.796875l0 5.046875l-1.21875 0l0 -7.046875l1.09375 0zm9.763809 -1.703125l0 1.703125l2.6875 0l0 0.9375l-2.6875 0l0 3.828125q0 0.40625 0.09375 0.671875q0.109375 0.265625 0.296875 0.4375q0.1875 0.15625 0.421875 0.21875q0.234375 0.0625 0.5 0.0625q0.203125 0 0.40625 -0.015625q0.203125 -0.03125 0.40625 -0.0625q0.203125 -0.03125 0.375 -0.0625q0.171875 -0.046875 0.28125 -0.0625l0.171875 0.84375q-0.15625 0.09375 -0.375 0.171875q-0.203125 0.0625 -0.46875 0.109375q-0.25 0.046875 -0.53125 0.0625q-0.28125 0.03125 -0.5625 0.03125q-0.46875 0 -0.875 -0.125q-0.40625 -0.140625 -0.703125 -0.421875q-0.296875 -0.296875 -0.484375 -0.75q-0.171875 -0.46875 -0.171875 -1.109375l0 -3.828125l-1.84375 0l0 -0.9375l1.84375 0l0 -1.703125l1.21875 0zm5.170059 2.828125l0 -1.234375l5.75 2.453125l0 0.953125l-5.75 2.46875l0 -1.25l4.21875 -1.59375l0.390625 -0.109375l-0.390625 -0.125l-4.21875 -1.5625zm12.654434 4.046875q0 -0.203125 -0.09375 -0.375q-0.078125 -0.171875 -0.28125 -0.3125q-0.203125 -0.15625 -0.53125 -0.265625q-0.328125 -0.125 -0.828125 -0.21875q-0.609375 -0.125 -1.109375 -0.296875q-0.484375 -0.1875 -0.84375 -0.421875q-0.359375 -0.25 -0.5625 -0.578125q-0.1875 -0.328125 -0.1875 -0.765625q0 -0.421875 0.203125 -0.796875q0.203125 -0.375 0.5625 -0.65625q0.375 -0.28125 0.875 -0.4375q0.5 -0.171875 1.109375 -0.171875q0.65625 0 1.171875 0.171875q0.515625 0.171875 0.875 0.46875q0.375 0.296875 0.5625 0.703125q0.203125 0.390625 0.203125 0.859375l-1.203125 0q0 -0.234375 -0.125 -0.453125q-0.109375 -0.21875 -0.3125 -0.375q-0.203125 -0.171875 -0.5 -0.28125q-0.296875 -0.109375 -0.671875 -0.109375q-0.390625 0 -0.6875 0.09375q-0.28125 0.078125 -0.46875 0.21875q-0.1875 0.140625 -0.296875 0.34375q-0.09375 0.1875 -0.09375 0.390625q0 0.203125 0.078125 0.375q0.078125 0.15625 0.265625 0.28125q0.203125 0.125 0.515625 0.234375q0.328125 0.109375 0.828125 0.203125q0.640625 0.140625 1.15625 0.328125q0.515625 0.171875 0.859375 0.421875q0.359375 0.25 0.546875 0.578125q0.1875 0.328125 0.1875 0.765625q0 0.46875 -0.21875 0.859375q-0.203125 0.375 -0.578125 0.65625q-0.375 0.265625 -0.90625 0.421875q-0.53125 0.140625 -1.15625 0.140625q-0.71875 0 -1.28125 -0.1875q-0.546875 -0.1875 -0.9375 -0.5q-0.390625 -0.328125 -0.59375 -0.734375q-0.203125 -0.421875 -0.203125 -0.875l1.203125 0q0.03125 0.375 0.203125 0.640625q0.171875 0.25 0.421875 0.40625q0.265625 0.15625 0.578125 0.21875q0.3125 0.0625 0.609375 0.0625q0.765625 0 1.203125 -0.28125q0.453125 -0.28125 0.453125 -0.75zm6.310684 1.03125q0.328125 0 0.640625 -0.09375q0.3125 -0.109375 0.546875 -0.296875q0.25 -0.1875 0.390625 -0.4375q0.140625 -0.25 0.15625 -0.546875l1.140625 0q-0.015625 0.46875 -0.25 0.90625q-0.234375 0.421875 -0.640625 0.75q-0.390625 0.3125 -0.90625 0.5q-0.515625 0.1875 -1.078125 0.1875q-0.796875 0 -1.390625 -0.28125q-0.59375 -0.28125 -1.0 -0.765625q-0.40625 -0.484375 -0.609375 -1.125q-0.1875 -0.640625 -0.1875 -1.34375l0 -0.265625q0 -0.703125 0.1875 -1.328125q0.203125 -0.640625 0.609375 -1.125q0.40625 -0.484375 1.0 -0.765625q0.59375 -0.296875 1.390625 -0.296875q0.625 0 1.15625 0.203125q0.53125 0.1875 0.90625 0.53125q0.375 0.34375 0.59375 0.8125q0.21875 0.46875 0.21875 1.0l-1.140625 0q-0.015625 -0.3125 -0.15625 -0.59375q-0.125 -0.28125 -0.359375 -0.5q-0.21875 -0.21875 -0.53125 -0.34375q-0.3125 -0.125 -0.6875 -0.125q-0.546875 0 -0.9375 0.234375q-0.375 0.21875 -0.609375 0.578125q-0.234375 0.359375 -0.34375 0.8125q-0.09375 0.453125 -0.09375 0.90625l0 0.265625q0 0.46875 0.09375 0.921875q0.109375 0.453125 0.34375 0.8125q0.234375 0.359375 0.609375 0.59375q0.375 0.21875 0.9375 0.21875zm4.670059 -2.734375q0 -0.765625 0.21875 -1.421875q0.21875 -0.65625 0.625 -1.140625q0.421875 -0.484375 1.015625 -0.75q0.59375 -0.28125 1.328125 -0.28125q0.75 0 1.34375 0.28125q0.59375 0.265625 1.0 0.75q0.421875 0.484375 0.640625 1.140625q0.234375 0.65625 0.234375 1.421875l0 0.140625q0 0.75 -0.234375 1.40625q-0.21875 0.65625 -0.640625 1.140625q-0.40625 0.46875 -1.0 0.75q-0.578125 0.265625 -1.328125 0.265625q-0.75 0 -1.34375 -0.265625q-0.59375 -0.28125 -1.015625 -0.75q-0.40625 -0.484375 -0.625 -1.140625q-0.21875 -0.65625 -0.21875 -1.40625l0 -0.140625zm1.203125 0.140625q0 0.515625 0.125 0.984375q0.125 0.46875 0.375 0.828125q0.25 0.359375 0.625 0.578125q0.375 0.203125 0.875 0.203125q0.5 0 0.875 -0.203125q0.375 -0.21875 0.625 -0.578125q0.25 -0.359375 0.375 -0.828125q0.125 -0.46875 0.125 -0.984375l0 -0.140625q0 -0.515625 -0.140625 -0.984375q-0.125 -0.484375 -0.375 -0.84375q-0.25 -0.359375 -0.625 -0.5625q-0.375 -0.21875 -0.875 -0.21875q-0.5 0 -0.875 0.21875q-0.359375 0.203125 -0.609375 0.5625q-0.25 0.359375 -0.375 0.84375q-0.125 0.46875 -0.125 0.984375l0 0.140625zm11.748184 -3.734375q0.171875 0 0.34375 0.015625q0.1875 0 0.34375 0.03125q0.171875 0.015625 0.3125 0.046875q0.140625 0.03125 0.234375 0.078125l-0.171875 1.171875q-0.34375 -0.078125 -0.65625 -0.109375q-0.3125 -0.03125 -0.65625 -0.03125q-0.859375 0 -1.390625 0.390625q-0.515625 0.375 -0.765625 1.0625l0 4.515625l-1.203125 0l0 -7.046875l1.140625 0l0.0625 1.125q0.4375 -0.578125 1.03125 -0.90625q0.609375 -0.34375 1.375 -0.34375zm6.498184 7.296875q-0.75 0 -1.375 -0.25q-0.609375 -0.25 -1.0625 -0.703125q-0.4375 -0.453125 -0.6875 -1.078125q-0.25 -0.625 -0.25 -1.375l0 -0.265625q0 -0.859375 0.265625 -1.53125q0.28125 -0.671875 0.734375 -1.125q0.453125 -0.46875 1.03125 -0.71875q0.578125 -0.25 1.1875 -0.25q0.75 0 1.3125 0.265625q0.578125 0.265625 0.953125 0.734375q0.375 0.453125 0.5625 1.09375q0.1875 0.625 0.1875 1.359375l0 0.546875l-5.03125 0q0.03125 0.484375 0.1875 0.90625q0.171875 0.421875 0.453125 0.734375q0.296875 0.3125 0.6875 0.5q0.40625 0.171875 0.90625 0.171875q0.640625 0 1.140625 -0.25q0.5 -0.265625 0.828125 -0.6875l0.734375 0.5625q-0.171875 0.265625 -0.4375 0.515625q-0.265625 0.25 -0.609375 0.4375q-0.34375 0.1875 -0.78125 0.296875q-0.4375 0.109375 -0.9375 0.109375zm-0.15625 -6.3125q-0.375 0 -0.703125 0.140625q-0.3125 0.125 -0.578125 0.390625q-0.265625 0.25 -0.453125 0.625q-0.171875 0.375 -0.234375 0.859375l3.78125 0l0 -0.078125q-0.015625 -0.359375 -0.140625 -0.703125q-0.109375 -0.34375 -0.328125 -0.609375q-0.21875 -0.28125 -0.5625 -0.453125q-0.328125 -0.171875 -0.78125 -0.171875z" fill-rule="nonzero"/><path fill="#000000" d="m99.63287 164.39641l2.640625 0l0 1.1875l-2.640625 0l0 2.9375l-1.203125 0l0 -2.9375l-2.640625 0l0 -1.1875l2.640625 0l0 -2.765625l1.203125 0l0 2.765625zm6.013809 0.765625l-0.34375 0.109375l0.34375 0.109375l3.984375 1.546875l0 1.265625l-5.515625 -2.453125l0 -0.953125l5.515625 -2.46875l0 1.28125l-3.984375 1.5625zm6.482559 4.3125l0 -9.46875l2.8125 0q0.578125 0 1.140625 0.15625q0.5625 0.140625 1.0 0.453125q0.4375 0.296875 0.6875 0.78125q0.265625 0.46875 0.265625 1.125q-0.015625 0.375 -0.125 0.6875q-0.109375 0.296875 -0.3125 0.546875q-0.203125 0.234375 -0.46875 0.421875q-0.265625 0.1875 -0.5625 0.3125q0.375 0.109375 0.6875 0.3125q0.328125 0.203125 0.546875 0.5q0.234375 0.28125 0.359375 0.65625q0.125 0.359375 0.125 0.78125q0 0.671875 -0.265625 1.1875q-0.25 0.5 -0.6875 0.84375q-0.4375 0.328125 -1.015625 0.515625q-0.5625 0.1875 -1.15625 0.1875l-3.03125 0zm1.203125 -4.4375l0 3.421875l1.859375 0q0.375 -0.015625 0.703125 -0.125q0.34375 -0.125 0.609375 -0.34375q0.265625 -0.21875 0.40625 -0.53125q0.15625 -0.3125 0.15625 -0.703125q0.015625 -0.40625 -0.125 -0.71875q-0.140625 -0.3125 -0.390625 -0.53125q-0.25 -0.21875 -0.578125 -0.328125q-0.328125 -0.125 -0.71875 -0.140625l-1.921875 0zm0 -1.0l1.6875 0q0.328125 0 0.65625 -0.09375q0.328125 -0.109375 0.578125 -0.296875q0.25 -0.203125 0.40625 -0.484375q0.15625 -0.28125 0.15625 -0.640625q0 -0.40625 -0.15625 -0.671875q-0.140625 -0.28125 -0.40625 -0.453125q-0.25 -0.1875 -0.59375 -0.265625q-0.328125 -0.09375 -0.6875 -0.109375l-1.640625 0l0 3.015625zm6.466934 1.859375q0 -0.765625 0.21875 -1.421875q0.21875 -0.65625 0.625 -1.140625q0.421875 -0.484375 1.015625 -0.75q0.59375 -0.28125 1.328125 -0.28125q0.75 0 1.34375 0.28125q0.59375 0.265625 1.0 0.75q0.421875 0.484375 0.640625 1.140625q0.234375 0.65625 0.234375 1.421875l0 0.140625q0 0.75 -0.234375 1.40625q-0.21875 0.65625 -0.640625 1.140625q-0.40625 0.46875 -1.0 0.75q-0.578125 0.265625 -1.328125 0.265625q-0.75 0 -1.34375 -0.265625q-0.59375 -0.28125 -1.015625 -0.75q-0.40625 -0.484375 -0.625 -1.140625q-0.21875 -0.65625 -0.21875 -1.40625l0 -0.140625zm1.203125 0.140625q0 0.515625 0.125 0.984375q0.125 0.46875 0.375 0.828125q0.25 0.359375 0.625 0.578125q0.375 0.203125 0.875 0.203125q0.5 0 0.875 -0.203125q0.375 -0.21875 0.625 -0.578125q0.25 -0.359375 0.375 -0.828125q0.125 -0.46875 0.125 -0.984375l0 -0.140625q0 -0.515625 -0.140625 -0.984375q-0.125 -0.484375 -0.375 -0.84375q-0.25 -0.359375 -0.625 -0.5625q-0.375 -0.21875 -0.875 -0.21875q-0.5 0 -0.875 0.21875q-0.359375 0.203125 -0.609375 0.5625q-0.25 0.359375 -0.375 0.84375q-0.125 0.46875 -0.125 0.984375l0 0.140625zm11.763809 3.4375q-0.078125 -0.140625 -0.125 -0.34375q-0.03125 -0.203125 -0.0625 -0.421875q-0.171875 0.1875 -0.40625 0.34375q-0.21875 0.15625 -0.5 0.28125q-0.265625 0.125 -0.578125 0.1875q-0.296875 0.078125 -0.640625 0.078125q-0.5625 0 -1.015625 -0.15625q-0.453125 -0.15625 -0.765625 -0.4375q-0.3125 -0.28125 -0.484375 -0.65625q-0.171875 -0.390625 -0.171875 -0.828125q0 -0.578125 0.234375 -1.015625q0.234375 -0.4375 0.65625 -0.71875q0.421875 -0.296875 1.015625 -0.4375q0.59375 -0.140625 1.328125 -0.140625l1.3125 0l0 -0.5625q0 -0.3125 -0.125 -0.5625q-0.109375 -0.265625 -0.328125 -0.4375q-0.203125 -0.171875 -0.515625 -0.265625q-0.3125 -0.109375 -0.703125 -0.109375q-0.34375 0 -0.640625 0.09375q-0.28125 0.09375 -0.484375 0.25q-0.1875 0.140625 -0.296875 0.34375q-0.09375 0.203125 -0.09375 0.421875l-1.21875 0q0.015625 -0.375 0.203125 -0.75q0.1875 -0.375 0.546875 -0.671875q0.359375 -0.296875 0.875 -0.46875q0.53125 -0.1875 1.1875 -0.1875q0.59375 0 1.109375 0.15625q0.515625 0.140625 0.890625 0.4375q0.375 0.296875 0.578125 0.734375q0.21875 0.4375 0.21875 1.03125l0 3.28125q0 0.34375 0.0625 0.75q0.0625 0.390625 0.1875 0.671875l0 0.109375l-1.25 0zm-2.140625 -0.921875q0.359375 0 0.65625 -0.078125q0.3125 -0.09375 0.5625 -0.25q0.25 -0.15625 0.421875 -0.34375q0.1875 -0.1875 0.296875 -0.390625l0 -1.4375l-1.125 0q-1.046875 0 -1.640625 0.3125q-0.578125 0.3125 -0.578125 0.984375q0 0.265625 0.078125 0.484375q0.09375 0.21875 0.265625 0.390625q0.1875 0.15625 0.453125 0.25q0.265625 0.078125 0.609375 0.078125zm10.123184 -6.25q0.171875 0 0.34375 0.015625q0.1875 0 0.34375 0.03125q0.171875 0.015625 0.3125 0.046875q0.140625 0.03125 0.234375 0.078125l-0.171875 1.171875q-0.34375 -0.078125 -0.65625 -0.109375q-0.3125 -0.03125 -0.65625 -0.03125q-0.859375 0 -1.390625 0.390625q-0.515625 0.375 -0.765625 1.0625l0 4.515625l-1.203125 0l0 -7.046875l1.140625 0l0.0625 1.125q0.4375 -0.578125 1.03125 -0.90625q0.609375 -0.34375 1.375 -0.34375zm3.1544342 3.59375q0 -0.78125 0.1875 -1.4375q0.203125 -0.671875 0.5625 -1.140625q0.375 -0.484375 0.890625 -0.75q0.53125 -0.265625 1.171875 -0.265625q0.640625 0 1.109375 0.21875q0.46875 0.203125 0.8125 0.609375l0 -3.65625l1.203125 0l0 10.0l-1.109375 0l-0.046875 -0.734375q-0.34375 0.421875 -0.84375 0.640625q-0.484375 0.21875 -1.140625 0.21875q-0.625 0 -1.15625 -0.265625q-0.515625 -0.28125 -0.875 -0.75q-0.359375 -0.484375 -0.5625 -1.140625q-0.203125 -0.65625 -0.203125 -1.40625l0 -0.140625zm1.203125 0.140625q0 0.515625 0.109375 0.984375q0.109375 0.453125 0.34375 0.8125q0.234375 0.34375 0.578125 0.546875q0.359375 0.203125 0.875 0.203125q0.296875 0 0.546875 -0.0625q0.25 -0.078125 0.453125 -0.203125q0.203125 -0.140625 0.359375 -0.328125q0.15625 -0.1875 0.265625 -0.421875l0 -3.265625q-0.234375 -0.421875 -0.640625 -0.703125q-0.390625 -0.28125 -0.984375 -0.28125q-0.5 0 -0.859375 0.21875q-0.359375 0.203125 -0.59375 0.5625q-0.234375 0.34375 -0.34375 0.8125q-0.109375 0.46875 -0.109375 0.984375l0 0.140625zm13.154434 0.59375q-0.078125 0.65625 -0.34375 1.203125q-0.25 0.546875 -0.65625 0.9375q-0.40625 0.390625 -0.96875 0.609375q-0.546875 0.21875 -1.234375 0.21875q-0.578125 0 -1.0625 -0.15625q-0.46875 -0.171875 -0.84375 -0.453125q-0.375 -0.296875 -0.65625 -0.6875q-0.265625 -0.40625 -0.453125 -0.875q-0.171875 -0.46875 -0.265625 -0.984375q-0.078125 -0.515625 -0.078125 -1.046875l0 -1.3125q0 -0.53125 0.078125 -1.046875q0.09375 -0.515625 0.265625 -0.984375q0.1875 -0.46875 0.453125 -0.859375q0.28125 -0.40625 0.65625 -0.703125q0.375 -0.296875 0.84375 -0.453125q0.46875 -0.171875 1.0625 -0.171875q0.71875 0 1.265625 0.21875q0.5625 0.21875 0.96875 0.625q0.40625 0.390625 0.640625 0.953125q0.25 0.5625 0.328125 1.234375l-1.203125 0q-0.0625 -0.421875 -0.203125 -0.796875q-0.140625 -0.375 -0.390625 -0.640625q-0.234375 -0.28125 -0.578125 -0.4375q-0.34375 -0.171875 -0.828125 -0.171875q-0.421875 0 -0.75 0.140625q-0.328125 0.140625 -0.578125 0.390625q-0.234375 0.234375 -0.390625 0.5625q-0.15625 0.3125 -0.265625 0.671875q-0.09375 0.34375 -0.140625 0.71875q-0.03125 0.375 -0.03125 0.734375l0 1.328125q0 0.359375 0.03125 0.734375q0.046875 0.375 0.140625 0.734375q0.109375 0.359375 0.265625 0.6875q0.15625 0.3125 0.390625 0.5625q0.25 0.234375 0.5625 0.375q0.328125 0.140625 0.765625 0.140625q0.484375 0 0.828125 -0.140625q0.34375 -0.15625 0.578125 -0.421875q0.25 -0.28125 0.390625 -0.640625q0.140625 -0.375 0.203125 -0.796875l1.203125 0zm6.482559 -4.328125q0.171875 0 0.34375 0.015625q0.1875 0 0.34375 0.03125q0.171875 0.015625 0.3125 0.046875q0.140625 0.03125 0.234375 0.078125l-0.171875 1.171875q-0.34375 -0.078125 -0.65625 -0.109375q-0.3125 -0.03125 -0.65625 -0.03125q-0.859375 0 -1.390625 0.390625q-0.515625 0.375 -0.765625 1.0625l0 4.515625l-1.203125 0l0 -7.046875l1.140625 0l0.0625 1.125q0.4375 -0.578125 1.03125 -0.90625q0.609375 -0.34375 1.375 -0.34375zm6.498184 7.296875q-0.75 0 -1.375 -0.25q-0.609375 -0.25 -1.0625 -0.703125q-0.4375 -0.453125 -0.6875 -1.078125q-0.25 -0.625 -0.25 -1.375l0 -0.265625q0 -0.859375 0.265625 -1.53125q0.28125 -0.671875 0.734375 -1.125q0.453125 -0.46875 1.03125 -0.71875q0.578125 -0.25 1.1875 -0.25q0.75 0 1.3125 0.265625q0.578125 0.265625 0.953125 0.734375q0.375 0.453125 0.5625 1.09375q0.1875 0.625 0.1875 1.359375l0 0.546875l-5.03125 0q0.03125 0.484375 0.1875 0.90625q0.171875 0.421875 0.453125 0.734375q0.296875 0.3125 0.6875 0.5q0.40625 0.171875 0.90625 0.171875q0.640625 0 1.140625 -0.25q0.5 -0.265625 0.828125 -0.6875l0.734375 0.5625q-0.171875 0.265625 -0.4375 0.515625q-0.265625 0.25 -0.609375 0.4375q-0.34375 0.1875 -0.78125 0.296875q-0.4375 0.109375 -0.9375 0.109375zm-0.15625 -6.3125q-0.375 0 -0.703125 0.140625q-0.3125 0.125 -0.578125 0.390625q-0.265625 0.25 -0.453125 0.625q-0.171875 0.375 -0.234375 0.859375l3.78125 0l0 -0.078125q-0.015625 -0.359375 -0.140625 -0.703125q-0.109375 -0.34375 -0.328125 -0.609375q-0.21875 -0.28125 -0.5625 -0.453125q-0.328125 -0.171875 -0.78125 -0.171875zm9.670059 6.1875q-0.078125 -0.140625 -0.125 -0.34375q-0.03125 -0.203125 -0.0625 -0.421875q-0.171875 0.1875 -0.40625 0.34375q-0.21875 0.15625 -0.5 0.28125q-0.265625 0.125 -0.578125 0.1875q-0.296875 0.078125 -0.640625 0.078125q-0.5625 0 -1.015625 -0.15625q-0.453125 -0.15625 -0.765625 -0.4375q-0.3125 -0.28125 -0.484375 -0.65625q-0.171875 -0.390625 -0.171875 -0.828125q0 -0.578125 0.234375 -1.015625q0.234375 -0.4375 0.65625 -0.71875q0.421875 -0.296875 1.015625 -0.4375q0.59375 -0.140625 1.328125 -0.140625l1.3125 0l0 -0.5625q0 -0.3125 -0.125 -0.5625q-0.109375 -0.265625 -0.328125 -0.4375q-0.203125 -0.171875 -0.515625 -0.265625q-0.3125 -0.109375 -0.703125 -0.109375q-0.34375 0 -0.640625 0.09375q-0.28125 0.09375 -0.484375 0.25q-0.1875 0.140625 -0.296875 0.34375q-0.09375 0.203125 -0.09375 0.421875l-1.21875 0q0.015625 -0.375 0.203125 -0.75q0.1875 -0.375 0.546875 -0.671875q0.359375 -0.296875 0.875 -0.46875q0.53125 -0.1875 1.1875 -0.1875q0.59375 0 1.109375 0.15625q0.515625 0.140625 0.890625 0.4375q0.375 0.296875 0.578125 0.734375q0.21875 0.4375 0.21875 1.03125l0 3.28125q0 0.34375 0.0625 0.75q0.0625 0.390625 0.1875 0.671875l0 0.109375l-1.25 0zm-2.140625 -0.921875q0.359375 0 0.65625 -0.078125q0.3125 -0.09375 0.5625 -0.25q0.25 -0.15625 0.421875 -0.34375q0.1875 -0.1875 0.296875 -0.390625l0 -1.4375l-1.125 0q-1.046875 0 -1.640625 0.3125q-0.578125 0.3125 -0.578125 0.984375q0 0.265625 0.078125 0.484375q0.09375 0.21875 0.265625 0.390625q0.1875 0.15625 0.453125 0.25q0.265625 0.078125 0.609375 0.078125zm8.357559 -7.828125l0 1.703125l2.6875 0l0 0.9375l-2.6875 0l0 3.828125q0 0.40625 0.09375 0.671875q0.109375 0.265625 0.296875 0.4375q0.1875 0.15625 0.421875 0.21875q0.234375 0.0625 0.5 0.0625q0.203125 0 0.40625 -0.015625q0.203125 -0.03125 0.40625 -0.0625q0.203125 -0.03125 0.375 -0.0625q0.171875 -0.046875 0.28125 -0.0625l0.171875 0.84375q-0.15625 0.09375 -0.375 0.171875q-0.203125 0.0625 -0.46875 0.109375q-0.25 0.046875 -0.53125 0.0625q-0.28125 0.03125 -0.5625 0.03125q-0.46875 0 -0.875 -0.125q-0.40625 -0.140625 -0.703125 -0.421875q-0.296875 -0.296875 -0.484375 -0.75q-0.171875 -0.46875 -0.171875 -1.109375l0 -3.828125l-1.84375 0l0 -0.9375l1.84375 0l0 -1.703125l1.21875 0zm4.810684 5.171875q0 -0.765625 0.21875 -1.421875q0.21875 -0.65625 0.625 -1.140625q0.421875 -0.484375 1.015625 -0.75q0.59375 -0.28125 1.328125 -0.28125q0.75 0 1.34375 0.28125q0.59375 0.265625 1.0 0.75q0.421875 0.484375 0.640625 1.140625q0.234375 0.65625 0.234375 1.421875l0 0.140625q0 0.75 -0.234375 1.40625q-0.21875 0.65625 -0.640625 1.140625q-0.40625 0.46875 -1.0 0.75q-0.578125 0.265625 -1.328125 0.265625q-0.75 0 -1.34375 -0.265625q-0.59375 -0.28125 -1.015625 -0.75q-0.40625 -0.484375 -0.625 -1.140625q-0.21875 -0.65625 -0.21875 -1.40625l0 -0.140625zm1.203125 0.140625q0 0.515625 0.125 0.984375q0.125 0.46875 0.375 0.828125q0.25 0.359375 0.625 0.578125q0.375 0.203125 0.875 0.203125q0.5 0 0.875 -0.203125q0.375 -0.21875 0.625 -0.578125q0.25 -0.359375 0.375 -0.828125q0.125 -0.46875 0.125 -0.984375l0 -0.140625q0 -0.515625 -0.140625 -0.984375q-0.125 -0.484375 -0.375 -0.84375q-0.25 -0.359375 -0.625 -0.5625q-0.375 -0.21875 -0.875 -0.21875q-0.5 0 -0.875 0.21875q-0.359375 0.203125 -0.609375 0.5625q-0.25 0.359375 -0.375 0.84375q-0.125 0.46875 -0.125 0.984375l0 0.140625zm11.748184 -3.734375q0.171875 0 0.34375 0.015625q0.1875 0 0.34375 0.03125q0.171875 0.015625 0.3125 0.046875q0.140625 0.03125 0.234375 0.078125l-0.171875 1.171875q-0.34375 -0.078125 -0.65625 -0.109375q-0.3125 -0.03125 -0.65625 -0.03125q-0.859375 0 -1.390625 0.390625q-0.515625 0.375 -0.765625 1.0625l0 4.515625l-1.203125 0l0 -7.046875l1.140625 0l0.0625 1.125q0.4375 -0.578125 1.03125 -0.90625q0.609375 -0.34375 1.375 -0.34375zm3.4044342 1.25l0 -1.234375l5.75 2.453125l0 0.953125l-5.75 2.46875l0 -1.25l4.21875 -1.59375l0.390625 -0.109375l-0.390625 -0.125l-4.21875 -1.5625zm21.933868 2.484375q0 0.75 -0.1875 1.40625q-0.171875 0.65625 -0.53125 1.140625q-0.34375 0.46875 -0.859375 0.75q-0.515625 0.265625 -1.1875 0.265625q-0.671875 0 -1.171875 -0.234375q-0.5 -0.234375 -0.859375 -0.6875l-0.046875 0.796875l-1.109375 0l0 -10.0l1.203125 0l0 3.71875q0.34375 -0.4375 0.828125 -0.65625q0.484375 -0.234375 1.140625 -0.234375q0.671875 0 1.1875 0.265625q0.53125 0.265625 0.875 0.75q0.359375 0.46875 0.53125 1.140625q0.1875 0.65625 0.1875 1.4375l0 0.140625zm-1.203125 -0.140625q0 -0.515625 -0.109375 -0.984375q-0.09375 -0.46875 -0.3125 -0.8125q-0.21875 -0.359375 -0.578125 -0.5625q-0.359375 -0.21875 -0.875 -0.21875q-0.3125 0 -0.578125 0.09375q-0.25 0.078125 -0.46875 0.234375q-0.203125 0.140625 -0.359375 0.34375q-0.15625 0.1875 -0.265625 0.421875l0 3.078125q0.109375 0.234375 0.265625 0.4375q0.171875 0.1875 0.375 0.34375q0.21875 0.15625 0.46875 0.234375q0.265625 0.078125 0.578125 0.078125q0.484375 0 0.84375 -0.203125q0.359375 -0.203125 0.578125 -0.546875q0.234375 -0.359375 0.328125 -0.8125q0.109375 -0.46875 0.109375 -0.984375l0 -0.140625zm2.9044342 0q0 -0.765625 0.21875 -1.421875q0.21875 -0.65625 0.625 -1.140625q0.421875 -0.484375 1.015625 -0.75q0.59375 -0.28125 1.328125 -0.28125q0.75 0 1.34375 0.28125q0.59375 0.265625 1.0 0.75q0.421875 0.484375 0.640625 1.140625q0.234375 0.65625 0.234375 1.421875l0 0.140625q0 0.75 -0.234375 1.40625q-0.21875 0.65625 -0.640625 1.140625q-0.40625 0.46875 -1.0 0.75q-0.578125 0.265625 -1.328125 0.265625q-0.75 0 -1.34375 -0.265625q-0.59375 -0.28125 -1.015625 -0.75q-0.40625 -0.484375 -0.625 -1.140625q-0.21875 -0.65625 -0.21875 -1.40625l0 -0.140625zm1.203125 0.140625q0 0.515625 0.125 0.984375q0.125 0.46875 0.375 0.828125q0.25 0.359375 0.625 0.578125q0.375 0.203125 0.875 0.203125q0.5 0 0.875 -0.203125q0.375 -0.21875 0.625 -0.578125q0.25 -0.359375 0.375 -0.828125q0.125 -0.46875 0.125 -0.984375l0 -0.140625q0 -0.515625 -0.140625 -0.984375q-0.125 -0.484375 -0.375 -0.84375q-0.25 -0.359375 -0.625 -0.5625q-0.375 -0.21875 -0.875 -0.21875q-0.5 0 -0.875 0.21875q-0.359375 0.203125 -0.609375 0.5625q-0.25 0.359375 -0.375 0.84375q-0.125 0.46875 -0.125 0.984375l0 0.140625zm11.763809 3.4375q-0.078125 -0.140625 -0.125 -0.34375q-0.03125 -0.203125 -0.0625 -0.421875q-0.171875 0.1875 -0.40625 0.34375q-0.21875 0.15625 -0.5 0.28125q-0.265625 0.125 -0.578125 0.1875q-0.296875 0.078125 -0.640625 0.078125q-0.5625 0 -1.015625 -0.15625q-0.453125 -0.15625 -0.765625 -0.4375q-0.3125 -0.28125 -0.484375 -0.65625q-0.171875 -0.390625 -0.171875 -0.828125q0 -0.578125 0.234375 -1.015625q0.234375 -0.4375 0.65625 -0.71875q0.421875 -0.296875 1.015625 -0.4375q0.59375 -0.140625 1.328125 -0.140625l1.3125 0l0 -0.5625q0 -0.3125 -0.125 -0.5625q-0.109375 -0.265625 -0.328125 -0.4375q-0.203125 -0.171875 -0.515625 -0.265625q-0.3125 -0.109375 -0.703125 -0.109375q-0.34375 0 -0.640625 0.09375q-0.28125 0.09375 -0.484375 0.25q-0.1875 0.140625 -0.296875 0.34375q-0.09375 0.203125 -0.09375 0.421875l-1.21875 0q0.015625 -0.375 0.203125 -0.75q0.1875 -0.375 0.546875 -0.671875q0.359375 -0.296875 0.875 -0.46875q0.53125 -0.1875 1.1875 -0.1875q0.59375 0 1.109375 0.15625q0.515625 0.140625 0.890625 0.4375q0.375 0.296875 0.578125 0.734375q0.21875 0.4375 0.21875 1.03125l0 3.28125q0 0.34375 0.0625 0.75q0.0625 0.390625 0.1875 0.671875l0 0.109375l-1.25 0zm-2.140625 -0.921875q0.359375 0 0.65625 -0.078125q0.3125 -0.09375 0.5625 -0.25q0.25 -0.15625 0.421875 -0.34375q0.1875 -0.1875 0.296875 -0.390625l0 -1.4375l-1.125 0q-1.046875 0 -1.640625 0.3125q-0.578125 0.3125 -0.578125 0.984375q0 0.265625 0.078125 0.484375q0.09375 0.21875 0.265625 0.390625q0.1875 0.15625 0.453125 0.25q0.265625 0.078125 0.609375 0.078125zm10.123184 -6.25q0.171875 0 0.34375 0.015625q0.1875 0 0.34375 0.03125q0.171875 0.015625 0.3125 0.046875q0.140625 0.03125 0.234375 0.078125l-0.171875 1.171875q-0.34375 -0.078125 -0.65625 -0.109375q-0.3125 -0.03125 -0.65625 -0.03125q-0.859375 0 -1.390625 0.390625q-0.515625 0.375 -0.765625 1.0625l0 4.515625l-1.203125 0l0 -7.046875l1.140625 0l0.0625 1.125q0.4375 -0.578125 1.03125 -0.90625q0.609375 -0.34375 1.375 -0.34375zm3.1544342 3.59375q0 -0.78125 0.1875 -1.4375q0.203125 -0.671875 0.5625 -1.140625q0.375 -0.484375 0.890625 -0.75q0.53125 -0.265625 1.171875 -0.265625q0.640625 0 1.109375 0.21875q0.46875 0.203125 0.8125 0.609375l0 -3.65625l1.203125 0l0 10.0l-1.109375 0l-0.046875 -0.734375q-0.34375 0.421875 -0.84375 0.640625q-0.484375 0.21875 -1.140625 0.21875q-0.625 0 -1.15625 -0.265625q-0.515625 -0.28125 -0.875 -0.75q-0.359375 -0.484375 -0.5625 -1.140625q-0.203125 -0.65625 -0.203125 -1.40625l0 -0.140625zm1.203125 0.140625q0 0.515625 0.109375 0.984375q0.109375 0.453125 0.34375 0.8125q0.234375 0.34375 0.578125 0.546875q0.359375 0.203125 0.875 0.203125q0.296875 0 0.546875 -0.0625q0.25 -0.078125 0.453125 -0.203125q0.203125 -0.140625 0.359375 -0.328125q0.15625 -0.1875 0.265625 -0.421875l0 -3.265625q-0.234375 -0.421875 -0.640625 -0.703125q-0.390625 -0.28125 -0.984375 -0.28125q-0.5 0 -0.859375 0.21875q-0.359375 0.203125 -0.59375 0.5625q-0.234375 0.34375 -0.34375 0.8125q-0.109375 0.46875 -0.109375 0.984375l0 0.140625zm13.154449 0.59375q-0.078125 0.65625 -0.34375 1.203125q-0.25 0.546875 -0.65625 0.9375q-0.40625 0.390625 -0.96875 0.609375q-0.546875 0.21875 -1.234375 0.21875q-0.578125 0 -1.0625 -0.15625q-0.46875 -0.171875 -0.84375 -0.453125q-0.375 -0.296875 -0.65625 -0.6875q-0.265625 -0.40625 -0.453125 -0.875q-0.171875 -0.46875 -0.265625 -0.984375q-0.078125 -0.515625 -0.078125 -1.046875l0 -1.3125q0 -0.53125 0.078125 -1.046875q0.09375 -0.515625 0.265625 -0.984375q0.1875 -0.46875 0.453125 -0.859375q0.28125 -0.40625 0.65625 -0.703125q0.375 -0.296875 0.84375 -0.453125q0.46875 -0.171875 1.0625 -0.171875q0.71875 0 1.265625 0.21875q0.5625 0.21875 0.96875 0.625q0.40625 0.390625 0.640625 0.953125q0.25 0.5625 0.328125 1.234375l-1.203125 0q-0.0625 -0.421875 -0.203125 -0.796875q-0.140625 -0.375 -0.390625 -0.640625q-0.234375 -0.28125 -0.578125 -0.4375q-0.34375 -0.171875 -0.828125 -0.171875q-0.421875 0 -0.75 0.140625q-0.328125 0.140625 -0.578125 0.390625q-0.234375 0.234375 -0.390625 0.5625q-0.15625 0.3125 -0.265625 0.671875q-0.09375 0.34375 -0.140625 0.71875q-0.03125 0.375 -0.03125 0.734375l0 1.328125q0 0.359375 0.03125 0.734375q0.046875 0.375 0.140625 0.734375q0.109375 0.359375 0.265625 0.6875q0.15625 0.3125 0.390625 0.5625q0.25 0.234375 0.5625 0.375q0.328125 0.140625 0.765625 0.140625q0.484375 0 0.828125 -0.140625q0.34375 -0.15625 0.578125 -0.421875q0.25 -0.28125 0.390625 -0.640625q0.140625 -0.375 0.203125 -0.796875l1.203125 0zm6.482544 -4.328125q0.171875 0 0.34375 0.015625q0.1875 0 0.34375 0.03125q0.171875 0.015625 0.3125 0.046875q0.140625 0.03125 0.234375 0.078125l-0.171875 1.171875q-0.34375 -0.078125 -0.65625 -0.109375q-0.3125 -0.03125 -0.65625 -0.03125q-0.859375 0 -1.390625 0.390625q-0.515625 0.375 -0.765625 1.0625l0 4.515625l-1.203125 0l0 -7.046875l1.140625 0l0.0625 1.125q0.4375 -0.578125 1.03125 -0.90625q0.609375 -0.34375 1.375 -0.34375zm6.4981995 7.296875q-0.75 0 -1.375 -0.25q-0.609375 -0.25 -1.0625 -0.703125q-0.4375 -0.453125 -0.6875 -1.078125q-0.25 -0.625 -0.25 -1.375l0 -0.265625q0 -0.859375 0.265625 -1.53125q0.28125 -0.671875 0.734375 -1.125q0.453125 -0.46875 1.03125 -0.71875q0.578125 -0.25 1.1875 -0.25q0.75 0 1.3125 0.265625q0.578125 0.265625 0.953125 0.734375q0.375 0.453125 0.5625 1.09375q0.1875 0.625 0.1875 1.359375l0 0.546875l-5.03125 0q0.03125 0.484375 0.1875 0.90625q0.171875 0.421875 0.453125 0.734375q0.296875 0.3125 0.6875 0.5q0.40625 0.171875 0.90625 0.171875q0.640625 0 1.140625 -0.25q0.5 -0.265625 0.828125 -0.6875l0.734375 0.5625q-0.171875 0.265625 -0.4375 0.515625q-0.265625 0.25 -0.609375 0.4375q-0.34375 0.1875 -0.78125 0.296875q-0.4375 0.109375 -0.9375 0.109375zm-0.15625 -6.3125q-0.375 0 -0.703125 0.140625q-0.3125 0.125 -0.578125 0.390625q-0.265625 0.25 -0.453125 0.625q-0.171875 0.375 -0.234375 0.859375l3.78125 0l0 -0.078125q-0.015625 -0.359375 -0.140625 -0.703125q-0.109375 -0.34375 -0.328125 -0.609375q-0.21875 -0.28125 -0.5625 -0.453125q-0.328125 -0.171875 -0.78125 -0.171875zm9.670044 6.1875q-0.078125 -0.140625 -0.125 -0.34375q-0.03125 -0.203125 -0.0625 -0.421875q-0.171875 0.1875 -0.40625 0.34375q-0.21875 0.15625 -0.5 0.28125q-0.265625 0.125 -0.578125 0.1875q-0.296875 0.078125 -0.640625 0.078125q-0.5625 0 -1.015625 -0.15625q-0.453125 -0.15625 -0.765625 -0.4375q-0.3125 -0.28125 -0.484375 -0.65625q-0.171875 -0.390625 -0.171875 -0.828125q0 -0.578125 0.234375 -1.015625q0.234375 -0.4375 0.65625 -0.71875q0.421875 -0.296875 1.015625 -0.4375q0.59375 -0.140625 1.328125 -0.140625l1.3125 0l0 -0.5625q0 -0.3125 -0.125 -0.5625q-0.109375 -0.265625 -0.328125 -0.4375q-0.203125 -0.171875 -0.515625 -0.265625q-0.3125 -0.109375 -0.703125 -0.109375q-0.34375 0 -0.640625 0.09375q-0.28125 0.09375 -0.484375 0.25q-0.1875 0.140625 -0.296875 0.34375q-0.09375 0.203125 -0.09375 0.421875l-1.21875 0q0.015625 -0.375 0.203125 -0.75q0.1875 -0.375 0.546875 -0.671875q0.359375 -0.296875 0.875 -0.46875q0.53125 -0.1875 1.1875 -0.1875q0.59375 0 1.109375 0.15625q0.515625 0.140625 0.890625 0.4375q0.375 0.296875 0.578125 0.734375q0.21875 0.4375 0.21875 1.03125l0 3.28125q0 0.34375 0.0625 0.75q0.0625 0.390625 0.1875 0.671875l0 0.109375l-1.25 0zm-2.140625 -0.921875q0.359375 0 0.65625 -0.078125q0.3125 -0.09375 0.5625 -0.25q0.25 -0.15625 0.421875 -0.34375q0.1875 -0.1875 0.296875 -0.390625l0 -1.4375l-1.125 0q-1.046875 0 -1.640625 0.3125q-0.578125 0.3125 -0.578125 0.984375q0 0.265625 0.078125 0.484375q0.09375 0.21875 0.265625 0.390625q0.1875 0.15625 0.453125 0.25q0.265625 0.078125 0.609375 0.078125zm8.357574 -7.828125l0 1.703125l2.6875 0l0 0.9375l-2.6875 0l0 3.828125q0 0.40625 0.09375 0.671875q0.109375 0.265625 0.296875 0.4375q0.1875 0.15625 0.421875 0.21875q0.234375 0.0625 0.5 0.0625q0.203125 0 0.40625 -0.015625q0.203125 -0.03125 0.40625 -0.0625q0.203125 -0.03125 0.375 -0.0625q0.171875 -0.046875 0.28125 -0.0625l0.171875 0.84375q-0.15625 0.09375 -0.375 0.171875q-0.203125 0.0625 -0.46875 0.109375q-0.25 0.046875 -0.53125 0.0625q-0.28125 0.03125 -0.5625 0.03125q-0.46875 0 -0.875 -0.125q-0.40625 -0.140625 -0.703125 -0.421875q-0.296875 -0.296875 -0.484375 -0.75q-0.171875 -0.46875 -0.171875 -1.109375l0 -3.828125l-1.84375 0l0 -0.9375l1.84375 0l0 -1.703125l1.21875 0zm4.810669 5.171875q0 -0.765625 0.21875 -1.421875q0.21875 -0.65625 0.625 -1.140625q0.421875 -0.484375 1.015625 -0.75q0.59375 -0.28125 1.328125 -0.28125q0.75 0 1.34375 0.28125q0.59375 0.265625 1.0 0.75q0.421875 0.484375 0.640625 1.140625q0.234375 0.65625 0.234375 1.421875l0 0.140625q0 0.75 -0.234375 1.40625q-0.21875 0.65625 -0.640625 1.140625q-0.40625 0.46875 -1.0 0.75q-0.578125 0.265625 -1.328125 0.265625q-0.75 0 -1.34375 -0.265625q-0.59375 -0.28125 -1.015625 -0.75q-0.40625 -0.484375 -0.625 -1.140625q-0.21875 -0.65625 -0.21875 -1.40625l0 -0.140625zm1.203125 0.140625q0 0.515625 0.125 0.984375q0.125 0.46875 0.375 0.828125q0.25 0.359375 0.625 0.578125q0.375 0.203125 0.875 0.203125q0.5 0 0.875 -0.203125q0.375 -0.21875 0.625 -0.578125q0.25 -0.359375 0.375 -0.828125q0.125 -0.46875 0.125 -0.984375l0 -0.140625q0 -0.515625 -0.140625 -0.984375q-0.125 -0.484375 -0.375 -0.84375q-0.25 -0.359375 -0.625 -0.5625q-0.375 -0.21875 -0.875 -0.21875q-0.5 0 -0.875 0.21875q-0.359375 0.203125 -0.609375 0.5625q-0.25 0.359375 -0.375 0.84375q-0.125 0.46875 -0.125 0.984375l0 0.140625zm11.748199 -3.734375q0.171875 0 0.34375 0.015625q0.1875 0 0.34375 0.03125q0.171875 0.015625 0.3125 0.046875q0.140625 0.03125 0.234375 0.078125l-0.171875 1.171875q-0.34375 -0.078125 -0.65625 -0.109375q-0.3125 -0.03125 -0.65625 -0.03125q-0.859375 0 -1.390625 0.390625q-0.515625 0.375 -0.765625 1.0625l0 4.515625l-1.203125 0l0 -7.046875l1.140625 0l0.0625 1.125q0.4375 -0.578125 1.03125 -0.90625q0.609375 -0.34375 1.375 -0.34375z" fill-rule="nonzero"/><path fill="#000000" d="m98.24225 200.6933q0 -0.1875 0.046875 -0.359375q0.0625 -0.171875 0.171875 -0.296875q0.125 -0.125 0.296875 -0.203125q0.1875 -0.078125 0.421875 -0.078125q0.234375 0 0.40625 0.078125q0.1875 0.078125 0.296875 0.203125q0.125 0.125 0.1875 0.296875q0.0625 0.171875 0.0625 0.359375q0 0.1875 -0.0625 0.359375q-0.0625 0.15625 -0.1875 0.28125q-0.109375 0.125 -0.296875 0.1875q-0.171875 0.078125 -0.40625 0.078125q-0.234375 0 -0.421875 -0.078125q-0.171875 -0.0625 -0.296875 -0.1875q-0.109375 -0.125 -0.171875 -0.28125q-0.046875 -0.171875 -0.046875 -0.359375zm0 -6.0q0 -0.1875 0.046875 -0.359375q0.0625 -0.171875 0.171875 -0.296875q0.125 -0.125 0.296875 -0.203125q0.1875 -0.078125 0.421875 -0.078125q0.234375 0 0.40625 0.078125q0.1875 0.078125 0.296875 0.203125q0.125 0.125 0.1875 0.296875q0.0625 0.171875 0.0625 0.359375q0 0.1875 -0.0625 0.359375q-0.0625 0.15625 -0.1875 0.28125q-0.109375 0.125 -0.296875 0.203125q-0.171875 0.0625 -0.40625 0.0625q-0.234375 0 -0.421875 -0.0625q-0.171875 -0.078125 -0.296875 -0.203125q-0.109375 -0.125 -0.171875 -0.28125q-0.046875 -0.171875 -0.046875 -0.359375zm7.998184 6.0q0 -0.1875 0.046875 -0.359375q0.0625 -0.171875 0.171875 -0.296875q0.125 -0.125 0.296875 -0.203125q0.1875 -0.078125 0.421875 -0.078125q0.234375 0 0.40625 0.078125q0.1875 0.078125 0.296875 0.203125q0.125 0.125 0.1875 0.296875q0.0625 0.171875 0.0625 0.359375q0 0.1875 -0.0625 0.359375q-0.0625 0.15625 -0.1875 0.28125q-0.109375 0.125 -0.296875 0.1875q-0.171875 0.078125 -0.40625 0.078125q-0.234375 0 -0.421875 -0.078125q-0.171875 -0.0625 -0.296875 -0.1875q-0.109375 -0.125 -0.171875 -0.28125q-0.046875 -0.171875 -0.046875 -0.359375zm0 -6.0q0 -0.1875 0.046875 -0.359375q0.0625 -0.171875 0.171875 -0.296875q0.125 -0.125 0.296875 -0.203125q0.1875 -0.078125 0.421875 -0.078125q0.234375 0 0.40625 0.078125q0.1875 0.078125 0.296875 0.203125q0.125 0.125 0.1875 0.296875q0.0625 0.171875 0.0625 0.359375q0 0.1875 -0.0625 0.359375q-0.0625 0.15625 -0.1875 0.28125q-0.109375 0.125 -0.296875 0.203125q-0.171875 0.0625 -0.40625 0.0625q-0.234375 0 -0.421875 -0.0625q-0.171875 -0.078125 -0.296875 -0.203125q-0.109375 -0.125 -0.171875 -0.28125q-0.046875 -0.171875 -0.046875 -0.359375zm5.888809 -2.6875l5.734375 0l0 1.046875l-2.265625 0l0 7.375l2.265625 0l0 1.046875l-5.734375 0l0 -1.046875l2.21875 0l0 -7.375l-2.21875 0l0 -1.046875zm9.091934 2.421875l0.078125 1.046875q0.390625 -0.546875 0.9375 -0.859375q0.5625 -0.3125 1.25 -0.3125q0.5625 0 1.015625 0.15625q0.453125 0.15625 0.765625 0.484375q0.328125 0.328125 0.5 0.84375q0.171875 0.515625 0.171875 1.21875l0 4.46875l-1.203125 0l0 -4.4375q0 -0.46875 -0.109375 -0.796875q-0.109375 -0.328125 -0.3125 -0.53125q-0.203125 -0.203125 -0.5 -0.296875q-0.296875 -0.09375 -0.6875 -0.09375q-0.59375 0 -1.0625 0.3125q-0.453125 0.296875 -0.71875 0.796875l0 5.046875l-1.21875 0l0 -7.046875l1.09375 0zm7.107559 0l3.59375 0l0 6.0l2.296875 0l0 1.046875l-5.890625 0l0 -1.046875l2.390625 0l0 -4.953125l-2.390625 0l0 -1.046875zm2.234375 -1.84375q0 -0.296875 0.171875 -0.5q0.1875 -0.203125 0.546875 -0.203125q0.359375 0 0.53125 0.203125q0.1875 0.203125 0.1875 0.5q0 0.296875 -0.1875 0.5q-0.171875 0.1875 -0.53125 0.1875q-0.359375 0 -0.546875 -0.1875q-0.171875 -0.203125 -0.171875 -0.5zm8.420059 0.140625l0 1.703125l2.6875 0l0 0.9375l-2.6875 0l0 3.828125q0 0.40625 0.09375 0.671875q0.109375 0.265625 0.296875 0.4375q0.1875 0.15625 0.421875 0.21875q0.234375 0.0625 0.5 0.0625q0.203125 0 0.40625 -0.015625q0.203125 -0.03125 0.40625 -0.0625q0.203125 -0.03125 0.375 -0.0625q0.171875 -0.046875 0.28125 -0.0625l0.171875 0.84375q-0.15625 0.09375 -0.375 0.171875q-0.203125 0.0625 -0.46875 0.109375q-0.25 0.046875 -0.53125 0.0625q-0.28125 0.03125 -0.5625 0.03125q-0.46875 0 -0.875 -0.125q-0.40625 -0.140625 -0.703125 -0.421875q-0.296875 -0.296875 -0.484375 -0.75q-0.171875 -0.46875 -0.171875 -1.109375l0 -3.828125l-1.84375 0l0 -0.9375l1.84375 0l0 -1.703125l1.21875 0zm11.279434 7.5q-0.59375 0.703125 -1.375 1.046875q-0.78125 0.34375 -1.703125 0.328125q-0.578125 0 -1.078125 -0.171875q-0.484375 -0.171875 -0.875 -0.46875q-0.390625 -0.3125 -0.6875 -0.71875q-0.296875 -0.40625 -0.5 -0.890625q-0.1875 -0.484375 -0.296875 -1.0q-0.09375 -0.53125 -0.09375 -1.0625l0 -1.09375q0 -0.53125 0.078125 -1.046875q0.09375 -0.53125 0.28125 -1.015625q0.1875 -0.484375 0.453125 -0.890625q0.28125 -0.421875 0.65625 -0.71875q0.375 -0.296875 0.859375 -0.46875q0.484375 -0.1875 1.078125 -0.1875q0.671875 0 1.21875 0.203125q0.5625 0.203125 0.984375 0.59375q0.421875 0.375 0.671875 0.921875q0.25 0.53125 0.3125 1.1875l-1.1875 0q-0.078125 -0.40625 -0.234375 -0.75q-0.140625 -0.34375 -0.390625 -0.59375q-0.234375 -0.25 -0.578125 -0.390625q-0.34375 -0.140625 -0.78125 -0.140625q-0.4375 0 -0.765625 0.15625q-0.328125 0.140625 -0.578125 0.390625q-0.25 0.234375 -0.421875 0.578125q-0.15625 0.328125 -0.265625 0.6875q-0.09375 0.359375 -0.140625 0.734375q-0.046875 0.375 -0.046875 0.734375l0 1.109375q0.015625 0.359375 0.0625 0.75q0.0625 0.375 0.171875 0.734375q0.125 0.359375 0.296875 0.6875q0.1875 0.328125 0.4375 0.578125q0.265625 0.25 0.59375 0.40625q0.34375 0.140625 0.78125 0.140625q0.234375 0 0.5 -0.015625q0.28125 -0.03125 0.53125 -0.109375q0.265625 -0.078125 0.484375 -0.203125q0.21875 -0.140625 0.359375 -0.359375l0.015625 -2.125l-1.921875 0l0 -1.015625l3.078125 0l0.015625 3.46875zm6.498184 1.25q-0.078125 -0.140625 -0.125 -0.34375q-0.03125 -0.203125 -0.0625 -0.421875q-0.171875 0.1875 -0.40625 0.34375q-0.21875 0.15625 -0.5 0.28125q-0.265625 0.125 -0.578125 0.1875q-0.296875 0.078125 -0.640625 0.078125q-0.5625 0 -1.015625 -0.15625q-0.453125 -0.15625 -0.765625 -0.4375q-0.3125 -0.28125 -0.484375 -0.65625q-0.171875 -0.390625 -0.171875 -0.828125q0 -0.578125 0.234375 -1.015625q0.234375 -0.4375 0.65625 -0.71875q0.421875 -0.296875 1.015625 -0.4375q0.59375 -0.140625 1.328125 -0.140625l1.3125 0l0 -0.5625q0 -0.3125 -0.125 -0.5625q-0.109375 -0.265625 -0.328125 -0.4375q-0.203125 -0.171875 -0.515625 -0.265625q-0.3125 -0.109375 -0.703125 -0.109375q-0.34375 0 -0.640625 0.09375q-0.28125 0.09375 -0.484375 0.25q-0.1875 0.140625 -0.296875 0.34375q-0.09375 0.203125 -0.09375 0.421875l-1.21875 0q0.015625 -0.375 0.203125 -0.75q0.1875 -0.375 0.546875 -0.671875q0.359375 -0.296875 0.875 -0.46875q0.53125 -0.1875 1.1875 -0.1875q0.59375 0 1.109375 0.15625q0.515625 0.140625 0.890625 0.4375q0.375 0.296875 0.578125 0.734375q0.21875 0.4375 0.21875 1.03125l0 3.28125q0 0.34375 0.0625 0.75q0.0625 0.390625 0.1875 0.671875l0 0.109375l-1.25 0zm-2.140625 -0.921875q0.359375 0 0.65625 -0.078125q0.3125 -0.09375 0.5625 -0.25q0.25 -0.15625 0.421875 -0.34375q0.1875 -0.1875 0.296875 -0.390625l0 -1.4375l-1.125 0q-1.046875 0 -1.640625 0.3125q-0.578125 0.3125 -0.578125 0.984375q0 0.265625 0.078125 0.484375q0.09375 0.21875 0.265625 0.390625q0.1875 0.15625 0.453125 0.25q0.265625 0.078125 0.609375 0.078125zm6.060684 -6.125l0.03125 0.671875q0.21875 -0.375 0.5625 -0.578125q0.34375 -0.21875 0.84375 -0.21875q0.96875 0 1.296875 0.75q0.203125 -0.328125 0.546875 -0.53125q0.34375 -0.21875 0.828125 -0.21875q0.78125 0 1.1875 0.484375q0.421875 0.46875 0.421875 1.421875l0 5.265625l-1.140625 0l0 -5.265625q0 -0.890625 -0.8125 -0.890625q-0.21875 0 -0.375 0.0625q-0.15625 0.0625 -0.265625 0.171875q-0.09375 0.09375 -0.15625 0.234375q-0.0625 0.125 -0.078125 0.265625l0 5.421875l-1.15625 0l0 -5.28125q0 -0.421875 -0.1875 -0.640625q-0.1875 -0.234375 -0.59375 -0.234375q-0.375 0 -0.59375 0.15625q-0.203125 0.15625 -0.296875 0.390625l0 5.609375l-1.140625 0l0 -7.046875l1.078125 0zm10.560684 7.171875q-0.75 0 -1.375 -0.25q-0.609375 -0.25 -1.0625 -0.703125q-0.4375 -0.453125 -0.6875 -1.078125q-0.25 -0.625 -0.25 -1.375l0 -0.265625q0 -0.859375 0.265625 -1.53125q0.28125 -0.671875 0.734375 -1.125q0.453125 -0.46875 1.03125 -0.71875q0.578125 -0.25 1.1875 -0.25q0.75 0 1.3125 0.265625q0.578125 0.265625 0.953125 0.734375q0.375 0.453125 0.5625 1.09375q0.1875 0.625 0.1875 1.359375l0 0.546875l-5.03125 0q0.03125 0.484375 0.1875 0.90625q0.171875 0.421875 0.453125 0.734375q0.296875 0.3125 0.6875 0.5q0.40625 0.171875 0.90625 0.171875q0.640625 0 1.140625 -0.25q0.5 -0.265625 0.828125 -0.6875l0.734375 0.5625q-0.171875 0.265625 -0.4375 0.515625q-0.265625 0.25 -0.609375 0.4375q-0.34375 0.1875 -0.78125 0.296875q-0.4375 0.109375 -0.9375 0.109375zm-0.15625 -6.3125q-0.375 0 -0.703125 0.140625q-0.3125 0.125 -0.578125 0.390625q-0.265625 0.25 -0.453125 0.625q-0.171875 0.375 -0.234375 0.859375l3.78125 0l0 -0.078125q-0.015625 -0.359375 -0.140625 -0.703125q-0.109375 -0.34375 -0.328125 -0.609375q-0.21875 -0.28125 -0.5625 -0.453125q-0.328125 -0.171875 -0.78125 -0.171875zm6.232559 2.34375q0 -0.9375 0.140625 -1.75q0.140625 -0.828125 0.390625 -1.515625q0.25 -0.703125 0.5625 -1.28125q0.328125 -0.578125 0.6875 -1.03125q0.359375 -0.453125 0.71875 -0.765625q0.359375 -0.328125 0.671875 -0.5l0.265625 0.78125q-0.40625 0.3125 -0.8125 0.84375q-0.390625 0.53125 -0.71875 1.28125q-0.3125 0.75 -0.515625 1.734375q-0.1875 0.96875 -0.1875 2.1875l0 0.09375q0 1.21875 0.1875 2.203125q0.203125 0.984375 0.515625 1.734375q0.328125 0.75 0.71875 1.28125q0.40625 0.546875 0.8125 0.875l-0.265625 0.734375q-0.3125 -0.1875 -0.6875 -0.5q-0.359375 -0.3125 -0.71875 -0.765625q-0.34375 -0.453125 -0.671875 -1.03125q-0.3125 -0.578125 -0.5625 -1.265625q-0.25 -0.703125 -0.390625 -1.515625q-0.140625 -0.828125 -0.140625 -1.765625l0 -0.0625zm11.201309 0.0625q0 0.9375 -0.15625 1.765625q-0.140625 0.8125 -0.390625 1.515625q-0.25 0.6875 -0.578125 1.265625q-0.3125 0.578125 -0.671875 1.03125q-0.34375 0.453125 -0.71875 0.765625q-0.359375 0.3125 -0.671875 0.5l-0.265625 -0.734375q0.40625 -0.296875 0.796875 -0.84375q0.40625 -0.53125 0.71875 -1.296875q0.328125 -0.765625 0.515625 -1.75q0.203125 -0.984375 0.203125 -2.203125l0 -0.09375q0 -1.21875 -0.21875 -2.203125q-0.203125 -1.0 -0.53125 -1.765625q-0.328125 -0.765625 -0.71875 -1.296875q-0.390625 -0.53125 -0.765625 -0.828125l0.265625 -0.734375q0.3125 0.171875 0.671875 0.5q0.375 0.3125 0.71875 0.765625q0.359375 0.453125 0.671875 1.03125q0.328125 0.578125 0.578125 1.28125q0.25 0.6875 0.390625 1.515625q0.15625 0.8125 0.15625 1.75l0 0.0625z" fill-rule="nonzero"/></g></svg>