<?xml version="1.0" encoding="utf-8"?>
<!-- Generator: Adobe Illustrator 19.0.0, SVG Export Plug-In . SVG Version: 6.00 Build 0)  -->
<svg version="1.1" id="Capa_1" xmlns="http://www.w3.org/2000/svg" xmlns:xlink="http://www.w3.org/1999/xlink" x="0px" y="0px"
	 viewBox="230 -30 960 560" style="enable-background:new 230 -30 960 560;" xml:space="preserve">
<style type="text/css">
	.st0{fill:#F9F5C3;}
	.st1{fill:#FFFFFF;}
	.st2{fill:#92CBEE;}
</style>
<g id="XMLID_323_">
	<image style="overflow:visible;" width="555" height="137" xlink:href="3EF89973.png"  transform="matrix(1 0 0 1 433 397)">
	</image>
	<g>
		<g>
			<g id="XMLID_601_">
				<g id="XMLID_606_">
					<rect id="XMLID_607_" x="448.3" y="412.1" class="st0" width="7.6" height="106.9"/>
				</g>
				<g id="XMLID_604_">
					<rect id="XMLID_605_" x="448.3" y="412.1" class="st0" width="17" height="4.6"/>
				</g>
				<g id="XMLID_602_">
					<rect id="XMLID_603_" x="448.3" y="514.4" class="st0" width="17" height="4.6"/>
				</g>
			</g>
			<g id="XMLID_594_">
				<g id="XMLID_599_">
					<rect id="XMLID_600_" x="964.9" y="412.1" class="st0" width="7.6" height="106.9"/>
				</g>
				<g id="XMLID_597_">
					<rect id="XMLID_598_" x="955.6" y="412.1" class="st0" width="17" height="4.6"/>
				</g>
				<g id="XMLID_595_">
					<rect id="XMLID_596_" x="955.6" y="514.4" class="st0" width="17" height="4.6"/>
				</g>
			</g>
			<g id="XMLID_558_">
				<path id="XMLID_593_" class="st0" d="M497.2,428.3l7.9,24.2h1.7v2.5h-7.6v-2.5h2.2l-1.9-5.7h-9.8l-1.8,5.7h2.2v2.5h-7.6v-2.5
					h1.7l7.9-24.2H497.2z M490.8,443.8h7.9l-3.9-12.1L490.8,443.8z"/>
				<path id="XMLID_592_" class="st0" d="M508.8,427.8h5.9v24.6h2.2v2.5h-8.1v-2.5h2.2v-22.2h-2.2V427.8z"/>
				<path id="XMLID_591_" class="st0" d="M525.8,448l-1.4,1.4c-0.5,0.5-0.8,1.1-0.8,1.7c0,0.9,0.5,1.3,1.6,1.3h8.2
					c1.8,0,3.2,0.4,4.2,1.3s1.5,2.2,1.5,3.8c0,1.1-0.2,2-0.6,2.8c-0.4,0.8-0.9,1.4-1.4,1.8s-1.3,0.7-2.3,0.9c-1,0.2-1.8,0.3-2.6,0.4
					c-0.7,0-1.7,0.1-2.9,0.1c-1.1,0-2.1,0-2.9-0.1c-0.8-0.1-1.6-0.2-2.4-0.4c-0.8-0.2-1.4-0.4-1.9-0.8c-0.5-0.3-0.9-0.8-1.2-1.4
					c-0.3-0.6-0.4-1.3-0.4-2.1c0-1.6,0.7-2.9,2.2-3.9c-1.4-0.5-2.1-1.6-2.1-3.1c0-1.2,0.5-2.3,1.5-3.3l1.5-1.5
					c-1.1-1.1-1.7-3-1.7-5.7c0-0.9,0-1.6,0.1-2.3c0.1-0.6,0.3-1.3,0.6-2c0.3-0.7,0.7-1.3,1.3-1.7c0.5-0.4,1.3-0.8,2.3-1.1
					c1-0.3,2.2-0.4,3.6-0.4c1.7,0,3.2,0.2,4.4,0.7l2.7-2.7l2.1,2.1l-2.3,2.4c0.8,1.1,1.1,2.7,1.1,5c0,1.1-0.1,2.1-0.2,2.8
					c-0.2,0.8-0.5,1.5-1,2.3s-1.3,1.4-2.4,1.8s-2.5,0.6-4.2,0.6C528.3,448.5,526.9,448.3,525.8,448z M531.8,460.7
					c0.5,0,1.1-0.1,1.7-0.2s1-0.3,1.3-0.5s0.5-0.5,0.7-0.9s0.3-0.9,0.3-1.5c0-0.7-0.2-1.3-0.6-1.7c-0.4-0.4-0.8-0.6-1.2-0.7
					s-1-0.1-1.6-0.1h-7.2c-0.9,0.8-1.4,1.8-1.4,3.1c0,1.1,0.5,1.8,1.4,2.2c0.9,0.3,2.4,0.5,4.3,0.5
					C530.5,460.7,531.2,460.7,531.8,460.7z M533.4,444.7c0.5-0.8,0.8-2,0.8-3.7s-0.3-2.9-0.8-3.7c-0.5-0.8-1.7-1.2-3.5-1.2
					c-1.8,0-3,0.4-3.5,1.2c-0.5,0.8-0.8,2-0.8,3.7s0.3,2.9,0.8,3.7c0.5,0.8,1.7,1.2,3.5,1.2C531.7,445.9,532.8,445.5,533.4,444.7z"
					/>
				<path id="XMLID_590_" class="st0" d="M547.3,454.9c-1.2-0.4-2.1-0.9-2.7-1.6c-0.6-0.6-1.1-1.5-1.5-2.5s-0.6-2-0.7-2.9
					s-0.1-2.1-0.1-3.3c0-1.3,0-2.4,0.1-3.3s0.3-1.9,0.7-2.9s0.9-1.9,1.5-2.5s1.5-1.2,2.7-1.6s2.5-0.6,4.2-0.6c1.6,0,3,0.2,4.2,0.6
					s2.1,0.9,2.7,1.6c0.6,0.6,1.1,1.5,1.5,2.5s0.6,2,0.7,2.9s0.1,2.1,0.1,3.3c0,1.3,0,2.4-0.1,3.3s-0.3,1.9-0.7,2.9
					s-0.9,1.9-1.5,2.5s-1.5,1.2-2.7,1.6s-2.5,0.6-4.2,0.6S548.5,455.3,547.3,454.9z M553.7,452.3c0.6-0.2,1.1-0.5,1.5-0.9
					s0.7-0.8,1-1.3c0.2-0.4,0.4-1,0.5-1.7s0.2-1.3,0.2-1.9s0.1-1.3,0.1-2.1c0-0.8,0-1.5-0.1-2.1c0-0.6-0.1-1.2-0.2-1.9
					c-0.1-0.7-0.3-1.2-0.5-1.7c-0.2-0.4-0.6-0.9-1-1.3s-0.9-0.7-1.5-0.9c-0.6-0.2-1.4-0.3-2.2-0.3c-0.9,0-1.6,0.1-2.2,0.3
					c-0.6,0.2-1.1,0.5-1.5,0.9s-0.7,0.8-1,1.3c-0.2,0.4-0.4,1-0.5,1.7s-0.2,1.3-0.2,1.9s-0.1,1.3-0.1,2.1c0,0.8,0,1.5,0.1,2.1
					c0,0.6,0.1,1.2,0.2,1.9s0.3,1.2,0.5,1.7c0.2,0.4,0.6,0.9,1,1.3s0.9,0.7,1.5,0.9c0.6,0.2,1.4,0.3,2.2,0.3
					C552.3,452.6,553,452.5,553.7,452.3z"/>
				<path id="XMLID_589_" class="st0" d="M570.4,437.6c1.7-2.6,4.2-3.9,7.4-4.1v3.3c-3.2,0.1-5.6,1.4-7.1,3.7v12h2.9v2.5h-8.8v-2.5
					h2.2v-15.9h-2.2V434h2.2h2L570.4,437.6z"/>
				<path id="XMLID_588_" class="st0" d="M580.4,434h5.9v18.4h2.2v2.5h-8.1v-2.5h2.2v-15.9h-2.2V434z M583,430.7
					c-0.3-0.3-0.5-0.6-0.6-0.9c-0.1-0.3-0.1-0.7-0.1-1.2s0-1,0.1-1.3c0.1-0.3,0.3-0.6,0.6-0.9c0.3-0.3,0.8-0.4,1.5-0.4
					c0.5,0,0.9,0.1,1.2,0.2s0.5,0.3,0.7,0.6c0.1,0.3,0.2,0.5,0.2,0.8c0,0.2,0.1,0.6,0.1,1s0,0.7-0.1,0.9c0,0.2-0.1,0.5-0.2,0.8
					s-0.3,0.5-0.7,0.6c-0.3,0.1-0.7,0.2-1.2,0.2C583.9,431.1,583.4,431,583,430.7z"/>
				<path id="XMLID_587_" class="st0" d="M591.3,434h3.3v-4.2l3.7-0.5v4.7h3.8v2.5h-3.8v13.2c0,1.1,0.2,1.9,0.5,2.3s0.8,0.7,1.5,0.7
					c0.4,0,1.1-0.1,1.9-0.3l0.4,2.4c-1.3,0.4-2.5,0.7-3.6,0.7c-0.8,0-1.5-0.1-2.1-0.3c-0.6-0.2-1-0.5-1.3-0.8s-0.5-0.8-0.7-1.3
					s-0.3-1-0.3-1.4s-0.1-0.9-0.1-1.6v-13.4h-3.3V434H591.3z"/>
				<path id="XMLID_586_" class="st0" d="M619.2,452.5h2v-12c0-1.3-0.3-2.3-0.8-3s-1.5-1-2.8-1c-2,0-3.8,0.7-5.4,2.1v13.9h2.2v2.5
					h-8.1v-2.5h2.2v-15.9h-2.2V434h2.2h2.2l1,2c2-1.7,4.2-2.5,6.6-2.5c2.9,0,4.8,0.9,5.9,2.8c0.9-0.8,1.9-1.5,3.2-2
					c1.2-0.5,2.5-0.8,3.8-0.8c4.4,0,6.6,2.2,6.6,6.6v12.4h2.2v2.5h-8.1v-2.5h2.2v-12c0-1.3-0.3-2.3-0.8-3s-1.4-1-2.7-1
					c-2,0-3.9,0.8-5.6,2.3c0.1,0.4,0.1,0.9,0.1,1.4v12.4h2.1v2.5h-7.8v-2.6H619.2z"/>
				<path id="XMLID_585_" class="st0" d="M648.7,454.9c-1.2-0.4-2.1-0.9-2.7-1.6c-0.6-0.6-1.1-1.5-1.5-2.5s-0.6-2-0.7-2.9
					s-0.1-2.1-0.1-3.3c0-1.3,0-2.4,0.1-3.3s0.3-1.9,0.7-2.9s0.9-1.9,1.5-2.5s1.5-1.2,2.7-1.6s2.5-0.6,4.2-0.6s3,0.2,4.2,0.6
					s2.1,0.9,2.7,1.6s1.1,1.5,1.5,2.5s0.6,2,0.7,2.9s0.1,2.1,0.1,3.3c0,1.3,0,2.4-0.1,3.3s-0.3,1.9-0.7,2.9s-0.9,1.9-1.5,2.5
					s-1.5,1.2-2.7,1.6s-2.5,0.6-4.2,0.6S649.9,455.3,648.7,454.9z M655.1,452.3c0.6-0.2,1.1-0.5,1.5-0.9c0.4-0.4,0.7-0.8,1-1.3
					c0.2-0.4,0.4-1,0.5-1.7c0.1-0.7,0.2-1.3,0.2-1.9s0.1-1.3,0.1-2.1c0-0.8,0-1.5-0.1-2.1c0-0.6-0.1-1.2-0.2-1.9
					c-0.1-0.7-0.3-1.2-0.5-1.7c-0.2-0.4-0.6-0.9-1-1.3c-0.4-0.4-0.9-0.7-1.5-0.9c-0.6-0.2-1.4-0.3-2.2-0.3c-0.9,0-1.6,0.1-2.2,0.3
					c-0.6,0.2-1.1,0.5-1.5,0.9c-0.4,0.4-0.7,0.8-1,1.3c-0.2,0.4-0.4,1-0.5,1.7c-0.1,0.7-0.2,1.3-0.2,1.9s-0.1,1.3-0.1,2.1
					c0,0.8,0,1.5,0.1,2.1c0,0.6,0.1,1.2,0.2,1.9c0.1,0.7,0.3,1.2,0.5,1.7c0.2,0.4,0.6,0.9,1,1.3c0.4,0.4,0.9,0.7,1.5,0.9
					c0.6,0.2,1.4,0.3,2.2,0.3C653.7,452.6,654.4,452.5,655.1,452.3z"/>
				<path id="XMLID_584_" class="st0" d="M681.7,434v7.5h-2.4c-0.1-2.1-0.6-3.5-1.4-4.1c-0.8-0.7-2.2-1-4.2-1
					c-1.3,0-2.3,0.3-2.9,0.8c-0.6,0.5-0.9,1.3-0.9,2.2c0,0.8,0.3,1.5,0.7,1.9c0.5,0.4,1.3,0.8,2.4,1.1l3.6,1c2,0.5,3.4,1.2,4.3,2.1
					s1.4,2.2,1.4,3.9c0,4.1-2.4,6.1-7.3,6.1c-2.8,0-4.9-0.9-6.3-2.7l0.1,2.2h-2.5v-7.5h2.3c0.3,3.4,2.3,5.1,5.7,5.1
					c2.9,0,4.4-1,4.4-3c0-0.7-0.2-1.3-0.7-1.8s-1.3-0.8-2.4-1.2l-3.6-0.9c-2-0.6-3.5-1.3-4.4-2.1c-0.9-0.8-1.4-2.2-1.4-4.1
					c0-1.8,0.6-3.2,1.8-4.3c1.2-1.1,3-1.6,5.4-1.6c2.6,0,4.5,0.7,5.7,2.2v-1.7h2.6V434z"/>
				<path id="XMLID_583_" class="st0" d="M701.5,435.8c2-1.5,4.1-2.3,6.4-2.3c1.4,0,2.6,0.2,3.6,0.6s1.8,0.9,2.3,1.6
					c0.6,0.6,1,1.5,1.3,2.5s0.5,2,0.6,2.9c0.1,0.9,0.1,2.1,0.1,3.3c0,1.3,0,2.4-0.1,3.3c-0.1,0.9-0.3,1.9-0.6,2.9
					c-0.3,1-0.8,1.9-1.4,2.5c-0.6,0.6-1.4,1.2-2.4,1.6s-2.2,0.6-3.7,0.6c-1.8,0-3.6-0.3-5.4-1v5.9h2.9v2.4h-8.8v-2.4h2.2v-23.9h-2.2
					V434h2.2h2L701.5,435.8z M702.3,438.1v13.6c1.4,0.6,2.9,0.8,4.5,0.8c1,0,1.8-0.1,2.4-0.4c0.7-0.3,1.2-0.6,1.6-1.1
					c0.4-0.4,0.7-1,0.9-1.8c0.2-0.7,0.3-1.5,0.4-2.2s0.1-1.6,0.1-2.7c0-1,0-1.8-0.1-2.4c-0.1-0.7-0.2-1.4-0.4-2.2
					c-0.2-0.8-0.5-1.4-0.8-1.8c-0.4-0.5-0.9-0.8-1.5-1.2c-0.6-0.4-1.4-0.5-2.3-0.5C705.4,436.5,703.8,437,702.3,438.1z"/>
				<path id="XMLID_582_" class="st0" d="M725.6,437.6c1.7-2.6,4.2-3.9,7.4-4.1v3.3c-3.2,0.1-5.6,1.4-7.1,3.7v12h2.9v2.5H720v-2.5
					h2.2v-15.9H720V434h2.2h2L725.6,437.6z"/>
				<path id="XMLID_581_" class="st0" d="M740.3,454.9c-1.2-0.4-2.1-0.9-2.7-1.6c-0.6-0.6-1.1-1.5-1.5-2.5s-0.6-2-0.7-2.9
					s-0.1-2.1-0.1-3.3c0-1.3,0-2.4,0.1-3.3s0.3-1.9,0.7-2.9s0.9-1.9,1.5-2.5s1.5-1.2,2.7-1.6s2.5-0.6,4.2-0.6s3,0.2,4.2,0.6
					s2.1,0.9,2.7,1.6c0.6,0.6,1.1,1.5,1.5,2.5s0.6,2,0.7,2.9c0.1,0.9,0.1,2.1,0.1,3.3c0,1.3,0,2.4-0.1,3.3s-0.3,1.9-0.7,2.9
					s-0.9,1.9-1.5,2.5s-1.5,1.2-2.7,1.6s-2.5,0.6-4.2,0.6S741.5,455.3,740.3,454.9z M746.7,452.3c0.6-0.2,1.1-0.5,1.5-0.9
					s0.7-0.8,1-1.3c0.2-0.4,0.4-1,0.5-1.7s0.2-1.3,0.2-1.9s0.1-1.3,0.1-2.1c0-0.8,0-1.5-0.1-2.1c0-0.6-0.1-1.2-0.2-1.9
					c-0.1-0.7-0.3-1.2-0.5-1.7c-0.2-0.4-0.6-0.9-1-1.3s-0.9-0.7-1.5-0.9c-0.6-0.2-1.4-0.3-2.2-0.3c-0.9,0-1.6,0.1-2.2,0.3
					c-0.6,0.2-1.1,0.5-1.5,0.9s-0.7,0.8-1,1.3c-0.2,0.4-0.4,1-0.5,1.7s-0.2,1.3-0.2,1.9s-0.1,1.3-0.1,2.1c0,0.8,0,1.5,0.1,2.1
					c0,0.6,0.1,1.2,0.2,1.9c0.1,0.7,0.3,1.2,0.5,1.7c0.2,0.4,0.6,0.9,1,1.3s0.9,0.7,1.5,0.9c0.6,0.2,1.4,0.3,2.2,0.3
					C745.3,452.6,746.1,452.5,746.7,452.3z"/>
				<path id="XMLID_580_" class="st0" d="M774.1,434v7.7h-2.4c-0.3-3.5-2.1-5.3-5.4-5.3c-1.1,0-2,0.2-2.7,0.6s-1.2,1.1-1.6,1.9
					c-0.3,0.8-0.5,1.7-0.7,2.5c-0.1,0.8-0.2,1.8-0.2,3c0,1,0,1.9,0.1,2.6c0,0.7,0.2,1.4,0.4,2.2c0.2,0.7,0.5,1.3,0.9,1.8
					c0.4,0.4,0.9,0.8,1.5,1.1c0.7,0.3,1.5,0.4,2.4,0.4c1.9,0,3.1-0.3,3.8-1s1-1.7,1.1-3.2l3,0.1c-0.1,1.2-0.2,2.1-0.5,2.9
					c-0.2,0.8-0.7,1.5-1.2,2.1c-0.6,0.7-1.4,1.1-2.4,1.5c-1.1,0.3-2.4,0.5-4,0.5c-1.5,0-2.9-0.2-3.9-0.6c-1.1-0.4-1.9-0.9-2.5-1.6
					c-0.6-0.6-1.1-1.5-1.4-2.5c-0.3-1-0.6-2-0.6-2.9c-0.1-0.9-0.1-2-0.1-3.3s0-2.4,0.1-3.4s0.3-1.9,0.7-2.9s0.8-1.8,1.4-2.5
					s1.5-1.2,2.5-1.6c1.1-0.4,2.4-0.6,3.8-0.6c2.3,0,4.2,0.8,5.4,2.3V434L774.1,434L774.1,434z"/>
				<path id="XMLID_579_" class="st0" d="M783,454.8c-1.2-0.5-2.1-1.2-2.8-2.2c-0.6-1-1.1-2.1-1.4-3.4c-0.3-1.3-0.4-2.9-0.4-4.7
					c0-1.3,0-2.4,0.1-3.3s0.3-1.9,0.7-2.9s0.9-1.9,1.5-2.5s1.5-1.2,2.6-1.6s2.4-0.6,4-0.6c1.5,0,2.9,0.2,3.9,0.6
					c1.1,0.4,2,0.9,2.6,1.6c0.6,0.6,1.1,1.5,1.4,2.5c0.3,1,0.6,2,0.7,2.9c0.1,0.9,0.1,2.1,0.1,3.3v1h-14c0,2.6,0.4,4.4,1.2,5.5
					c0.7,1.1,2.2,1.6,4.3,1.6c1.9,0,3.2-0.4,3.9-1.1s1.1-1.7,1.2-3.1l3,0.1c-0.1,1-0.3,1.9-0.5,2.7c-0.2,0.7-0.6,1.5-1.2,2.2
					c-0.6,0.7-1.4,1.2-2.5,1.6s-2.4,0.5-4.1,0.5C785.7,455.5,784.1,455.2,783,454.8z M783.3,438c-0.7,1-1.1,2.6-1.2,4.8h10.3
					c-0.1-2.1-0.5-3.7-1.1-4.8c-0.7-1-2-1.6-4-1.6C785.4,436.5,784.1,437,783.3,438z"/>
				<path id="XMLID_578_" class="st0" d="M814.3,453.1c-2,1.6-4,2.4-6.3,2.4c-1.4,0-2.6-0.2-3.6-0.6s-1.8-0.9-2.4-1.6
					c-0.6-0.6-1-1.5-1.3-2.5s-0.5-2-0.6-2.9s-0.1-2.1-0.1-3.3c0-1.3,0-2.4,0.1-3.3s0.3-1.9,0.6-2.9s0.8-1.9,1.4-2.5s1.4-1.2,2.4-1.6
					s2.2-0.6,3.7-0.6c1.7,0,3.5,0.3,5.4,1v-4.2h-2.2V428h5.9v24.6h2.2v2.5h-4.6L814.3,453.1z M813.5,450.9v-13.5
					c-1.5-0.6-3-0.9-4.5-0.9c-0.9,0-1.7,0.1-2.3,0.4s-1.2,0.6-1.6,1c-0.4,0.4-0.7,1-0.9,1.7s-0.4,1.5-0.4,2.2
					c-0.1,0.7-0.1,1.6-0.1,2.7c0,1,0,1.9,0.1,2.6s0.2,1.5,0.4,2.2s0.5,1.3,0.9,1.8s0.9,0.8,1.5,1.1c0.6,0.3,1.4,0.4,2.3,0.4
					C810.5,452.6,812,452,813.5,450.9z"/>
				<path id="XMLID_577_" class="st0" d="M829,434v14.5c0,1.4,0.3,2.4,0.8,3.1c0.6,0.6,1.5,1,2.9,1c2.1,0,4.2-0.8,6.1-2.3v-13.7
					h-2.2V434h5.9v18.4h2.2v2.5h-4.6l-0.8-2.1c-2.4,1.8-5,2.6-7.6,2.6c-2.3,0-3.9-0.5-4.9-1.6s-1.4-2.7-1.4-4.9v-12.4h-2.2V434h2.2
					H829z"/>
				<path id="XMLID_576_" class="st0" d="M854.6,437.6c1.7-2.6,4.2-3.9,7.4-4.1v3.3c-3.2,0.1-5.6,1.4-7.1,3.7v12h2.9v2.5H849v-2.5
					h2.2v-15.9H849V434h2.2h2L854.6,437.6z"/>
				<path id="XMLID_575_" class="st0" d="M877.4,452.9c-2.2,1.7-4.5,2.6-7.1,2.6c-2.2,0-3.8-0.5-4.7-1.5s-1.4-2.4-1.4-4.4
					c0-2.1,0.5-3.7,1.4-4.6c0.9-1,2.6-1.6,5.2-1.8l6-0.4v-3.3c0-1.1-0.4-1.9-1.1-2.4c-0.7-0.5-1.7-0.7-2.9-0.7
					c-1.7,0-2.9,0.3-3.5,0.9s-1,1.6-1.1,3l-3.1-0.1c0.2-2.2,0.8-3.9,1.9-5c1.1-1.1,3.1-1.7,5.9-1.7c5,0,7.5,2,7.5,5.9v13.1h2.2v2.5
					H878L877.4,452.9z M876.8,450.5v-5l-5.3,0.3c-1.4,0.1-2.4,0.4-2.9,0.9s-0.7,1.5-0.7,2.8c0,1.1,0.3,1.9,0.8,2.4s1.4,0.8,2.7,0.8
					C873.4,452.7,875.2,452,876.8,450.5z"/>
				<path id="XMLID_574_" class="st0" d="M886.4,427.8h5.9v24.6h2.2v2.5h-8.1v-2.5h2.2v-22.2h-2.2L886.4,427.8L886.4,427.8z"/>
				<path id="XMLID_573_" class="st0" d="M903.1,454.8c-1.2-0.5-2.1-1.2-2.8-2.2c-0.6-1-1.1-2.1-1.4-3.4c-0.3-1.3-0.4-2.9-0.4-4.7
					c0-1.3,0-2.4,0.1-3.3s0.3-1.9,0.7-2.9s0.9-1.9,1.5-2.5s1.5-1.2,2.6-1.6s2.4-0.6,4-0.6c1.5,0,2.9,0.2,3.9,0.6
					c1.1,0.4,1.9,0.9,2.6,1.6c0.6,0.6,1.1,1.5,1.4,2.5c0.3,1,0.6,2,0.7,2.9c0.1,0.9,0.1,2.1,0.1,3.3v1h-14c0,2.6,0.4,4.4,1.2,5.5
					c0.7,1.1,2.2,1.6,4.3,1.6c1.9,0,3.2-0.4,3.9-1.1s1.1-1.7,1.2-3.1l3,0.1c-0.1,1-0.3,1.9-0.5,2.7c-0.2,0.7-0.6,1.5-1.2,2.2
					c-0.6,0.7-1.4,1.2-2.5,1.6s-2.4,0.5-4.1,0.5C905.8,455.5,904.3,455.2,903.1,454.8z M903.5,438c-0.7,1-1.1,2.6-1.2,4.8h10.3
					c-0.1-2.1-0.5-3.7-1.1-4.8c-0.7-1-2-1.6-4-1.6C905.5,436.5,904.2,437,903.5,438z"/>
				<path id="XMLID_572_" class="st0" d="M935.9,434v7.5h-2.4c-0.1-2.1-0.6-3.5-1.4-4.1c-0.8-0.7-2.2-1-4.2-1
					c-1.3,0-2.3,0.3-2.9,0.8c-0.6,0.5-0.9,1.3-0.9,2.2c0,0.8,0.3,1.5,0.7,1.9c0.5,0.4,1.3,0.8,2.4,1.1l3.6,1c2,0.5,3.4,1.2,4.3,2.1
					c0.9,0.9,1.4,2.2,1.4,3.9c0,4.1-2.5,6.1-7.4,6.1c-2.8,0-4.9-0.9-6.3-2.7l0.1,2.2h-2.5v-7.5h2.3c0.3,3.4,2.3,5.1,5.7,5.1
					c2.9,0,4.4-1,4.4-3c0-0.7-0.2-1.3-0.7-1.8s-1.3-0.8-2.4-1.2l-3.6-0.9c-2-0.6-3.5-1.3-4.4-2.1s-1.4-2.2-1.4-4.1
					c0-1.8,0.6-3.2,1.8-4.3c1.2-1.1,3-1.6,5.4-1.6c2.6,0,4.5,0.7,5.7,2.2v-1.7h2.7V434z"/>
				<path id="XMLID_571_" class="st0" d="M577,498.7c-1.2-0.5-2.1-1.2-2.8-2.2c-0.6-1-1.1-2.1-1.4-3.4c-0.3-1.3-0.4-2.9-0.4-4.7
					c0-1.3,0-2.4,0.1-3.3c0.1-0.9,0.3-1.9,0.7-2.9c0.4-1,0.9-1.9,1.5-2.5c0.6-0.6,1.5-1.2,2.6-1.6s2.4-0.6,4-0.6
					c1.5,0,2.9,0.2,3.9,0.6c1.1,0.4,2,0.9,2.6,1.6c0.6,0.6,1.1,1.5,1.4,2.5c0.3,1,0.6,2,0.7,2.9c0.1,0.9,0.1,2.1,0.1,3.3v1h-14
					c0,2.6,0.4,4.4,1.2,5.5c0.7,1.1,2.2,1.6,4.3,1.6c1.9,0,3.2-0.4,3.9-1.1c0.7-0.7,1.1-1.7,1.2-3.1l3,0.1c-0.1,1-0.3,1.9-0.5,2.7
					c-0.2,0.7-0.6,1.5-1.2,2.2c-0.6,0.7-1.4,1.2-2.5,1.6c-1.1,0.4-2.4,0.5-4.1,0.5C579.7,499.4,578.2,499.1,577,498.7z M577.4,481.9
					c-0.7,1-1.1,2.6-1.2,4.8h10.3c-0.1-2.1-0.5-3.7-1.1-4.8c-0.7-1-2-1.6-4-1.6C579.4,480.3,578.1,480.9,577.4,481.9z"/>
				<path id="XMLID_570_" class="st0" d="M594.3,477.9h4.2l1.1,2.1c2.4-1.7,4.9-2.6,7.5-2.6c4.2,0,6.3,2.2,6.3,6.6v12.3h2.2v2.5h-8
					v-2.5h2v-12.1c0-1.4-0.3-2.4-0.8-3s-1.4-0.9-2.7-0.9c-2.1,0-4.1,0.8-6.1,2.3v13.7h2v2.5h-7.9v-2.5h2.2v-15.9h-2.2v-2.5H594.3z"
					/>
				<path id="XMLID_569_" class="st0" d="M634.4,480.4h-1.9l5.2,14.4l5.1-14.4H641v-2.5h7.1v2.5h-1.5l-6.8,18.4h-4.1l-6.8-18.4h-1.5
					v-2.5h7.1L634.4,480.4L634.4,480.4z"/>
				<path id="XMLID_568_" class="st0" d="M650.5,477.9h5.9v18.4h2.2v2.5h-8.1v-2.5h2.2v-15.9h-2.2V477.9z M653.1,474.6
					c-0.3-0.3-0.5-0.6-0.6-0.9s-0.1-0.7-0.1-1.2s0-1,0.1-1.3s0.3-0.6,0.6-0.9c0.3-0.3,0.8-0.4,1.5-0.4c0.5,0,0.9,0.1,1.2,0.2
					c0.3,0.1,0.5,0.3,0.7,0.6c0.1,0.3,0.2,0.5,0.2,0.8c0,0.2,0.1,0.6,0.1,1s0,0.7-0.1,0.9c0,0.2-0.1,0.5-0.2,0.8
					c-0.1,0.3-0.3,0.5-0.7,0.6c-0.3,0.1-0.7,0.2-1.2,0.2C653.9,475,653.4,474.9,653.1,474.6z"/>
				<path id="XMLID_567_" class="st0" d="M676.8,497c-2,1.6-4,2.4-6.3,2.4c-1.4,0-2.6-0.2-3.6-0.6c-1-0.4-1.8-0.9-2.4-1.6
					c-0.6-0.6-1-1.5-1.3-2.5s-0.5-2-0.6-2.9c-0.1-0.9-0.1-2.1-0.1-3.3s0-2.4,0.1-3.3c0.1-0.9,0.3-1.9,0.6-2.9s0.8-1.9,1.4-2.5
					c0.6-0.6,1.4-1.2,2.4-1.6s2.2-0.6,3.7-0.6c1.7,0,3.5,0.3,5.4,1v-4.2h-2.2v-2.5h5.9v24.6h2.2v2.5h-4.6L676.8,497z M676,494.8
					v-13.5c-1.5-0.6-3-0.9-4.5-0.9c-0.9,0-1.7,0.1-2.3,0.4c-0.6,0.3-1.2,0.6-1.6,1c-0.4,0.4-0.7,1-0.9,1.7s-0.4,1.5-0.4,2.2
					c-0.1,0.7-0.1,1.6-0.1,2.7c0,1,0,1.9,0.1,2.6c0.1,0.7,0.2,1.5,0.4,2.2s0.5,1.3,0.9,1.8c0.4,0.5,0.9,0.8,1.5,1.1
					c0.6,0.3,1.4,0.4,2.3,0.4C673,496.4,674.5,495.9,676,494.8z"/>
				<path id="XMLID_566_" class="st0" d="M690.4,498.7c-1.2-0.5-2.1-1.2-2.8-2.2c-0.6-1-1.1-2.1-1.4-3.4s-0.4-2.9-0.4-4.7
					c0-1.3,0-2.4,0.1-3.3c0.1-0.9,0.3-1.9,0.7-2.9c0.4-1,0.9-1.9,1.5-2.5s1.5-1.2,2.6-1.6c1.1-0.4,2.4-0.6,4-0.6
					c1.5,0,2.9,0.2,3.9,0.6c1.1,0.4,1.9,0.9,2.6,1.6c0.6,0.6,1.1,1.5,1.4,2.5s0.6,2,0.7,2.9s0.1,2.1,0.1,3.3v1h-14
					c0,2.6,0.4,4.4,1.2,5.5c0.7,1.1,2.2,1.6,4.3,1.6c1.9,0,3.2-0.4,3.9-1.1c0.7-0.7,1.1-1.7,1.2-3.1l3,0.1c-0.1,1-0.3,1.9-0.5,2.7
					c-0.2,0.7-0.6,1.5-1.2,2.2s-1.4,1.2-2.5,1.6s-2.4,0.5-4.1,0.5C693.1,499.4,691.6,499.1,690.4,498.7z M690.7,481.9
					c-0.7,1-1.1,2.6-1.2,4.8h10.3c-0.1-2.1-0.5-3.7-1.1-4.8c-0.7-1-2-1.6-4-1.6C692.8,480.3,691.5,480.9,690.7,481.9z"/>
				<path id="XMLID_565_" class="st0" d="M712.4,498.7c-1.2-0.4-2.1-0.9-2.7-1.6c-0.6-0.6-1.1-1.5-1.5-2.5c-0.4-1-0.6-2-0.7-2.9
					c-0.1-0.9-0.1-2.1-0.1-3.3s0-2.4,0.1-3.3c0.1-0.9,0.3-1.9,0.7-2.9s0.9-1.9,1.5-2.5c0.6-0.6,1.5-1.2,2.7-1.6
					c1.2-0.4,2.5-0.6,4.2-0.6c1.6,0,3,0.2,4.2,0.6c1.2,0.4,2.1,0.9,2.7,1.6c0.6,0.6,1.1,1.5,1.5,2.5c0.4,1,0.6,2,0.7,2.9
					c0.1,0.9,0.1,2.1,0.1,3.3s0,2.4-0.1,3.3c-0.1,0.9-0.3,1.9-0.7,2.9c-0.4,1-0.9,1.9-1.5,2.5c-0.6,0.6-1.5,1.2-2.7,1.6
					c-1.2,0.4-2.5,0.6-4.2,0.6C714.9,499.4,713.5,499.2,712.4,498.7z M718.7,496.2c0.6-0.2,1.1-0.5,1.5-0.9s0.7-0.8,1-1.3
					c0.2-0.4,0.4-1,0.5-1.7s0.2-1.3,0.2-1.9c0-0.6,0.1-1.3,0.1-2.1s0-1.5-0.1-2.1c0-0.6-0.1-1.2-0.2-1.9s-0.3-1.2-0.5-1.7
					c-0.2-0.4-0.6-0.9-1-1.3s-0.9-0.7-1.5-0.9c-0.6-0.2-1.4-0.3-2.2-0.3c-0.9,0-1.6,0.1-2.2,0.3c-0.6,0.2-1.1,0.5-1.5,0.9
					s-0.7,0.8-1,1.3c-0.2,0.4-0.4,1-0.5,1.7s-0.2,1.3-0.2,1.9c0,0.6-0.1,1.3-0.1,2.1s0,1.5,0.1,2.1c0,0.6,0.1,1.2,0.2,1.9
					s0.3,1.2,0.5,1.7c0.2,0.4,0.6,0.9,1,1.3c0.4,0.4,0.9,0.7,1.5,0.9s1.4,0.3,2.2,0.3C717.4,496.4,718.1,496.3,718.7,496.2z"/>
				<path id="XMLID_564_" class="st0" d="M729.5,477.9h5.9V501c0,1.9-0.4,3.4-1.1,4.3c-0.7,0.9-2.1,1.4-4.2,1.4h-3.3V504l2.4-0.2
					c1-0.1,1.7-0.4,2-0.8c0.3-0.5,0.5-1.3,0.5-2.4v-20.2h-2.2V477.9L729.5,477.9z M732.3,474.6c-0.3-0.3-0.5-0.6-0.6-0.9
					c-0.1-0.3-0.1-0.7-0.1-1.2s0-1,0.1-1.3c0.1-0.3,0.3-0.6,0.6-0.9s0.8-0.4,1.5-0.4c0.5,0,0.9,0.1,1.2,0.2c0.3,0.1,0.5,0.3,0.7,0.6
					c0.1,0.3,0.2,0.5,0.2,0.8c0,0.2,0.1,0.6,0.1,1s0,0.7-0.1,0.9c0,0.2-0.1,0.5-0.2,0.8s-0.3,0.5-0.7,0.6c-0.3,0.1-0.7,0.2-1.2,0.2
					C733.2,475,732.7,474.9,732.3,474.6z"/>
				<path id="XMLID_563_" class="st0" d="M747.2,477.9v14.5c0,1.4,0.3,2.4,0.8,3.1c0.6,0.6,1.5,1,2.9,1c2.1,0,4.2-0.8,6.1-2.3v-13.7
					h-2.2V478h5.9v18.4h2.2v2.5h-4.6l-0.8-2.1c-2.4,1.8-5,2.6-7.6,2.6c-2.3,0-3.9-0.5-4.9-1.6s-1.4-2.7-1.4-4.9v-12.4h-2.2V478h2.2
					h3.6V477.9z"/>
				<path id="XMLID_562_" class="st0" d="M771.5,498.7c-1.2-0.5-2.1-1.2-2.8-2.2c-0.6-1-1.1-2.1-1.4-3.4s-0.4-2.9-0.4-4.7
					c0-1.3,0-2.4,0.1-3.3s0.3-1.9,0.7-2.9s0.9-1.9,1.5-2.5s1.5-1.2,2.6-1.6s2.4-0.6,4-0.6c1.5,0,2.9,0.2,3.9,0.6
					c1.1,0.4,2,0.9,2.6,1.6c0.6,0.6,1.1,1.5,1.4,2.5c0.3,1,0.6,2,0.7,2.9s0.1,2.1,0.1,3.3v1h-14c0,2.6,0.4,4.4,1.2,5.5
					c0.7,1.1,2.2,1.6,4.3,1.6c1.9,0,3.2-0.4,3.9-1.1c0.7-0.7,1.1-1.7,1.2-3.1l3,0.1c-0.1,1-0.3,1.9-0.5,2.7
					c-0.2,0.7-0.6,1.5-1.2,2.2c-0.6,0.7-1.4,1.2-2.5,1.6c-1.1,0.4-2.4,0.5-4.1,0.5C774.2,499.4,772.7,499.1,771.5,498.7z
					 M771.9,481.9c-0.7,1-1.1,2.6-1.2,4.8H781c-0.1-2.1-0.5-3.7-1.1-4.8c-0.7-1-2-1.6-4-1.6C773.9,480.3,772.6,480.9,771.9,481.9z"
					/>
				<path id="XMLID_561_" class="st0" d="M793.5,491.9l-1.4,1.4c-0.5,0.5-0.8,1.1-0.8,1.7c0,0.9,0.5,1.3,1.6,1.3h8.2
					c1.8,0,3.2,0.4,4.2,1.3c1,0.9,1.5,2.2,1.5,3.8c0,1.1-0.2,2-0.6,2.8c-0.4,0.8-0.9,1.4-1.4,1.8c-0.5,0.4-1.3,0.7-2.3,0.9
					s-1.8,0.3-2.6,0.4c-0.7,0-1.7,0.1-2.9,0.1c-1.1,0-2.1,0-2.9-0.1c-0.8-0.1-1.6-0.2-2.4-0.4c-0.8-0.2-1.4-0.4-1.9-0.8
					c-0.5-0.3-0.9-0.8-1.2-1.4c-0.3-0.6-0.4-1.3-0.4-2.1c0-1.6,0.7-2.9,2.2-3.9c-1.4-0.5-2.1-1.6-2.1-3.1c0-1.2,0.5-2.3,1.5-3.3
					l1.5-1.5c-1.1-1.1-1.7-3-1.7-5.7c0-0.9,0-1.6,0.1-2.3c0.1-0.6,0.3-1.3,0.6-2s0.7-1.3,1.3-1.7c0.5-0.4,1.3-0.8,2.3-1.1
					c1-0.3,2.2-0.4,3.6-0.4c1.7,0,3.2,0.2,4.4,0.7l2.7-2.7l2.1,2.1l-2.3,2.4c0.8,1.1,1.1,2.7,1.1,5c0,1.1-0.1,2.1-0.2,2.8
					c-0.2,0.8-0.5,1.5-1,2.3s-1.3,1.4-2.4,1.8c-1.1,0.4-2.5,0.6-4.2,0.6C795.9,492.4,794.6,492.2,793.5,491.9z M799.4,504.6
					c0.5,0,1.1-0.1,1.7-0.2c0.6-0.1,1-0.3,1.3-0.5s0.5-0.5,0.7-0.9s0.3-0.9,0.3-1.5c0-0.7-0.2-1.3-0.6-1.7c-0.4-0.4-0.8-0.6-1.2-0.7
					c-0.4-0.1-1-0.1-1.6-0.1h-7.2c-0.9,0.8-1.4,1.8-1.4,3.1c0,1.1,0.5,1.8,1.4,2.2c0.9,0.3,2.4,0.5,4.3,0.5
					C798.1,504.6,798.8,504.6,799.4,504.6z M801,488.6c0.5-0.8,0.8-2,0.8-3.7s-0.3-2.9-0.8-3.7c-0.5-0.8-1.7-1.2-3.5-1.2
					s-3,0.4-3.5,1.2c-0.5,0.8-0.8,2-0.8,3.7s0.3,2.9,0.8,3.7s1.7,1.2,3.5,1.2S800.5,489.4,801,488.6z"/>
				<path id="XMLID_560_" class="st0" d="M814.9,498.7c-1.2-0.4-2.1-0.9-2.7-1.6c-0.6-0.6-1.1-1.5-1.5-2.5s-0.6-2-0.7-2.9
					c-0.1-0.9-0.1-2.1-0.1-3.3s0-2.4,0.1-3.3c0.1-0.9,0.3-1.9,0.7-2.9s0.9-1.9,1.5-2.5s1.5-1.2,2.7-1.6s2.5-0.6,4.1-0.6
					s3,0.2,4.2,0.6s2.1,0.9,2.7,1.6c0.6,0.6,1.1,1.5,1.5,2.5s0.6,2,0.7,2.9s0.1,2.1,0.1,3.3s0,2.4-0.1,3.3c-0.1,0.9-0.3,1.9-0.7,2.9
					s-0.9,1.9-1.5,2.5s-1.5,1.2-2.7,1.6c-1.2,0.4-2.5,0.6-4.2,0.6C817.5,499.4,816.1,499.2,814.9,498.7z M821.3,496.2
					c0.6-0.2,1.1-0.5,1.5-0.9s0.7-0.8,1-1.3c0.2-0.4,0.4-1,0.5-1.7s0.2-1.3,0.2-1.9c0-0.6,0.1-1.3,0.1-2.1s0-1.5-0.1-2.1
					c0-0.6-0.1-1.2-0.2-1.9c-0.1-0.7-0.3-1.2-0.5-1.7c-0.2-0.4-0.6-0.9-1-1.3s-0.9-0.7-1.5-0.9c-0.6-0.2-1.4-0.3-2.2-0.3
					c-0.9,0-1.6,0.1-2.2,0.3c-0.6,0.2-1.1,0.5-1.5,0.9s-0.7,0.8-1,1.3c-0.2,0.4-0.4,1-0.5,1.7s-0.2,1.3-0.2,1.9
					c0,0.6-0.1,1.3-0.1,2.1s0,1.5,0.1,2.1c0,0.6,0.1,1.2,0.2,1.9c0.1,0.7,0.3,1.2,0.5,1.7c0.2,0.4,0.6,0.9,1,1.3
					c0.4,0.4,0.9,0.7,1.5,0.9s1.4,0.3,2.2,0.3C819.9,496.4,820.7,496.3,821.3,496.2z"/>
				<path id="XMLID_559_" class="st0" d="M848,477.9v7.5h-2.4c-0.1-2.1-0.6-3.5-1.4-4.1c-0.8-0.7-2.2-1-4.2-1
					c-1.3,0-2.3,0.3-2.9,0.8c-0.6,0.5-0.9,1.3-0.9,2.2c0,0.8,0.2,1.5,0.7,1.9s1.3,0.8,2.4,1.1l3.6,1c2,0.5,3.4,1.2,4.3,2.1
					c0.9,0.9,1.4,2.2,1.4,3.9c0,4.1-2.5,6.1-7.4,6.1c-2.8,0-4.9-0.9-6.3-2.7l0.1,2.2h-2.5v-7.5h2.3c0.3,3.4,2.3,5.1,5.7,5.1
					c2.9,0,4.4-1,4.4-3c0-0.7-0.2-1.3-0.7-1.8s-1.3-0.8-2.4-1.2l-3.6-0.9c-2-0.6-3.5-1.3-4.4-2.1s-1.4-2.2-1.4-4.1
					c0-1.8,0.6-3.2,1.8-4.3c1.2-1.1,3-1.6,5.4-1.6c2.6,0,4.5,0.7,5.7,2.2V478L848,477.9L848,477.9z"/>
			</g>
		</g>
	</g>
</g>
<g id="XMLID_2785_">
	<g id="XMLID_2808_">
		<polygon id="XMLID_4403_" class="st1" points="537.4,279 706.6,-14 875.7,279 		"/>
		<path id="XMLID_2809_" class="st2" d="M706.6-7.8L871,277H542.2L706.6-7.8 M706.6-18.4l-4.7,8.2L537.4,274.2l-4.7,7.8h9.5H871h9.5
			l-4.7-7.8L711.3-10.4L706.6-18.4L706.6-18.4z"/>
	</g>
	<polygon id="XMLID_2807_" class="st2" points="788.6,133 706.4,275.3 624.2,133 	"/>
	<polygon id="XMLID_2806_" class="st2" points="829.8,204 788.7,275.2 747.6,204 	"/>
	<polygon id="XMLID_2805_" class="st2" points="665.1,204 624,275.2 582.9,204 	"/>
	<polygon id="XMLID_2804_" class="st2" points="747.4,61 706.3,132.2 665.2,61 	"/>
	<polygon id="XMLID_2803_" class="st2" points="726.8,27 706.4,62.4 686,27 	"/>
	<polygon id="XMLID_2802_" class="st2" points="768,99 747.6,134.4 727.2,99 	"/>
	<polygon id="XMLID_2801_" class="st2" points="685.6,99 665.2,134.4 644.8,99 	"/>
	<polygon id="XMLID_2800_" class="st2" points="644.5,169 624,204.4 603.6,169 	"/>
	<polygon id="XMLID_2799_" class="st2" points="685.6,241 665.2,276.4 644.8,241 	"/>
	<polygon id="XMLID_2798_" class="st2" points="603.3,241 582.9,276.4 562.4,241 	"/>
	<polygon id="XMLID_2797_" class="st2" points="768,241 747.6,276.4 727.2,241 	"/>
	<polygon id="XMLID_2796_" class="st2" points="809.2,169 788.8,204.4 768.3,169 	"/>
	<polygon id="XMLID_2795_" class="st2" points="850.4,241 829.9,276.4 809.5,241 	"/>
	<g id="XMLID_2786_">
		<path id="XMLID_2791_" class="st1" d="M722.2,162.3c0,2.1,0,4.1,0,6.3c2.1,0,4.2,0,6.3,0c0,2.1,0,4.1,0,6.2c2.1,0,4.1,0,6.3,0
			c0,2.1,0,4.2,0,6.3c2.1,0,4.1,0,6.2,0c0,6.3,0,12.5,0,18.8c-2,0-4.1,0-6.2,0c0-4.1,0-8.3,0-12.4c-2.1,0-4.1,0-6.2,0
			c0,4.1,0,8.3,0,12.5c-2.1,0-4.2,0-6.3,0l0,0c0-2.1,0-4.1,0-6.2c-10.4,0-20.8,0-31.3,0c0,2.1,0,4.2,0,6.2l0,0c-2.1,0-4.1,0-6.3,0
			c0-4.2,0-8.3,0-12.5c-2.1,0-4.1,0-6.2,0c0,4.1,0,8.3,0,12.4c-2.1,0-4.2,0-6.3,0c0-6.2,0-12.4,0-18.7c2.1,0,4.1,0,6.2,0
			c0-2.1,0-4.1,0-6.3c2.1,0,4.2,0,6.3,0c0-2.1,0-4.1,0-6.2c2.1,0,4.1,0,6.3,0c0-2.1,0-4.2,0-6.3l0,0c2.1,0,4.1,0,6.3,0
			c0,2.1,0,4.1,0,6.2c6.3,0,12.5,0,18.8,0c0-2,0-4.1,0-6.2C718.1,162.3,720.2,162.3,722.2,162.3L722.2,162.3z M697.2,174.9
			c-2.1,0-4.2,0-6.2,0c0,2.1,0,4.1,0,6.2c2.1,0,4.1,0,6.2,0C697.2,179,697.2,177,697.2,174.9z M722.2,181.1c0-2.1,0-4.1,0-6.2
			c-2.1,0-4.1,0-6.2,0c0,2.1,0,4.1,0,6.2C718.1,181.1,720.1,181.1,722.2,181.1z"/>
		<path id="XMLID_2790_" class="st1" d="M690.9,199.9c4.1,0,8.3,0,12.5,0c0,2.1,0,4.1,0,6.2c-4.1,0-8.3,0-12.5,0
			C690.9,204.1,690.9,202,690.9,199.9L690.9,199.9z"/>
		<path id="XMLID_2789_" class="st1" d="M722.2,199.9c0,2.1,0,4.1,0,6.2c-4.2,0-8.3,0-12.5,0c0-2,0-4.1,0-6.2
			C713.9,199.9,718.1,199.9,722.2,199.9L722.2,199.9z"/>
		<path id="XMLID_2788_" class="st1" d="M690.9,162.3c-2.1,0-4.1,0-6.2,0c0-2.1,0-4.1,0-6.2c2,0,4.1,0,6.2,0
			C690.9,158.2,690.9,160.3,690.9,162.3L690.9,162.3z"/>
		<path id="XMLID_2787_" class="st1" d="M722.2,162.3c0-2.1,0-4.1,0-6.2c2.1,0,4.1,0,6.2,0c0,2,0,4.1,0,6.2
			C726.4,162.3,724.3,162.3,722.2,162.3L722.2,162.3z"/>
	</g>
</g>
</svg>
