<?xml version="1.0" encoding="utf-8"?>
<!-- Generator: Adobe Illustrator 19.0.0, SVG Export Plug-In . SVG Version: 6.00 Build 0)  -->
<svg version="1.1" id="Capa_1" xmlns="http://www.w3.org/2000/svg" xmlns:xlink="http://www.w3.org/1999/xlink" x="0px" y="0px"
	 viewBox="0 0 960 176.6" style="enable-background:new 0 0 960 176.6;" xml:space="preserve">
<style type="text/css">
	.st0{fill:#F8F6C4;}
	.st1{fill:#C1272D;}
	.st2{fill:#FF908A;}
	.st3{fill:#C64F43;}
	.st4{fill:#A8CCEB;}
	.st5{fill:#2E3192;}
	.st6{fill:#FBB03B;}
	.st7{fill:#D4EDFF;}
	.st8{fill:none;stroke:#000000;stroke-miterlimit:10;}
</style>
<rect id="XMLID_3274_" x="60.3" y="42.6" class="st0" width="278.4" height="61.2"/>
<g id="XMLID_4_">
	<path id="XMLID_134_" class="st1" d="M846.3,122.1c0.9,0,1.6,0.1,2.3,0.2c0.7,0.1,1.2,0.4,1.6,0.7c0.4,0.3,0.8,0.7,1,1.1
		s0.5,0.9,0.6,1.5c0.1,0.6,0.2,1.2,0.3,1.8s0.1,1.4,0.1,2.2c0,1.1,0,2-0.1,2.7c-0.1,0.7-0.2,1.4-0.5,2.1c-0.2,0.7-0.6,1.2-1,1.6
		c-0.4,0.4-1,0.7-1.7,0.9c-0.7,0.2-1.6,0.4-2.7,0.4h-5.8v-1h1.3v-13.2h-1.3v-1.1h2.8H846.3z M843.3,123.3v12.9h3
		c1,0,1.8-0.1,2.4-0.4c0.6-0.3,1.1-0.7,1.4-1.3c0.3-0.6,0.5-1.3,0.6-2c0.1-0.7,0.1-1.6,0.1-2.7c0-1.1,0-2-0.1-2.7
		c-0.1-0.7-0.3-1.3-0.6-2c-0.3-0.6-0.7-1.1-1.4-1.3c-0.6-0.3-1.4-0.4-2.4-0.4H843.3z"/>
	<path id="XMLID_137_" class="st1" d="M855,136.4h1.3v-13.2H855v-1.1h9.9v3.3h-1.2v-2.1h-5.9v5.7h6v1.3h-6v5.9h6.3v-2.1h1.2v3.3H855
		V136.4z"/>
	<path id="XMLID_139_" class="st1" d="M879.8,136.4h1.3v-11.9l-4.6,11.8H875l-4.2-11.6v11.7h1.3v1h-4v-1h1.3v-13.2H868v-1.1h3.3
		l4.5,12.3l4.7-12.3h3.3v1.1h-1.3v13.2h1.3v1h-4V136.4z"/>
	<path id="XMLID_141_" class="st1" d="M889.9,137.3c-0.7-0.2-1.3-0.6-1.7-1c-0.4-0.4-0.8-1-1-1.7c-0.2-0.7-0.4-1.4-0.4-2.2
		c-0.1-0.7-0.1-1.6-0.1-2.8c0-0.9,0-1.7,0.1-2.3c0-0.6,0.1-1.3,0.3-1.9c0.1-0.7,0.3-1.2,0.6-1.6c0.3-0.4,0.6-0.8,1-1.1
		c0.4-0.3,1-0.6,1.6-0.7s1.4-0.2,2.3-0.2c1,0,1.9,0.1,2.7,0.4c0.7,0.3,1.3,0.6,1.7,1c0.4,0.4,0.8,1,1,1.7c0.2,0.7,0.4,1.4,0.5,2.2
		c0.1,0.7,0.1,1.6,0.1,2.8c0,1.1,0,2-0.1,2.8c-0.1,0.7-0.2,1.5-0.5,2.2c-0.2,0.7-0.6,1.3-1,1.7c-0.4,0.4-1,0.7-1.7,1
		c-0.7,0.2-1.6,0.4-2.7,0.4C891.5,137.7,890.6,137.6,889.9,137.3z M894.5,136.1c0.5-0.2,1-0.5,1.3-0.8c0.3-0.3,0.6-0.8,0.7-1.4
		c0.2-0.6,0.3-1.2,0.3-1.8c0-0.6,0.1-1.4,0.1-2.3s0-1.7-0.1-2.3c0-0.6-0.2-1.2-0.3-1.8c-0.2-0.6-0.4-1.1-0.7-1.4
		c-0.3-0.3-0.8-0.6-1.3-0.8c-0.5-0.2-1.2-0.3-2-0.3c-0.7,0-1.2,0.1-1.7,0.2s-0.9,0.3-1.2,0.6c-0.3,0.3-0.6,0.6-0.8,1
		c-0.2,0.4-0.4,0.8-0.5,1.4c-0.1,0.6-0.2,1.1-0.2,1.6c0,0.5-0.1,1.2-0.1,1.9c0,0.8,0,1.4,0.1,1.9c0,0.5,0.1,1.1,0.2,1.6
		c0.1,0.6,0.2,1,0.5,1.4c0.2,0.4,0.5,0.7,0.8,1c0.3,0.3,0.7,0.5,1.2,0.6s1.1,0.2,1.7,0.2C893.3,136.4,894,136.3,894.5,136.1z"/>
</g>
<rect id="XMLID_3_" x="890.6" y="42.6" class="st2" width="9.1" height="61.2"/>
<rect id="XMLID_3276_" x="679.7" y="42.6" class="st3" width="210.9" height="61.2"/>
<rect id="XMLID_3272_" x="338.7" y="42.6" class="st4" width="341.1" height="61.2"/>
<g id="XMLID_5_">
	<path id="XMLID_112_" d="M838.4,157.2c-0.3-0.1-0.6-0.2-0.8-0.4c-0.2-0.2-0.4-0.4-0.5-0.6s-0.2-0.5-0.3-0.8c-0.1-0.3-0.1-0.7-0.1-1
		c0-0.3,0-0.7,0-1.2c0-0.5,0-0.9,0-1.2c0-0.3,0.1-0.7,0.1-1c0.1-0.3,0.2-0.6,0.3-0.8c0.1-0.2,0.3-0.4,0.5-0.6
		c0.2-0.2,0.4-0.3,0.8-0.4c0.3-0.1,0.7-0.1,1.1-0.1c0.5,0,0.9,0.1,1.2,0.2c0.3,0.1,0.6,0.3,0.8,0.5s0.3,0.5,0.5,0.9
		c0.1,0.4,0.2,0.8,0.2,1.1s0,0.8,0,1.4c0,0.6,0,1,0,1.4s-0.1,0.8-0.2,1.1s-0.3,0.7-0.5,0.9c-0.2,0.2-0.5,0.4-0.8,0.5
		s-0.8,0.2-1.2,0.2C839,157.3,838.7,157.3,838.4,157.2z M840.3,156.4c0.2-0.1,0.4-0.2,0.6-0.4c0.1-0.2,0.2-0.4,0.3-0.7
		c0.1-0.3,0.1-0.6,0.1-1c0-0.3,0-0.7,0-1.2s0-0.9,0-1.2c0-0.3-0.1-0.6-0.1-0.9c-0.1-0.3-0.2-0.5-0.3-0.7s-0.3-0.3-0.6-0.4
		c-0.2-0.1-0.5-0.2-0.9-0.2s-0.6,0.1-0.9,0.2c-0.2,0.1-0.4,0.2-0.6,0.4s-0.2,0.4-0.3,0.7c-0.1,0.3-0.1,0.6-0.1,0.9s0,0.7,0,1.2
		s0,0.9,0,1.2s0.1,0.6,0.1,1c0.1,0.3,0.2,0.5,0.3,0.7c0.1,0.2,0.3,0.3,0.6,0.4c0.2,0.1,0.5,0.2,0.9,0.2S840.1,156.6,840.3,156.4z"/>
	<path id="XMLID_115_" d="M844,149.1h5.1v0.7l-3.2,7.4H845l3.2-7.3h-3.6v1.2H844V149.1z"/>
	<path id="XMLID_117_" d="M856,157.2c-0.3-0.1-0.5-0.2-0.7-0.3s-0.4-0.3-0.5-0.5c-0.1-0.2-0.3-0.4-0.3-0.6c-0.1-0.2-0.1-0.4-0.2-0.7
		c0-0.3-0.1-0.5-0.1-0.7c0-0.2,0-0.5,0-0.8s0-0.6,0-0.8c0-0.2,0-0.5,0.1-0.7c0-0.3,0.1-0.5,0.2-0.7s0.2-0.4,0.3-0.6
		c0.1-0.2,0.3-0.3,0.5-0.4c0.2-0.1,0.5-0.2,0.7-0.3s0.6-0.1,1-0.1s0.7,0,1,0.1c0.3,0.1,0.5,0.2,0.7,0.3c0.2,0.1,0.4,0.3,0.5,0.4
		c0.1,0.2,0.3,0.4,0.3,0.6s0.2,0.4,0.2,0.7c0,0.3,0.1,0.5,0.1,0.7c0,0.2,0,0.5,0,0.8s0,0.6,0,0.8c0,0.2,0,0.5-0.1,0.7
		s-0.1,0.5-0.2,0.7c-0.1,0.2-0.2,0.4-0.3,0.6s-0.3,0.3-0.5,0.5c-0.2,0.1-0.5,0.2-0.7,0.3c-0.3,0.1-0.6,0.1-1,0.1
		S856.3,157.3,856,157.2z M858,156.4c0.3-0.1,0.5-0.3,0.6-0.4s0.3-0.4,0.3-0.7s0.1-0.5,0.1-0.8c0-0.2,0-0.5,0-0.9s0-0.6,0-0.9
		c0-0.2-0.1-0.5-0.1-0.8c-0.1-0.3-0.2-0.5-0.3-0.7c-0.1-0.2-0.3-0.3-0.6-0.4c-0.3-0.1-0.6-0.2-1-0.2s-0.7,0.1-1,0.2
		c-0.3,0.1-0.5,0.3-0.6,0.4c-0.1,0.2-0.3,0.4-0.3,0.7c-0.1,0.3-0.1,0.5-0.1,0.8c0,0.2,0,0.5,0,0.9s0,0.6,0,0.9
		c0,0.2,0.1,0.5,0.1,0.8s0.2,0.5,0.3,0.7c0.1,0.2,0.3,0.3,0.6,0.4c0.3,0.1,0.6,0.2,1,0.2S857.7,156.5,858,156.4z"/>
	<path id="XMLID_120_" d="M866.6,150.3v2.4H866c-0.1-0.6-0.3-1.1-0.6-1.4c-0.3-0.3-0.8-0.5-1.4-0.5c-0.3,0-0.6,0.1-0.9,0.2
		c-0.2,0.1-0.4,0.3-0.6,0.4s-0.2,0.4-0.3,0.7c-0.1,0.3-0.1,0.5-0.1,0.8c0,0.2,0,0.5,0,0.8c0,0.3,0,0.5,0,0.7c0,0.2,0,0.4,0.1,0.7
		c0,0.2,0.1,0.5,0.2,0.6c0.1,0.2,0.2,0.3,0.3,0.5c0.1,0.2,0.3,0.3,0.5,0.3c0.2,0.1,0.5,0.1,0.8,0.1c0.7,0,1.2-0.1,1.4-0.3
		c0.2-0.2,0.4-0.6,0.4-1.1l0.7,0c0,0.3-0.1,0.6-0.1,0.9c-0.1,0.2-0.2,0.5-0.4,0.7c-0.2,0.2-0.4,0.4-0.8,0.5
		c-0.3,0.1-0.7,0.1-1.2,0.1s-0.9-0.1-1.3-0.2c-0.4-0.1-0.6-0.3-0.8-0.5s-0.4-0.5-0.5-0.8c-0.1-0.3-0.2-0.7-0.2-1c0-0.3,0-0.7,0-1.1
		s0-0.8,0.1-1.1s0.1-0.6,0.2-1s0.3-0.6,0.5-0.8c0.2-0.2,0.5-0.4,0.8-0.5s0.7-0.2,1.2-0.2c0.9,0,1.5,0.3,1.9,0.9l0-0.7H866.6z"/>
	<path id="XMLID_122_" d="M867.8,150.3h1.1v-1.4l0.8-0.2v1.5h1.3v0.6h-1.3v4.8c0,0.4,0,0.6,0.2,0.8c0.1,0.2,0.3,0.2,0.5,0.2
		c0.2,0,0.4,0,0.7-0.1l0.1,0.6c-0.4,0.1-0.7,0.2-1,0.2c-0.2,0-0.4,0-0.6-0.1c-0.2-0.1-0.3-0.1-0.4-0.2s-0.2-0.2-0.2-0.4
		s-0.1-0.3-0.1-0.4c0-0.1,0-0.3,0-0.5v-4.8h-1.1V150.3z"/>
	<path id="XMLID_124_" d="M874.1,150.3v4.9c0,0.5,0.1,0.9,0.3,1.1c0.2,0.2,0.6,0.3,1.1,0.3c0.9,0,1.7-0.3,2.4-1v-4.7h-0.7v-0.6h1.6
		v6.3h0.7v0.6h-1.3l-0.2-0.9c-0.8,0.7-1.7,1-2.6,1c-0.8,0-1.3-0.2-1.6-0.5s-0.5-0.9-0.5-1.6v-4.3h-0.7v-0.6h0.7H874.1z"/>
	<path id="XMLID_126_" d="M880.6,148.1h0.7h0.8v2.6c0.7-0.4,1.4-0.6,2.1-0.6c0.4,0,0.8,0.1,1.1,0.2c0.3,0.1,0.6,0.3,0.7,0.5
		c0.2,0.2,0.3,0.5,0.4,0.8c0.1,0.3,0.2,0.7,0.2,1c0,0.3,0,0.7,0,1.1c0,0.4,0,0.8,0,1.1c0,0.3-0.1,0.6-0.2,1
		c-0.1,0.3-0.2,0.6-0.4,0.8c-0.2,0.2-0.4,0.4-0.7,0.5c-0.3,0.1-0.7,0.2-1.1,0.2c-0.8,0-1.5-0.3-2.2-0.8l-0.2,0.6h-0.6v-8.4h-0.7
		V148.1z M882.2,151.4v4.5c0.6,0.5,1.2,0.7,1.9,0.7c0.3,0,0.6-0.1,0.9-0.2c0.2-0.1,0.4-0.2,0.6-0.4s0.2-0.4,0.3-0.6
		c0.1-0.3,0.1-0.5,0.1-0.8c0-0.2,0-0.5,0-0.9c0-0.3,0-0.5,0-0.7c0-0.2,0-0.4-0.1-0.7c0-0.2-0.1-0.4-0.2-0.6s-0.2-0.3-0.3-0.5
		c-0.1-0.1-0.3-0.3-0.5-0.3c-0.2-0.1-0.4-0.1-0.7-0.1C883.5,150.8,882.8,151,882.2,151.4z"/>
	<path id="XMLID_129_" d="M889.9,151.6c0.6-1,1.4-1.4,2.5-1.5v0.8c-1.1,0-2,0.6-2.5,1.6v4.1h1v0.6h-2.5v-0.6h0.7v-5.7h-0.7v-0.6h0.7
		h0.6L889.9,151.6z"/>
	<path id="XMLID_131_" d="M894,156.5c-0.4-0.6-0.6-1.5-0.6-2.7c0-0.4,0-0.8,0-1.1c0-0.3,0.1-0.6,0.2-1c0.1-0.3,0.3-0.6,0.5-0.8
		s0.5-0.4,0.8-0.5c0.4-0.1,0.8-0.2,1.3-0.2s0.9,0.1,1.3,0.2c0.3,0.1,0.6,0.3,0.8,0.5c0.2,0.2,0.3,0.5,0.5,0.8c0.1,0.3,0.2,0.7,0.2,1
		c0,0.3,0,0.7,0,1.1v0.2h-4.8c0,1,0.1,1.7,0.4,2.1c0.3,0.4,0.8,0.6,1.6,0.6c0.7,0,1.2-0.1,1.5-0.4c0.3-0.3,0.4-0.7,0.5-1.2l0.7,0
		c0,0.3-0.1,0.6-0.2,0.9c-0.1,0.2-0.2,0.5-0.4,0.7c-0.2,0.2-0.4,0.4-0.8,0.5c-0.3,0.1-0.8,0.2-1.3,0.2
		C895.1,157.3,894.4,157,894,156.5z M895.2,151c-0.3,0.1-0.5,0.3-0.6,0.6c-0.1,0.2-0.2,0.5-0.3,0.8c-0.1,0.3-0.1,0.6-0.1,0.9h3.9
		c0-0.4,0-0.7-0.1-0.9s-0.1-0.5-0.3-0.8s-0.3-0.4-0.6-0.5c-0.3-0.1-0.6-0.2-1-0.2C895.8,150.8,895.5,150.9,895.2,151z"/>
</g>
<g id="XMLID_8_">
	<path id="XMLID_101_" class="st5" d="M630.7,137.4v-1h1.3v-13.2h-1.3v-1.1h5.3c0.8,0,1.5,0.1,2,0.2c0.6,0.1,1,0.3,1.3,0.6
		c0.3,0.2,0.6,0.5,0.8,0.9c0.2,0.4,0.3,0.7,0.4,1c0.1,0.3,0.1,0.7,0.1,1.2c0,0.9-0.1,1.6-0.4,2.2c-0.3,0.6-0.8,1-1.6,1.3
		c1.1,0.2,1.9,0.6,2.3,1.3c0.4,0.7,0.6,1.5,0.6,2.6c0,0.5,0,0.9-0.1,1.2c-0.1,0.4-0.2,0.7-0.4,1.1c-0.2,0.4-0.4,0.7-0.8,0.9
		s-0.8,0.4-1.3,0.6c-0.6,0.2-1.2,0.2-2,0.2H630.7z M635.9,128.9c1.2,0,2.1-0.2,2.5-0.7c0.4-0.5,0.6-1.2,0.6-2.1
		c0-0.9-0.2-1.6-0.6-2.1c-0.4-0.5-1.2-0.7-2.5-0.7h-2.5v5.6H635.9z M636.8,136.2c1.2,0,2.1-0.2,2.5-0.7s0.6-1.2,0.6-2.2
		c0-1-0.2-1.7-0.6-2.3c-0.4-0.5-1.2-0.8-2.5-0.8h-3.3v6H636.8z"/>
	<path id="XMLID_105_" class="st5" d="M643.9,136.4h1.3v-13.2h-1.3v-1.1h9.9v3.3h-1.2v-2.1h-5.9v5.7h6v1.3h-6v5.9h6.3v-2.1h1.2v3.3
		h-10.3V136.4z"/>
	<path id="XMLID_107_" class="st5" d="M665.4,125.4v-2.1h-3.5v13h1.7v1h-4.9v-1h1.7v-13h-3.5v2.1h-1.2v-3.3h10.9v3.3H665.4z"/>
	<path id="XMLID_109_" class="st5" d="M673.9,122.1l4.7,14.3h1v1h-3.7v-1h1.2l-1.3-3.9h-6l-1.3,3.9h1.3v1h-3.7v-1h1l4.8-14.3H673.9z
		 M670.3,131.2h5.1l-2.6-7.8L670.3,131.2z"/>
</g>
<g id="XMLID_7_">
	<path id="XMLID_71_" d="M599.6,156.4v0.7h-5.1v-0.7l3.1-3.4c0.4-0.4,0.6-0.7,0.8-1s0.3-0.6,0.3-1c0-0.5-0.1-0.8-0.4-1
		c-0.2-0.2-0.7-0.4-1.3-0.4c-0.6,0-1.1,0.1-1.3,0.4c-0.2,0.3-0.4,0.7-0.4,1.2h-0.7c0-0.8,0.2-1.3,0.6-1.7c0.4-0.4,1-0.6,1.9-0.6
		c1.6,0,2.5,0.7,2.5,2.1c0,0.5-0.1,0.9-0.4,1.3c-0.3,0.4-0.6,0.9-1.1,1.4l-2.5,2.7H599.6z"/>
	<path id="XMLID_73_" d="M602.1,149.7c0.8-0.1,1.4-0.3,1.9-0.6h0.6v7.3h1.7v0.7h-4.2v-0.7h1.7v-6.2h-1.6V149.7z"/>
	<path id="XMLID_75_" d="M616.6,150.3v2.4H616c0-0.4-0.1-0.7-0.2-1s-0.2-0.4-0.4-0.6c-0.2-0.1-0.4-0.2-0.6-0.3
		c-0.2,0-0.5-0.1-0.9-0.1c-0.5,0-0.8,0.1-1.1,0.3c-0.2,0.2-0.3,0.5-0.3,0.9c0,0.3,0.1,0.6,0.3,0.8c0.2,0.2,0.5,0.3,1,0.4l0.9,0.3
		c0.7,0.2,1.3,0.4,1.6,0.7c0.3,0.3,0.5,0.7,0.5,1.3c0,1.3-0.8,1.9-2.4,1.9c-1,0-1.7-0.4-2.1-1.1l0,0.9h-0.6v-2.4h0.6
		c0.1,1.3,0.8,1.9,2.1,1.9c1.1,0,1.6-0.4,1.6-1.2c0-0.3-0.1-0.5-0.3-0.7c-0.2-0.2-0.5-0.3-1-0.4l-0.9-0.3c-0.7-0.2-1.3-0.4-1.6-0.7
		c-0.3-0.3-0.5-0.7-0.5-1.3c0-0.6,0.2-1,0.6-1.4c0.4-0.3,0.9-0.5,1.7-0.5c1,0,1.6,0.3,2,0.9l0-0.7H616.6z"/>
	<path id="XMLID_77_" d="M619.1,156.5c-0.4-0.6-0.6-1.5-0.6-2.7c0-0.4,0-0.8,0-1.1c0-0.3,0.1-0.6,0.2-1c0.1-0.3,0.3-0.6,0.5-0.8
		s0.5-0.4,0.8-0.5c0.4-0.1,0.8-0.2,1.3-0.2s0.9,0.1,1.3,0.2c0.3,0.1,0.6,0.3,0.8,0.5c0.2,0.2,0.3,0.5,0.5,0.8c0.1,0.3,0.2,0.7,0.2,1
		c0,0.3,0,0.7,0,1.1v0.2h-4.8c0,1,0.1,1.7,0.4,2.1c0.3,0.4,0.8,0.6,1.6,0.6c0.7,0,1.2-0.1,1.5-0.4c0.3-0.3,0.4-0.7,0.5-1.2l0.7,0
		c0,0.3-0.1,0.6-0.2,0.9c-0.1,0.2-0.2,0.5-0.4,0.7c-0.2,0.2-0.4,0.4-0.8,0.5c-0.3,0.1-0.8,0.2-1.3,0.2
		C620.3,157.3,619.5,157,619.1,156.5z M620.3,151c-0.3,0.1-0.5,0.3-0.6,0.6c-0.1,0.2-0.2,0.5-0.3,0.8c-0.1,0.3-0.1,0.6-0.1,0.9h3.9
		c0-0.4,0-0.7-0.1-0.9s-0.1-0.5-0.3-0.8s-0.3-0.4-0.6-0.5c-0.3-0.1-0.6-0.2-1-0.2C620.9,150.8,620.6,150.9,620.3,151z"/>
	<path id="XMLID_80_" d="M627,150.9c0.7-0.5,1.5-0.8,2.2-0.8c0.4,0,0.8,0.1,1.1,0.2c0.3,0.1,0.6,0.3,0.7,0.5s0.3,0.5,0.4,0.8
		c0.1,0.3,0.2,0.7,0.2,1c0,0.3,0,0.7,0,1.1s0,0.8,0,1.1c0,0.3-0.1,0.6-0.2,1c-0.1,0.3-0.3,0.6-0.4,0.8c-0.2,0.2-0.4,0.4-0.8,0.5
		c-0.3,0.1-0.7,0.2-1.2,0.2c-0.7,0-1.4-0.1-2-0.4v2.4h1v0.6h-2.5v-0.6h0.7v-8.4h-0.7v-0.6h0.7h0.6L627,150.9z M627.1,151.5v4.7
		c0.6,0.3,1.2,0.4,1.9,0.4c0.3,0,0.6-0.1,0.9-0.2c0.2-0.1,0.4-0.2,0.6-0.4c0.1-0.2,0.2-0.4,0.3-0.6c0.1-0.3,0.1-0.5,0.1-0.8
		c0-0.3,0-0.6,0-0.9c0-0.3,0-0.5,0-0.7c0-0.2,0-0.4-0.1-0.7c0-0.2-0.1-0.4-0.2-0.6s-0.2-0.3-0.3-0.5c-0.1-0.1-0.3-0.3-0.5-0.3
		s-0.4-0.1-0.7-0.1C628.4,150.8,627.7,151.1,627.1,151.5z"/>
	<path id="XMLID_83_" d="M632.9,150.3h1.1v-1.4l0.8-0.2v1.5h1.3v0.6h-1.3v4.8c0,0.4,0,0.6,0.2,0.8c0.1,0.2,0.3,0.2,0.5,0.2
		c0.2,0,0.4,0,0.7-0.1l0.1,0.6c-0.4,0.1-0.7,0.2-1,0.2c-0.2,0-0.4,0-0.6-0.1c-0.2-0.1-0.3-0.1-0.4-0.2s-0.2-0.2-0.2-0.4
		s-0.1-0.3-0.1-0.4s0-0.3,0-0.5v-4.8h-1.1V150.3z"/>
	<path id="XMLID_85_" d="M637.7,150.3h1.6v6.3h0.7v0.6h-2.3v-0.6h0.7v-5.7h-0.7V150.3z M638.5,149c-0.1-0.1-0.1-0.1-0.1-0.2
		c0-0.1,0-0.2,0-0.3c0-0.1,0-0.2,0-0.3c0-0.1,0.1-0.2,0.1-0.2c0.1-0.1,0.2-0.1,0.3-0.1c0.2,0,0.3,0,0.4,0.1c0.1,0.1,0.1,0.1,0.1,0.2
		s0,0.2,0,0.3c0,0.2,0,0.4-0.1,0.5c-0.1,0.1-0.2,0.2-0.4,0.2C638.7,149.1,638.6,149,638.5,149z"/>
	<path id="XMLID_88_" d="M642.1,156.5c-0.4-0.6-0.6-1.5-0.6-2.7c0-0.4,0-0.8,0-1.1c0-0.3,0.1-0.6,0.2-1c0.1-0.3,0.3-0.6,0.5-0.8
		s0.5-0.4,0.8-0.5c0.4-0.1,0.8-0.2,1.3-0.2s0.9,0.1,1.3,0.2c0.3,0.1,0.6,0.3,0.8,0.5c0.2,0.2,0.3,0.5,0.5,0.8c0.1,0.3,0.2,0.7,0.2,1
		c0,0.3,0,0.7,0,1.1v0.2h-4.8c0,1,0.1,1.7,0.4,2.1c0.3,0.4,0.8,0.6,1.6,0.6c0.7,0,1.2-0.1,1.5-0.4c0.3-0.3,0.4-0.7,0.5-1.2l0.7,0
		c0,0.3-0.1,0.6-0.2,0.9c-0.1,0.2-0.2,0.5-0.4,0.7c-0.2,0.2-0.4,0.4-0.8,0.5c-0.3,0.1-0.8,0.2-1.3,0.2
		C643.3,157.3,642.5,157,642.1,156.5z M643.3,151c-0.3,0.1-0.5,0.3-0.6,0.6c-0.1,0.2-0.2,0.5-0.3,0.8c-0.1,0.3-0.1,0.6-0.1,0.9h3.9
		c0-0.4,0-0.7-0.1-0.9s-0.1-0.5-0.3-0.8s-0.3-0.4-0.6-0.5c-0.3-0.1-0.6-0.2-1-0.2C643.9,150.8,643.6,150.9,643.3,151z"/>
	<path id="XMLID_91_" d="M652.9,156.5h0.7v-4.3c0-1-0.4-1.4-1.3-1.4c-0.8,0-1.5,0.3-2.1,0.9v4.9h0.7v0.6h-2.3v-0.6h0.7v-5.7h-0.7
		v-0.6h0.7h0.6l0.2,0.7c0.7-0.6,1.4-0.9,2.3-0.9c0.9,0,1.5,0.3,1.8,1c0.3-0.3,0.6-0.5,1.1-0.7c0.4-0.2,0.9-0.3,1.3-0.3
		c1.3,0,2,0.7,2,2.1v4.3h0.7v0.6h-2.3v-0.6h0.7v-4.3c0-1-0.4-1.4-1.3-1.4c-0.8,0-1.5,0.3-2.1,0.9c0,0.2,0,0.3,0,0.5v4.3h0.7v0.6
		h-2.3V156.5z"/>
	<path id="XMLID_93_" d="M660.6,148.1h0.7h0.8v2.6c0.7-0.4,1.4-0.6,2.1-0.6c0.4,0,0.8,0.1,1.1,0.2c0.3,0.1,0.6,0.3,0.7,0.5
		c0.2,0.2,0.3,0.5,0.4,0.8c0.1,0.3,0.2,0.7,0.2,1c0,0.3,0,0.7,0,1.1c0,0.4,0,0.8,0,1.1c0,0.3-0.1,0.6-0.2,1
		c-0.1,0.3-0.2,0.6-0.4,0.8c-0.2,0.2-0.4,0.4-0.7,0.5c-0.3,0.1-0.7,0.2-1.1,0.2c-0.8,0-1.5-0.3-2.2-0.8l-0.2,0.6h-0.6v-8.4h-0.7
		V148.1z M662.2,151.4v4.5c0.6,0.5,1.2,0.7,1.9,0.7c0.3,0,0.6-0.1,0.9-0.2c0.2-0.1,0.4-0.2,0.6-0.4s0.2-0.4,0.3-0.6
		c0.1-0.3,0.1-0.5,0.1-0.8c0-0.2,0-0.5,0-0.9c0-0.3,0-0.5,0-0.7c0-0.2,0-0.4-0.1-0.7c0-0.2-0.1-0.4-0.2-0.6s-0.2-0.3-0.3-0.5
		c-0.1-0.1-0.3-0.3-0.5-0.3c-0.2-0.1-0.4-0.1-0.7-0.1C663.5,150.8,662.8,151,662.2,151.4z"/>
	<path id="XMLID_96_" d="M669.9,151.6c0.6-1,1.4-1.4,2.5-1.5v0.8c-1.1,0-2,0.6-2.5,1.6v4.1h1v0.6h-2.5v-0.6h0.7v-5.7h-0.7v-0.6h0.7
		h0.6L669.9,151.6z"/>
	<path id="XMLID_98_" d="M674,156.5c-0.4-0.6-0.6-1.5-0.6-2.7c0-0.4,0-0.8,0-1.1c0-0.3,0.1-0.6,0.2-1c0.1-0.3,0.3-0.6,0.5-0.8
		s0.5-0.4,0.8-0.5c0.4-0.1,0.8-0.2,1.3-0.2s0.9,0.1,1.3,0.2c0.3,0.1,0.6,0.3,0.8,0.5c0.2,0.2,0.3,0.5,0.5,0.8c0.1,0.3,0.2,0.7,0.2,1
		c0,0.3,0,0.7,0,1.1v0.2h-4.8c0,1,0.1,1.7,0.4,2.1c0.3,0.4,0.8,0.6,1.6,0.6c0.7,0,1.2-0.1,1.5-0.4c0.3-0.3,0.4-0.7,0.5-1.2l0.7,0
		c0,0.3-0.1,0.6-0.2,0.9c-0.1,0.2-0.2,0.5-0.4,0.7c-0.2,0.2-0.4,0.4-0.8,0.5c-0.3,0.1-0.8,0.2-1.3,0.2
		C675.1,157.3,674.4,157,674,156.5z M675.2,151c-0.3,0.1-0.5,0.3-0.6,0.6c-0.1,0.2-0.2,0.5-0.3,0.8c-0.1,0.3-0.1,0.6-0.1,0.9h3.9
		c0-0.4,0-0.7-0.1-0.9s-0.1-0.5-0.3-0.8s-0.3-0.4-0.6-0.5c-0.3-0.1-0.6-0.2-1-0.2C675.8,150.8,675.5,150.9,675.2,151z"/>
</g>
<g id="XMLID_10_">
	<path id="XMLID_58_" class="st6" d="M280.1,122.1l4.7,14.3h1v1h-3.7v-1h1.2l-1.3-3.9h-6l-1.3,3.9h1.3v1h-3.7v-1h1l4.8-14.3H280.1z
		 M276.5,131.2h5.1l-2.6-7.8L276.5,131.2z"/>
	<path id="XMLID_61_" class="st6" d="M287.4,122.1h4.5v1.1h-1.7v13h5v-2.1h1.2v3.3h-9v-1h1.3v-13.2h-1.3V122.1z"/>
	<path id="XMLID_63_" class="st6" d="M300.8,131.6v4.7h1.7v1h-4.5v-1h1.3v-13.2h-1.3v-1.1h1.3h4.2c1,0,1.8,0.1,2.5,0.4
		c0.6,0.3,1.1,0.6,1.4,1.1s0.5,1,0.6,1.5c0.1,0.5,0.1,1.1,0.1,1.8c0,0.6,0,1-0.1,1.4c0,0.4-0.2,0.8-0.3,1.3s-0.4,0.8-0.8,1.1
		c-0.3,0.3-0.8,0.5-1.4,0.7c-0.6,0.2-1.3,0.3-2.1,0.3H300.8z M303.5,130.4c0.7,0,1.2-0.1,1.6-0.3c0.4-0.2,0.7-0.4,0.9-0.8
		c0.2-0.4,0.3-0.7,0.4-1.1s0.1-0.8,0.1-1.4c0-0.6,0-1-0.1-1.4s-0.2-0.7-0.4-1.1c-0.2-0.4-0.5-0.6-0.9-0.8c-0.4-0.2-1-0.3-1.6-0.3
		h-2.7v7.1H303.5z"/>
	<path id="XMLID_66_" class="st6" d="M319.4,136.4h1.3v-6h-7.3v6h1.3v1h-4v-1h1.3v-13.2h-1.3v-1.1h4v1.1h-1.3v6h7.3v-6h-1.3v-1.1h4
		v1.1h-1.3v13.2h1.3v1h-4V136.4z"/>
	<path id="XMLID_68_" class="st6" d="M332.8,122.1l4.7,14.3h1v1h-3.7v-1h1.2l-1.3-3.9h-6l-1.3,3.9h1.3v1h-3.7v-1h1l4.8-14.3H332.8z
		 M329.2,131.2h5.1l-2.6-7.8L329.2,131.2z"/>
</g>
<g id="XMLID_9_">
	<path id="XMLID_40_" d="M300.5,156.4v0.7h-5.1v-0.7l3.1-3.4c0.4-0.4,0.6-0.7,0.8-1c0.2-0.3,0.3-0.6,0.3-1c0-0.5-0.1-0.8-0.4-1
		c-0.2-0.2-0.7-0.4-1.3-0.4c-0.6,0-1.1,0.1-1.3,0.4c-0.2,0.3-0.4,0.7-0.4,1.2h-0.7c0-0.8,0.2-1.3,0.6-1.7c0.4-0.4,1-0.6,1.9-0.6
		c1.6,0,2.5,0.7,2.5,2.1c0,0.5-0.1,0.9-0.4,1.3c-0.3,0.4-0.6,0.9-1.1,1.4l-2.5,2.7H300.5z"/>
	<path id="XMLID_42_" d="M303.8,157.2c-0.3-0.1-0.6-0.2-0.8-0.4c-0.2-0.2-0.4-0.4-0.5-0.6s-0.2-0.5-0.3-0.8c-0.1-0.3-0.1-0.7-0.1-1
		c0-0.3,0-0.7,0-1.2c0-0.5,0-0.9,0-1.2s0.1-0.7,0.1-1s0.2-0.6,0.3-0.8c0.1-0.2,0.3-0.4,0.5-0.6c0.2-0.2,0.4-0.3,0.8-0.4
		s0.7-0.1,1.1-0.1c0.5,0,0.9,0.1,1.2,0.2c0.3,0.1,0.6,0.3,0.8,0.5c0.2,0.2,0.3,0.5,0.5,0.9c0.1,0.4,0.2,0.8,0.2,1.1
		c0,0.4,0,0.8,0,1.4c0,0.6,0,1,0,1.4c0,0.4-0.1,0.8-0.2,1.1c-0.1,0.4-0.3,0.7-0.5,0.9c-0.2,0.2-0.5,0.4-0.8,0.5s-0.8,0.2-1.2,0.2
		C304.4,157.3,304.1,157.3,303.8,157.2z M305.7,156.4c0.2-0.1,0.4-0.2,0.6-0.4c0.1-0.2,0.2-0.4,0.3-0.7c0.1-0.3,0.1-0.6,0.1-1
		s0-0.7,0-1.2s0-0.9,0-1.2s-0.1-0.6-0.1-0.9c-0.1-0.3-0.2-0.5-0.3-0.7c-0.1-0.2-0.3-0.3-0.6-0.4c-0.2-0.1-0.5-0.2-0.9-0.2
		c-0.3,0-0.6,0.1-0.9,0.2c-0.2,0.1-0.4,0.2-0.6,0.4c-0.1,0.2-0.2,0.4-0.3,0.7c-0.1,0.3-0.1,0.6-0.1,0.9c0,0.3,0,0.7,0,1.2
		s0,0.9,0,1.2c0,0.3,0.1,0.6,0.1,1c0.1,0.3,0.2,0.5,0.3,0.7c0.1,0.2,0.3,0.3,0.6,0.4c0.2,0.1,0.5,0.2,0.9,0.2
		C305.2,156.6,305.4,156.6,305.7,156.4z"/>
	<path id="XMLID_45_" d="M312.5,150.3h1.6v7.8c0,0.6-0.1,1.1-0.3,1.4s-0.7,0.4-1.3,0.4h-0.7v-0.7l0.7-0.1c0.3,0,0.6-0.1,0.7-0.3
		c0.1-0.2,0.2-0.4,0.2-0.8v-7.2h-0.7V150.3z M313.4,149c-0.1-0.1-0.1-0.1-0.1-0.2c0-0.1,0-0.2,0-0.3c0-0.1,0-0.2,0-0.3
		s0.1-0.2,0.1-0.2c0.1-0.1,0.2-0.1,0.3-0.1c0.2,0,0.3,0,0.4,0.1c0.1,0.1,0.1,0.1,0.1,0.2c0,0.1,0,0.2,0,0.3c0,0.2,0,0.4-0.1,0.5
		c-0.1,0.1-0.2,0.2-0.4,0.2C313.6,149.1,313.4,149,313.4,149z"/>
	<path id="XMLID_48_" d="M317.7,150.3v4.9c0,0.5,0.1,0.9,0.3,1.1c0.2,0.2,0.6,0.3,1.1,0.3c0.9,0,1.7-0.3,2.4-1v-4.7h-0.7v-0.6h1.6
		v6.3h0.7v0.6h-1.3l-0.2-0.9c-0.8,0.7-1.7,1-2.6,1c-0.8,0-1.3-0.2-1.6-0.5c-0.3-0.3-0.5-0.9-0.5-1.6v-4.3h-0.7v-0.6h0.7H317.7z"/>
	<path id="XMLID_50_" d="M324.5,148.1h1.6v8.4h0.7v0.6h-2.3v-0.6h0.7v-7.8h-0.7V148.1z"/>
	<path id="XMLID_52_" d="M328.4,150.3h1.6v6.3h0.7v0.6h-2.3v-0.6h0.7v-5.7h-0.7V150.3z M329.2,149c-0.1-0.1-0.1-0.1-0.1-0.2
		c0-0.1,0-0.2,0-0.3c0-0.1,0-0.2,0-0.3s0.1-0.2,0.1-0.2c0.1-0.1,0.2-0.1,0.3-0.1c0.2,0,0.3,0,0.4,0.1c0.1,0.1,0.1,0.1,0.1,0.2
		c0,0.1,0,0.2,0,0.3c0,0.2,0,0.4-0.1,0.5c-0.1,0.1-0.2,0.2-0.4,0.2C329.4,149.1,329.2,149,329.2,149z"/>
	<path id="XMLID_55_" d="M334,157.2c-0.3-0.1-0.5-0.2-0.7-0.3s-0.4-0.3-0.5-0.5c-0.1-0.2-0.3-0.4-0.3-0.6c-0.1-0.2-0.1-0.4-0.2-0.7
		c0-0.3-0.1-0.5-0.1-0.7c0-0.2,0-0.5,0-0.8s0-0.6,0-0.8c0-0.2,0-0.5,0.1-0.7c0-0.3,0.1-0.5,0.2-0.7s0.2-0.4,0.3-0.6
		c0.1-0.2,0.3-0.3,0.5-0.4c0.2-0.1,0.5-0.2,0.7-0.3c0.3-0.1,0.6-0.1,1-0.1s0.7,0,1,0.1c0.3,0.1,0.5,0.2,0.7,0.3
		c0.2,0.1,0.4,0.3,0.5,0.4c0.1,0.2,0.3,0.4,0.3,0.6s0.2,0.4,0.2,0.7c0,0.3,0.1,0.5,0.1,0.7c0,0.2,0,0.5,0,0.8s0,0.6,0,0.8
		c0,0.2,0,0.5-0.1,0.7s-0.1,0.5-0.2,0.7c-0.1,0.2-0.2,0.4-0.3,0.6c-0.1,0.2-0.3,0.3-0.5,0.5c-0.2,0.1-0.5,0.2-0.7,0.3
		c-0.3,0.1-0.6,0.1-1,0.1S334.3,157.3,334,157.2z M336,156.4c0.3-0.1,0.5-0.3,0.6-0.4c0.1-0.2,0.3-0.4,0.3-0.7s0.1-0.5,0.1-0.8
		c0-0.2,0-0.5,0-0.9s0-0.6,0-0.9c0-0.2-0.1-0.5-0.1-0.8c-0.1-0.3-0.2-0.5-0.3-0.7c-0.1-0.2-0.3-0.3-0.6-0.4c-0.3-0.1-0.6-0.2-1-0.2
		c-0.4,0-0.7,0.1-1,0.2c-0.3,0.1-0.5,0.3-0.6,0.4c-0.1,0.2-0.3,0.4-0.3,0.7c-0.1,0.3-0.1,0.5-0.1,0.8c0,0.2,0,0.5,0,0.9s0,0.6,0,0.9
		c0,0.2,0.1,0.5,0.1,0.8s0.2,0.5,0.3,0.7c0.1,0.2,0.3,0.3,0.6,0.4s0.6,0.2,1,0.2C335.4,156.6,335.7,156.5,336,156.4z"/>
</g>
<rect id="XMLID_6_" x="670.6" y="42.6" class="st7" width="9.1" height="61.2"/>
<rect id="XMLID_11_" x="329.5" y="42.6" class="st6" width="9.1" height="61.2"/>
<rect id="XMLID_2_" x="60.3" y="42.6" class="st8" width="839.5" height="61.2"/>
</svg>
